<mxfile host="app.diagrams.net" modified="2023-12-10T15:48:37.585Z" agent="Mozilla/5.0 (X11; Linux x86_64; rv:109.0) Gecko/20100101 Firefox/115.0" etag="GDCDlEPXGiyGwtGU8I8y" version="22.1.7" type="device">
  <diagram id="ZRCxBpTzS2BKZ5gksIRV" name="Page-1">
    <mxGraphModel dx="1434" dy="728" grid="1" gridSize="10" guides="1" tooltips="1" connect="1" arrows="1" fold="1" page="1" pageScale="1" pageWidth="827" pageHeight="1169" math="0" shadow="0">
      <root>
        <mxCell id="0" />
        <mxCell id="1" parent="0" />
        <mxCell id="hrnPTHgjcRG-61fIRarA-1" value="" style="shape=image;imageAspect=0;aspect=fixed;verticalLabelPosition=bottom;verticalAlign=top;image=data:image/png,iVBORw0KGgoAAAANSUhEUgAAAWMAAAKpCAYAAABpWU2uAAAMpXpUWHRSYXcgcHJvZmlsZSB0eXBlIGV4aWYAAHjarZlrtuMqDoX/M4oeAk8Bw+G5Vs+gh9+fcJJKzvvcuicV22UDhq0taYuY9b//bvMf/mJI0cSUi1QRy1+ssfrGRbHXXztHZ+M5nj8Jtyv3et+0av258twKnMP1oMh1dvf7tw73s2tcpaeByrg96K8ParzOvrwZ6HqtDTojvZ63geptoOCvB+42QGu3pdSSn5fQ13W+9b9g4Gv0EMvrtN/9P4PeTLwneL+CC5ajD/6aQNCvN6HxwHG0odDwfh04hiC3wQDkI5zs06zMW6uU9Gj8cv9x9cYovOzcNza8AVMe5w/vu/Tm/m1AcyB+enMYjze/3Mcm++1y7t+9ZzF7r2t1LQqQym1R96WcKxp2IA+nm/DJfBPX+Xwqn2Jg78Dkk1d2PsNV5zHLdtFN19x265yHG0wx+uUzZ++HD+deCdlXP4I1WCnqx22fQw0zFIw5MG/grn/MxZ331vO64Qovno6W3jGYu8zv/53PpwPtrZR3zpYLJ2jBvLySkGmo5fRIKwzi9p1H6QB8/7z9U7sGLJgOzIUFNtuvIXpyN24pj8IxdKBh4nz5msvzNgAQ8e7EZGB9dFZcSE6czd5n58CxYJ/GQMWH6DsmcCn5ySx9xDcwDh7Du+mT3Wnrk79uE7MwRAoSMqapoWErDWzwJ8cCh1oi0qWUJOVUUk1NgkRJIpJFg1/LIcecsuScS665lVBiSUVKLsWUWlr1NRAcU5Waa6m1tsZLGyM3ejcatNZ9Dz321KXnXnrtbUCfEUcaMvIoZtTRpp9hEiemzDzLrLMtt6DSiistWXmVVVfbUG2HHXfasvMuu+72sJozx+3cu8/PrebuVvPHUtowP6xG15zvQzgNJ0lthsV8dFg8qwUgtFeb2eJi9EZNpzaz1eMVyTPLpMaZTi2GBeNyPm33sN0fy73YzcT4V3bzd8sZNd2/YTmjpvvEcu/t9oHVZjtRL5hjIXVDBdUG3G/n1mtlwDZbqnM4eN8cYGxsEtIYu6Q+pLtdqmzJPe3uukldb/YZ16ZPPe2JNKnvhol5WXGN969eAsG0eOmj7+XkejZSdnqVFkvTi+hdmiG2OiTFln3uZKk6ZmvVlbYAaSUXk2M+MvQiJs2lT2fzdAMT9QkQC/TtXsuyCkxQXO9CiE9SZkksmFA/sF5pmDemOUuYrZsaCMt5ru53Y/KRdpot5jX1PiUxZN7wgpm0PlbCXNPLjrG6ORk9emWASRF7XiseMzVfmge1BR31sliv1lITeMt89aot0oqebVU7bo2efZtNOkgANXM/sE1uQxtpp/Gt9+nLYPe+2lOfPnU1+/SUBCg2xQDttInDPR/4CnhwxjRpRdfyRFFAbY/vuJJi792tYWzC4nUFKY3vin3NIMuPNVYkj02YW10XqAF1V2sjwfxhV8yurkxGdDPxFs20motrXKUCNa68WSxEiXkPn0LzTB12hD2KLgnbDvpVUrs+RM/lLZXnhgheBdZtvGuSgIkMQHyHOpT+YlQYd8zK99WkxbgVxj63mMOqSWkLktXlBoXn2KspmUnea9NjOvwuN203hz/ehkys8OiQETPlKndi0jzhDgiCzJDw5yw/koZWnNsuwmInt+c060p9dmLHXCYElTzTa1qLCmFaPaibvTiZtZebNeZbZ4fYBHXbiVnLQ8yYYDbBlPjEty1MNDv8Z90hSd894hQ7lkO62PYIt7mVfojYsYeaQB+ZcIh3e6ZPGlhIWvXcD/ACYBUXTOb2JCri5USS2THnVuhg2tzd9E1eZQmEBAfNUpkWG0znVxtRehUAwUA1ZgI9MYJgn1hMXcRnu3y3fk5C/TSZ2FlWjt1KIoAu8ULUAJLRFn7vM9oMD2dZxUaMxKIn09SZQV0iFNPQs8lV3ahtfDPuUvryVafj8wzQe5OGGF5qi2WFMiY8mE2hDtWl4BfREU3QdzJhrtmZbI3IhSYYGyXio4xQx9IUNHLgH8EZ9uA7W6QkH5i+rW50l0cj+vmIr40Vek4anAYzxpuXT7UNpiZ+O+77gWs48lDPzDgJob6wpJndJAEMKgx81QzajkwQ3OpbpLA8evKpWKJi4U2C+LRr46cjQ1AcSpHuaXnSpeRts3qyeCPRy+AAorYMDSduFCYLAzwhrywyFYaas3dfivhRiQh7TrgLdQFxqbG3MzFoYOiCNUAbWqKh0JBRSGrMFuMR/nXdq8hE6e4uafpGNF1TvB1HOqDkKLPWRBcEnLiTZGrF9LTmJTAfjyPxk7gq7PMyeyBb2g2qa0lupEolbdFMaOjMcifJmYRLwmsE9BK6JSJgcE9gabuJh0BTp7SJKYIXU7ZBdHGdl9WdSjZEh8KMhAHI1QPIB+mS2MkDog1enBHvfcHbKXTrQATLBcVOlgqC6XzHbcyHiWflgnMXcdLD9s3HOIqAAVo7aL/wPrSZhEJwCIvVZwoVFntC60KOZS6iVPLlxE1J+qIxE1zKxunONYE03xO7+Vlm/5PYV3MfRivz1Pfe8+p35ECNQSG0S+g9cP1FHDgxlfhGgzoDrt1I3CYOxAN2gUVVdbtKKc/1RlBotteEU4+Z4esq5wq5qdm0b9vv+SZQHDtNOE5nATS3FIwRzwgVEZRzRNrFhMi8mIgESomU3yu5yDeoA15Gtwgu4PDskevW7LEIoFiHVwUW6f2G/LtX0J+k4LLD0jvUG7tdugENeaCKaV1RmHjR6lE2dKTfjolwum7NM1ZarEbOhNNBHnVyMrthAahC3kvyTOvICNh8yQlSfFUApuY5kgO8hu+XlVjZpLI5LbWrWRqytOdLPx4+9zz98H6ihqe+nfQv3RKRLligfjPxDtFn5zfQMdMHeDR6wGfe4wdfFZIimm0v8L6C7gac+RC5B3DX+n+yfLOfcfs94A/gzIfI/RY4YDO/Id1XnDO/Id1XnDO/Id1XoJvfkO4r6MxvSPcV58xvSPcVcOaT9feMjqFiLEQwmo9I9YrypW5Ca2UJHk2NlEOrxXoUp3mVnFS/y2nAo2CbIxMTiWdzju5rd9RdROi5XCFXt8BbHVqiUf+SzighKAi0EiBvEXsrwv0KynS9z91+cnYj7YMYszRfuumwR67v7+T6Ivij1zJ9FhI/Uh3TcBHPwWv/Kbsg0+ivdde7ysmMMrU8YXGq5wTx08mYzEUsMi+FnYvkQnWAdqXe/1SBmxEWFTRpzTkqIEF+7x6c2hpliYYKrk/gCrYVUjZ1yk79mifYjj+MND/17o+cGyC1ktFcXI2EWzUz4az885xifu7fX7u3+bl/f+3e5u9C4x/3Ng//3p/7d2panRWVfjFSESCzF7VOFrS+b4GKoBXMj6s51BigUpxibvQ0lfONoakh7v2wM3R/kMWx1H/GXB7p5lTYypZIUZN4iDKrUPZ4rvSyKxENUwWqDeoTwfVrLo5iIwmuKbhxFYkiqgs3on7h/VvFJubLlMZNtTPOT0EdtLqHmkgWr+ILaqKeQkQHUtZ3JoU7UYlxF35zz5SldRRFKAvRIoylaQAKzMyykohwwm0pf93X20Dm92rxY7Fo7mpx39Vi+FAtfrRl9HTOzuQ3db/W0ZSE1DI4TZs4MfUfYn40NZXz1ecaQL2+2TAw9x0DZe/LnkFreI8/XGh/uMC6LJAP3Tmg4qAS9z3iD9WgTNNVevubRJUkFb8gvMh5QV5JXYUaA9wopELJEkkPa5IJMAPxrMGjUrWmwKUo/WI5XQrejENsoVAaWmLBg/7dhpS570j97YaUefQ9PfO8bUiV9dmG1Cd5xbxJLN/Jv1teeb8NZN4nln+WV8zvtuT2E3SvwJuPtgI/BP51P+8deOanWfk7GWg+QPCL3dELQjq+A9F8n52/3xVVKMy/sSuqJjA/2hX9AYzmb0j4zEHzNyR8BsD8DQl/7v3fkPAZLPMzEhagk0j8119Zim5wWOdWtGROYCOnghGRjFr/VQ21pR19AL0eOxHOlU16WyRppO1uor8sEO21lr/JHvOF7sn64Kc7ueZs5aal+9sydU9VvP6c04i9WMs5DxLVJ0Izaybe62bY0DRdERRnG81VN4iQAMjS09izZP050s0wPYjKGJFQ70ZoU/fW8bqVYSuZiARPBi8z1OhwQF+HG82Q/6gIMjasnuxNBi+FcSCNr1tC8hCNeXmmGsqMHhKRUYrTH0rIpXXMS1OZ34mqNrCCFdcQRnatrb9sQ11WoTMiYWbIDIVDzD3OtFh+V+irXSlxsKVVRXBqOmRyNvUYyyrF2Vg7smY2E7qookGajzBaoMcUkmDMMuOIUfTXU9bXdWPo9vNLXP7xmwDcntX8H6sjO7dT5dNDAAABhGlDQ1BJQ0MgcHJvZmlsZQAAeJx9kT1Iw0AcxV9TpVUrDnYQdchQnSyIijhqFYpQIdQKrTqYXPoFTRqSFBdHwbXg4Mdi1cHFWVcHV0EQ/ABxdHJSdJES/9cUWsR4cNyPd/ced+8AoVZimtUxDmi6bSbjMTGdWRUDr+hBEF2YxpDMLGNOkhLwHF/38PH1LsqzvM/9OXrVrMUAn0g8ywzTJt4gnt60Dc77xGFWkFXic+Ixky5I/Mh1xeU3zvkGCzwzbKaS88RhYjHfxkobs4KpEU8RR1RNp3wh7bLKeYuzVqqw5j35C0NZfWWZ6zSHEcciliBBhIIKiijBRpRWnRQLSdqPefgHG36JXAq5imDkWEAZGuSGH/wPfndr5SYn3KRQDOh8cZyPESCwC9SrjvN97Dj1E8D/DFzpLX+5Bsx8kl5taZEjoG8buLhuacoecLkDDDwZsik3JD9NIZcD3s/omzJA/y3Qveb21tzH6QOQoq4SN8DBITCap+x1j3cH23v790yzvx9/fnKstNarMQAAD4tpVFh0WE1MOmNvbS5hZG9iZS54bXAAAAAAADw/eHBhY2tldCBiZWdpbj0i77u/IiBpZD0iVzVNME1wQ2VoaUh6cmVTek5UY3prYzlkIj8+Cjx4OnhtcG1ldGEgeG1sbnM6eD0iYWRvYmU6bnM6bWV0YS8iIHg6eG1wdGs9IlhNUCBDb3JlIDQuNC4wLUV4aXYyIj4KIDxyZGY6UkRGIHhtbG5zOnJkZj0iaHR0cDovL3d3dy53My5vcmcvMTk5OS8wMi8yMi1yZGYtc3ludGF4LW5zIyI+CiAgPHJkZjpEZXNjcmlwdGlvbiByZGY6YWJvdXQ9IiIKICAgIHhtbG5zOmlwdGNFeHQ9Imh0dHA6Ly9pcHRjLm9yZy9zdGQvSXB0YzR4bXBFeHQvMjAwOC0wMi0yOS8iCiAgICB4bWxuczp4bXBNTT0iaHR0cDovL25zLmFkb2JlLmNvbS94YXAvMS4wL21tLyIKICAgIHhtbG5zOnN0RXZ0PSJodHRwOi8vbnMuYWRvYmUuY29tL3hhcC8xLjAvc1R5cGUvUmVzb3VyY2VFdmVudCMiCiAgICB4bWxuczpwbHVzPSJodHRwOi8vbnMudXNlcGx1cy5vcmcvbGRmL3htcC8xLjAvIgogICAgeG1sbnM6R0lNUD0iaHR0cDovL3d3dy5naW1wLm9yZy94bXAvIgogICAgeG1sbnM6ZGM9Imh0dHA6Ly9wdXJsLm9yZy9kYy9lbGVtZW50cy8xLjEvIgogICAgeG1sbnM6dGlmZj0iaHR0cDovL25zLmFkb2JlLmNvbS90aWZmLzEuMC8iCiAgICB4bWxuczp4bXA9Imh0dHA6Ly9ucy5hZG9iZS5jb20veGFwLzEuMC8iCiAgIHhtcE1NOkRvY3VtZW50SUQ9ImdpbXA6ZG9jaWQ6Z2ltcDo0ZjMyN2I5MC1mOTJiLTQ1ZDQtYTg1OS0yNDE5N2RjM2ZhMzYiCiAgIHhtcE1NOkluc3RhbmNlSUQ9InhtcC5paWQ6YTYxYzNmM2UtZTBlYS00MTAyLTljOWQtMmNlNjMwYThmYWMwIgogICB4bXBNTTpPcmlnaW5hbERvY3VtZW50SUQ9InhtcC5kaWQ6ZDdmMmU2OWEtNzdjMC00ZTRlLThkN2EtYjcxMDZkYzYzNGEwIgogICBHSU1QOkFQST0iMi4wIgogICBHSU1QOlBsYXRmb3JtPSJMaW51eCIKICAgR0lNUDpUaW1lU3RhbXA9IjE2Njc5MDE4MTY5NDgzNTgiCiAgIEdJTVA6VmVyc2lvbj0iMi4xMC4yMiIKICAgZGM6Rm9ybWF0PSJpbWFnZS9wbmciCiAgIHRpZmY6T3JpZW50YXRpb249IjEiCiAgIHhtcDpDcmVhdG9yVG9vbD0iR0lNUCAyLjEwIj4KICAgPGlwdGNFeHQ6TG9jYXRpb25DcmVhdGVkPgogICAgPHJkZjpCYWcvPgogICA8L2lwdGNFeHQ6TG9jYXRpb25DcmVhdGVkPgogICA8aXB0Y0V4dDpMb2NhdGlvblNob3duPgogICAgPHJkZjpCYWcvPgogICA8L2lwdGNFeHQ6TG9jYXRpb25TaG93bj4KICAgPGlwdGNFeHQ6QXJ0d29ya09yT2JqZWN0PgogICAgPHJkZjpCYWcvPgogICA8L2lwdGNFeHQ6QXJ0d29ya09yT2JqZWN0PgogICA8aXB0Y0V4dDpSZWdpc3RyeUlkPgogICAgPHJkZjpCYWcvPgogICA8L2lwdGNFeHQ6UmVnaXN0cnlJZD4KICAgPHhtcE1NOkhpc3Rvcnk+CiAgICA8cmRmOlNlcT4KICAgICA8cmRmOmxpCiAgICAgIHN0RXZ0OmFjdGlvbj0ic2F2ZWQiCiAgICAgIHN0RXZ0OmNoYW5nZWQ9Ii8iCiAgICAgIHN0RXZ0Omluc3RhbmNlSUQ9InhtcC5paWQ6ODliMDVlZDYtODJhMC00NGJiLThmYjktN2E5ZTUxOTY0OWM0IgogICAgICBzdEV2dDpzb2Z0d2FyZUFnZW50PSJHaW1wIDIuMTAgKExpbnV4KSIKICAgICAgc3RFdnQ6d2hlbj0iKzAxOjAwIi8+CiAgICA8L3JkZjpTZXE+CiAgIDwveG1wTU06SGlzdG9yeT4KICAgPHBsdXM6SW1hZ2VTdXBwbGllcj4KICAgIDxyZGY6U2VxLz4KICAgPC9wbHVzOkltYWdlU3VwcGxpZXI+CiAgIDxwbHVzOkltYWdlQ3JlYXRvcj4KICAgIDxyZGY6U2VxLz4KICAgPC9wbHVzOkltYWdlQ3JlYXRvcj4KICAgPHBsdXM6Q29weXJpZ2h0T3duZXI+CiAgICA8cmRmOlNlcS8+CiAgIDwvcGx1czpDb3B5cmlnaHRPd25lcj4KICAgPHBsdXM6TGljZW5zb3I+CiAgICA8cmRmOlNlcS8+CiAgIDwvcGx1czpMaWNlbnNvcj4KICA8L3JkZjpEZXNjcmlwdGlvbj4KIDwvcmRmOlJERj4KPC94OnhtcG1ldGE+CiAgICAgICAgICAgICAgICAgICAgICAgICAgICAgICAgICAgICAgICAgICAgICAgICAgICAgICAgICAgICAgICAgICAgICAgICAgICAgICAgICAgICAgICAgICAgICAgICAgICAKICAgICAgICAgICAgICAgICAgICAgICAgICAgICAgICAgICAgICAgICAgICAgICAgICAgICAgICAgICAgICAgICAgICAgICAgICAgICAgICAgICAgICAgICAgICAgICAgICAgIAogICAgICAgICAgICAgICAgICAgICAgICAgICAgICAgICAgICAgICAgICAgICAgICAgICAgICAgICAgICAgICAgICAgICAgICAgICAgICAgICAgICAgICAgICAgICAgICAgICAgCiAgICAgICAgICAgICAgICAgICAgICAgICAgICAgICAgICAgICAgICAgICAgICAgICAgICAgICAgICAgICAgICAgICAgICAgICAgICAgICAgICAgICAgICAgICAgICAgICAgICAKICAgICAgICAgICAgICAgICAgICAgICAgICAgICAgICAgICAgICAgICAgICAgICAgICAgICAgICAgICAgICAgICAgICAgICAgICAgICAgICAgICAgICAgICAgICAgICAgICAgIAogICAgICAgICAgICAgICAgICAgICAgICAgICAgICAgICAgICAgICAgICAgICAgICAgICAgICAgICAgICAgICAgICAgICAgICAgICAgICAgICAgICAgICAgICAgICAgICAgICAgCiAgICAgICAgICAgICAgICAgICAgICAgICAgICAgICAgICAgICAgICAgICAgICAgICAgICAgICAgICAgICAgICAgICAgICAgICAgICAgICAgICAgICAgICAgICAgICAgICAgICAKICAgICAgICAgICAgICAgICAgICAgICAgICAgICAgICAgICAgICAgICAgICAgICAgICAgICAgICAgICAgICAgICAgICAgICAgICAgICAgICAgICAgICAgICAgICAgICAgICAgIAogICAgICAgICAgICAgICAgICAgICAgICAgICAgICAgICAgICAgICAgICAgICAgICAgICAgICAgICAgICAgICAgICAgICAgICAgICAgICAgICAgICAgICAgICAgICAgICAgICAgCiAgICAgICAgICAgICAgICAgICAgICAgICAgICAgICAgICAgICAgICAgICAgICAgICAgICAgICAgICAgICAgICAgICAgICAgICAgICAgICAgICAgICAgICAgICAgICAgICAgICAKICAgICAgICAgICAgICAgICAgICAgICAgICAgICAgICAgICAgICAgICAgICAgICAgICAgICAgICAgICAgICAgICAgICAgICAgICAgICAgICAgICAgICAgICAgICAgICAgICAgIAogICAgICAgICAgICAgICAgICAgICAgICAgICAgICAgICAgICAgICAgICAgICAgICAgICAgICAgICAgICAgICAgICAgICAgICAgICAgICAgICAgICAgICAgICAgICAgICAgICAgCiAgICAgICAgICAgICAgICAgICAgICAgICAgICAgICAgICAgICAgICAgICAgICAgICAgICAgICAgICAgICAgICAgICAgICAgICAgICAgICAgICAgICAgICAgICAgICAgICAgICAKICAgICAgICAgICAgICAgICAgICAgICAgICAgICAgICAgICAgICAgICAgICAgICAgICAgICAgICAgICAgICAgICAgICAgICAgICAgICAgICAgICAgICAgICAgICAgICAgICAgIAogICAgICAgICAgICAgICAgICAgICAgICAgICAgICAgICAgICAgICAgICAgICAgICAgICAgICAgICAgICAgICAgICAgICAgICAgICAgICAgICAgICAgICAgICAgICAgICAgICAgCiAgICAgICAgICAgICAgICAgICAgICAgICAgICAgICAgICAgICAgICAgICAgICAgICAgICAgICAgICAgICAgICAgICAgICAgICAgICAgICAgICAgICAgICAgICAgICAgICAgICAKICAgICAgICAgICAgICAgICAgICAgICAgICAgICAgICAgICAgICAgICAgICAgICAgICAgICAgICAgICAgICAgICAgICAgICAgICAgICAgICAgICAgICAgICAgICAgICAgICAgIAogICAgICAgICAgICAgICAgICAgICAgICAgICAgICAgICAgICAgICAgICAgICAgICAgICAgICAgICAgICAgICAgICAgICAgICAgICAgICAgICAgICAgICAgICAgICAgICAgICAgCiAgICAgICAgICAgICAgICAgICAgICAgICAgICAgICAgICAgICAgICAgICAgICAgICAgICAgICAgICAgICAgICAgICAgICAgICAgICAgICAgICAgICAgICAgICAgICAgICAgICAKICAgICAgICAgICAgICAgICAgICAgICAgICAgICAgICAgICAgICAgICAgICAgICAgICAgICAgICAgICAgICAgICAgICAgICAgICAgICAgICAgICAgICAgICAgICAgICAgICAgIAogICAgICAgICAgICAgICAgICAgICAgICAgICAKPD94cGFja2V0IGVuZD0idyI/PsNXqK8AAAAGYktHRAAAAAAAAPlDu38AAAAJcEhZcwAACxMAAAsTAQCanBgAAAAHdElNRQfmCwgKAySkFHkFAAAgAElEQVR42uzdeXxdVb3+8c9ae58pU5O06TzSUjpQWuYZEYGCMhXhqgiK1wkH5AoyigwqoF70Z71XFJCroBcocgVknqHMpZS2QAsdaSkdkzbNeIa99/r9cYYmBSGFlDTwvF+v0JCcs3OyTs5zvvu7117bOOccIiLSo6yGQEREYSwiIgpjERGFsYiIKIxFRBTGIiKiMBYRURiLiIjCWERkx+N358acczjnsNayoSnNrTOXc/9zb9LamsNaA0AUOYYNruT0qeM4dNcB+J7FOYcxpvSviOw4trw+IzAWooDs4ofJPD0dt3ohxnrFG+JiCfzdP09yv+/hVQ3GRSEYq9d3F5juPB06cg5rDG+8vZlLb5zNytXNJOIW6PwEhFFEGMEJh47izGMnkox5CmSRHTqICzERpml77GfknrsJYy3Gbl3PGaJsGjNgFGUn/BexwbvnQxyj1/dHGcbOOZavb+Gi/3mRVaubiMc9oghgyxPQ8cnNBREnfHo03/3ceOKewfesniiRHTCQCQOcy5J+8ldkn/0fjPEw1nYOV+dwgLEeLpuGuqGUn3Q9Xv+JpYJMr+9/rVt7xtlcyH/+fT4r395cCGKHMZ2fgI7vjr5nuXvmcu6etZKY7xGGEVq3SGTHCmIXBRg/RvaV28k9f2MhiL13VrmmUP1GISaehPVv0XbfBbhcO8ZsaWPKRxDGc5Zt5NUl9SQTfiGI3/1dsBjInmfI5EKenreGpvYsxho9WSI7XJvCEqU3ESy4H5dtw3g+zkXv/fqOQkyijGjFHIJVs3Ad2hTyEYTxfbNXYeE9g3jrQI57luVrmpm9pAHPWkI9VyI7DONCjPXIvfU84fqFGD/5nkH8jkC2MbLzbs1/Xqic5SMI4zdWNlJs1HftXdcQ8w0NTWneXNNU2I3RkyKyA9XG+ddlw5u45vUYL4bp4ovUGAfGEr49DxMFqoo/yjBubGwHuj7gxX5yJhPQ0pLNh7ieMJEdqU+Rr3LbNuMyrThj8y/crr3CwRhcc31pO/IRhXEuCLd5wI0xRJEjKPQnnFEYi+w4YVyYBRGGmChkm/PUOUyQU5H1UYexY9t7QsUjrMVdGIPePUV2GKbDv8Zsy47vlt1fHKgq/mjD2BTCdVsrYzX2RXpLOH+Q16le2x95GBfDVUREejiMRUREYSwiojAWERGFsYiIwlhERBTGIiIKYxERURiLiCiMRUREYSwiojAWERGFsYiIwlhERBTGIiIKYxERURiLiCiMRUREYSwiojAWERGFsYiIwlhERBTGIiIKYxERURiLiCiMRUREYSwiojAWERGFsYiIwlhERBTGIiIKYxERURiLiCiMRUREYSwiojAWERGFsYiIwlhERBTGIiIKYxERURiLiCiMNQQiIgpjERFRGIuIKIxFRERhLCKiMBYREYWxiIjCWEREFMYiIgpjERFRGIuI7Jh8DUHv4JwDwBhT+nxbGWM0kCIKY+mOEO74/x/k/gpkEYWxfIhq9t1COAgCVqxYQUNDA76ffyqjKGLMmDH06dMHY0yn+3esqhXKIgpj2caquPi5tZZcLseSJUv45z//yTPPPMPq1avxfb9022LoTp48mSOOOIIjjjiC6upqjDFEUYS1ttPtRERhLO8TxMUABbDWsmjRIm644QYefvhhjDF4nlcK4iiKMMaUwvbll1/mhRde4LrrruPb3/42xx57LIlEonQ7tS1EFMbSxSAu9og9z2P27Nmcf/751NfXU15eThRFtLe3k8lkiMViJJNJwjCkqakJz/NIJBJUVFSwefNmLr30UubOncvZZ59NbW0tYRiWArkY9p8EehMShbFsc2gUq13P87j33nu5+OKL8TyPiooK2traABg7diz9+vVjyJAh1NXVkc1mWbVqFevWrWPNmjWsXLmS6upqampquP3221mzZg2//OUv6devX6cK+ZMiDMPSmHYcZwWzKIzlXatioBQazz33HD//+c/xfR/P82hpaaGqqoqTTjqJY445htGjR79jG5s3b2b+/PnceOONzJo1i0QiQf/+/Xn22We54oor+NGPfkT//v3JZrOfiEAujmkikSgFcRAEeJ6nQBaFsfzrqjgMQ5xzrF69ml//+tdkMhni8ThhGDJhwgS+853vcMghhwCQy+U63T+KIvr06cPBBx/MlClTuPHGG5kxYwbpdJra2loef/xxNm/ezNChQ0s/x1r7gecu9yZVVVUMGTKEgw8+mBEjRpRaNApkURjLv6zifN/nlltuYfny5cRiMYIgoLa2liuvvJJRo0Yxf/58hg4dSk1NDWEYliq+YojHYjFisRjf//73SaVS/Pa3v8X3fVKpFC+++CJPP/30J6oyNMaQyWRIJpPcfffdnHjiiZx00kmdZpkokEVhLKUgLQbDggULePLJJwmCAN/3sdZy8cUXM2rUKO644w5+97vfcdRRR3HWWWeRTCYBSqF8//3389hjj5FKpfjmN7/JaaedxqJFi7j77ruprq6moqKC8vLyTlXxJ6FVUV1dXRrbJUuW0NrayqmnnlqakaIgFoWxdGpReJ7H008/zcqVK0mlUuRyOT7/+c9zyCGHsGnTJu644w5Wr17NjBkzsNbymc98hpEjR1JbW8trr73GbbfdxvLly6msrGTt2rXE43G++tWvsmjRIt58800SiQTGGAYMGIC1tnQw7+McxMV++7p166ioqCAMQ6ZPn87EiRPZd999P9DZjSIK449xaBTnCS9fvpz29nbKy8tJp9OceuqpOOeoqqriRz/6EZdffjnLli3j1ltvZeXKlVx22WUsXLiQCy+8kDVr1lBTU8O4ceNKbYhx48ZxwAEH8Morr1BRUUFjYyO//OUvmThx4sc+hIpB65zj8ccf55prriGdTuN5HldffTU33HADVVVVnU6KEVEYf8LDuFjBbd68Gc/zcM6RSqXo169f6Xa77bYbl112GT/5yU9YsGABTU1NlJWVcdddd7F48WJSqRTHHXccZ599Nu3t7YRhiO/71NbWltoSzjmy2Sx9+/b9RI3xF77wBd5++22uv/56+vbty6uvvkp9fT1VVVU6kCcKY+lcGa9Zs4aGhgbi8Ti5XI4JEyZgre20tkSfPn2YOHEiw4cPZ9y4caTTac477zwaGhqoqanhoosuAiCVShEEAc45Bg0aRF1dHblcjlgsxoIFCzjssMM+MSEUBAGxWIzJkydTV1dHOp0mHo+zcOFCRo0aVXoOFMaiMFYY45yjra2NTCaDtZYwDNlll11KCwEVe7zDhw/niiuuIJPJkEgkSmFzySWXkEgkaGlpIZVKlXa7jTEMGzaMuro6Vq5cibWW5ubm0nzmj/N842LAFvcK+vfvT21tLStWrMD3fV555RWOOuqo0owUEYXxJ1wxDFOpFIlEgjAMS5VbLpfD9/1OoTlv3jymT5/OMcccw7HHHsu8efO45557aG9vZ6+99uLkk08uzSV2zrFy5UrWr19PLBYjm82Wds0/CeNaHIPiVLaOp5xvvdchojAWjDGMGDGCuro6XnnlFcrKyli+fHmpwstms2zcuJH169dzxRVXMHfuXJYtW8bee+/Npk2buOuuu8jlclRWVpJOp0kmkwRBAMCGDRtoaGigrq6OtrY2xo0bV6oGP+4zKjq+iW39+dahLaIwVhCX5hVXVlYShmGpndDQ0MDgwYNJp9PcdNNNPP/88yxevJjq6moOP/xw+vTpQzqdpq6ujvr6em6//fbSPONkMolzjoaGBoIgKLU6+vfvr+lcIjsIzePZkZ6MQkh6nsfYsWNL82F93+f666/HWovv+2zcuJHXX3+dfv368YUvfIFzzjmHqqoqxo0bx0UXXcSoUaNwzvGXv/yFe+65h3g8zquvvsoTTzxBdXU1uVyO4cOHM2LEiFLF3ZNh7HAUC1IXheRyOSJX+M5HXKm64iOKQoIgIJcLCKMo/3XnSv9GYUCQy5ELAsIo/3VX/D5bzqTMbyeX304Y5X9P1+H3fZdtBkFIFLlO33fF+zhH2PF2W21PFMbSHUFQmNoGcOCBBzJ48GDa2trwfZ/777+fZ599lkQiQSqVoq6uDt/3mTx5cunEkJ133plDDz2Uyy67jBEjRrDPPvuw22670dzczC233MKSJUsoKyujsbGRww8/nPLy8ndcSeRfPa58sATkcmHnYOqOPQIMxfcCYz1isRjWFL7zEb9JGFz+59r8WtGxmI9nLfmHYzCF8bCejx+LEfN9PGtwrtD+6NCbdi4qbCeW345nKdwQYxyO/O0MEDlT2qbve1gLUYdt5lsr+cfgdbxd4WvasVGbQrq5TWGtJQgCxowZw6GHHsqtt96Kc44wDLn66qu59tprOeOMMzjhhBMASsth+r5fOlg3adIkrr76asrLyxkyZAg33XQTDz30EDU1NWSzWYYNG8YxxxxDLBbr0lKapf6q9YnZ0hfprte/w+Eig7VQv+wR7rp7BXud9nUm1+YIo3zYfXRviAbIUb9yHk/PnMfqesPEzxzFgbsNJhaFOGsx1rBq/j+57/ElZMt34qDDD2fKyHJc6MCzpcDGWNrWzubee59lVUsZ4/c/nM/sMxLfhTg8bOF3x4C1aV5/8m4efektbN0EPvO5Ixlba4kiMNaAi/K1U7iWFx57jgWL10DFGKaeciRD/IgIi1UgqzKW7g3kYvh97WtfY9iwYaUF5JcvX84PfvADVq1axZQpU5gyZQpDhw4t3d5aW7o009ixYxk0aBC/+c1vuPbaa0vf39TYyJe+9CV2HjOmFN6FQje/K1yYaVCKSReVZh9sfvl6Lrh4BuuiiCgMiTqc2RZFUeHDlXapi18vfb/DLnnH2xR/RhRFtNYv4vmZz7O6FaBwn2jL97ectrydWhjGYEyWttYMZf0rCTauYNnyBsLiIGFoWHQX/3vPCsYcciSTB27ikTvvYP5aA5bS7w9g2t9gxo0P0jr0QA7bbxArnriT+56rx2CJwghnCrd1hrdm3sI/XwiYcthUxpSt4O7/vZPlWYMxhTFw+RaKyTbTFibpOyBg+cuLaAzVplAYy3ZtVTjnqK2t5eKLL6aqqqq0jOaCBQs466yzuPrqq0vLZxYDvFhZx2IxXnrpJU455RRuueUW2tvbSaVS1Ndv4N9OPpkvnfJlrOfhFT5MYbfZGIMpTPMqNRCMLU39onkZc+etwlmL9fK7yB1/bv6j8FjYMre39P3ibn7p8RZuYzx8P3//eLKMqj6VJLx8lWqtxZS2bbdcrYPiv93fpnAuwaDR+3Lk1MPZbexgktZ0aFNkWPDMLFITT+Cw3Xfl4M9+hvFV65g9Z1n+sXWYNrd2/hMs83Zn2tQ9mbzvURy8ZxXLnnuRemPwTFQKYmPW8MzMFYw89FgOnLIrRxxxOEOCV5n9chPGWFy0pU3hEiM5+IipTD1sd/pXJvHUplCbQrZfZVysYsMwZI899uDHP/4xl19+OdlsllQqRXt7OzNmzOCBBx5g0KBBTJgwgQEDBpDJZFi6dCmLFy9m48aNtLS0EIvF8GNxMu1NlNVNYurJ38Zf8xiXXHkds1e2Ea8eyzHfOIdvHD6C9MpZXPu7P9PvxN/x5QNiQIa7r/ouL9edww8/38x/XvsimzfG+N7Jz9Jv+H58/cJz2afvGh6/9QZuuuN51rV6DBxzPGdd/BUm1/k0rPg/Ljv7UUafPJzXZrzKkCO+xHe++zkGhAGR9fK9YreGe359JX96fBFlw6cwaecqXAyCAIyJ07rqKW687k88MnsdUayOAz//Q876yh6k8jv4dF+zpGN/3OLFLAZHmIsKBxPztYtjPW+v8dlp36HgIpytYUC/alaufot2txMpHFFhO+vfXE/tkMPo4xwRHrXDBhKfs5r1zY5+FS6/XWtwbW+xtqUfh+yUxEURprwPQ4dWMvetdbh9qjAuAmMxDiIbI2YgCCPCMNILRmEs27s67njG2FFHHUV5eTk//vGPaW9vJxaL4Zxj06ZNNDY28vrrr5dCvLgrb63Fj8WIHAS5DIcfcSTnX3gFfaPHOeuM66j63AX8/b8ms2HW7zn/8h9RPnwGX0xladq8mfLsljZFumUzLWXtmOq9Oftb+/Dqf9dx9d++y6DQEk+lmXnTf/GXxxKc8bu72X9gOzOnn8mvLq/k99NPIuY1sfyN16hs/w7/fesPwVligCsenbKOl67/Cde9PJqf/+Vqdkks5S8XfpsHGg5mWhxcMJPpP/8jLZO+xU33HUpV0/P89MzL+a9+13HeZ/sTRWAt3RrH+XGMiEKXbyPgip3dQuWcIR341CTBYcF5ePE4LgzJGkfSOCJn8KyhvT1Hsq9HVKi4rbF4Nks6Z0ozJIxxmGwbAR5eIgITw2GImQRhJocx+f6EKx74iyIcplN7aUvnvbvfmkRtClXHnc4QAzj44IM5/PDDSydwRFFEGIaljyAICIKAKIoIgoD29nYSHnh4HHz0V/jZz39OXU2CxQ8+SnPtpznt2H0oTyQYedC3+fxerTxx1zJIxfGsVzoQ5BxYP4bv5dsV8ZiHsR7xRIJkWQzTNJ8XX1hM7ZT9Gdi2jMWL1jLsU1Nof+khXt6UJYh8+g4fz+EnTiKR8Ikl/MJBK3DOYswSHnhsDQefcga79U+Q6DOBI746jZ3CFkwVbJ75BIsaB7D3pBE0LFvK8voB7DuljJl3Pk0OoNTPLoRRx740H6yP2inctpTEuLDYS0+SiuXItoNxIZiQMJPF+D4JDMb6+IWDeOXlcdqbAyz5Kjh0EUGYIBUHYyy+52GNgUQ5MRMQpD2IQoggF6Xxk3HAFFpChkIud1ru07n8df0cxZkcev2oMv6gVWCHatA5R1T4kC1zTKPC0Zvi6cthGJJIJBgyZAjZbLa0jkXxPmVlZdQNGMqn9xhCw9LFZHY7lVQsAc7R2pwmWd2X8kR+LQvrpairqSDb1AzG4Ey+qguCAON7eMZsOeAWgTEQBjkCY6ElR3u6kdeevYvpS7I0px0m5jF873HUxD1cs8GnkqpkPtii0gyMYpA00dJWyc4DY0RBQGQs8WRfqlPLcEBbS0i2/lX++b/TeSRqIYjAJgdywK4DyWIo77SWhMHYjpVhvif93nVz/vvFg4ilUHfg+xaoJBX3SSSSpDwLRDjXn2FDQl54fSlMHIOJ6nl73SZSw4eTdCGZljTEYsQTPgN26s+mh15joxlLrQmoX/YW2dhIBlZEuGyW9hA8P048NZwhlXex8I1m9jyoBhrrWb6yjYGH9se5kGx7BufFSCQ8DBZjobwyRdzzKU8VZmVEUb4XT9StgexcVHr+O79i5eMVxo5O8zIBPGPy1YJ0LJULmZLfVQ2CgKFDh3LuuedSUVHB+vXricfjpYp5xPDh7DR6NARrueEn55GJHI6QCJ+huwxm80MvsXjdKQwb7UP4OrPmrqf/McMw/jKIcjS1WHzfA/cmK9fWk+kbwzOGHBG5LFT5sfwfzoC+1A0axZ57fIOrvr/7Ox72hnrwYl7hIFV+V91gCr9PhDHDGTN4M6+/uh67105YoOmtV1jVmsIPoWanOvoM2Z0vnvsrDhvzzj+ebHsLba1QXltJzAa0bGom8supqIxjcTj3Pge2XMfTo4uXoAJjIhrXL2PRwoXMXb6KpvrneCjZzMTdJzKkKsGEQw7lhRn3cN/MffHXLWRZMIKj9hwJpp05D97O21UH8dkjR1M36TAmPH07//jnTMZXNTB/Qcj4Q/ejBkvUMJ//e3ANux52FLsPH8CBn5nIzU/exaNmF1rfnEND5Z4cOrkKYzIsmHkXb2QncfRxu9LHNvLGSwtZ+fYrrGx4i6ceeo6Ng4cwfuJwEg6c7eZWhfEwHfbWimMmH7cwNluOrAf5Ge60B2F+GpF06h8DBKHDQGkucjKZZPLkye96vyCXg80bad5Yz+bWCGMsmVxI/wOnceTM/2TGf/+UpRMGsfnt53i16jjO/lw/XHnIvnuN4rb/+xl/3TSR6th6XnhtBcnR+YNYiVGTGZa7k99cE2PnfmM46LOHc/SJBzH9mt9z4S/2ZES1B2Ez7Yk9+PevH4oLW6lft5FsYf/fkX9TMc7gTL7KPObfj2Hu7//AHxJ7MbhPnAUPzGddMIbNGyG16wl8bs/f87ffXMjc3YZTZg3pdDsDdzuFLxzal0VPXsMf7vD41m9+xOTylcz41VWsGv1tzvnGXlQQFVoh7xEeJj/H10UBUdCG8SwudBgb0rZpEQteep3ykaOoiZpZPGcu/ccMZVBZJdUjD+aU47I8PHMW2eRIph57COP7tREFWarqymlLRJigncgbybQvHc4jD7/Aq2tSjP/0URy0e5IoaIe4pX/fJJV+hiiIGLTvZ5nmHmbmnFnYunEcf9LBDDNtREFIRW0ZfTMuv01Tz8oFc1nW7Jh04AhaFs5icdvu7DSujkQUERVPUOmuv78gi/GrcFEuP5bFXol0fxy6bpys+emz7972HoWFbCZkxKBKdhvTl9Z0gNXs9XcN49dm/p2Vcx8hF4QMHTqUyy67jClTppTWs+h4e2stJrOJl556nLYBR3HwbuX5y9P7PqZtGQ/dfT9zljWRqp3AEScex4S6/Ltj0PwmT977AK/WWwaN351+rSuxQw5gvz0GkTRtvPHEP7nv2cXYAROZ+vlpjKuOWLfkOR548HnWtkTEy2oZu9cRHLn/CHKb5vHwfevY+wtHMtjbcmKC69CcNcbw5nP/x4NzNpCqG0RdbV9iuVZG7j+V0VVgTBNzHr+XJ19cQdYk6DNwFPsedjS7D/V5+7UHeXy+xyGfn8rw+AaevvM+GuoOZeqBI0gSFSrjLX9LxUtazZ8/n0suuYSVK97E+HFO3LMvPzhyJL61+dOQjSWWKCdelcxP68CC74gaN9Oey++2+8lKEhUJcFnCphbac/lxT5ZX4rl22ttyREQYL0VZVQXYCFqbaW3P5Q/EeUnKyn2CtlYyQb4FlKioIlYWh6CdXFMLmchgMCTKKvBNlnRrhpAY5TWV4AGBg5gH2TbSm9sIt0dW5h8Y0VsvEa19HRNPsS19kHw1HVF1wRuYWFLrRe+wYRyBMw6LIZsLacuGhdM79cRsHcYOiN56lET9i6QzOYYNG8bll1/OHnvs0enq0O/XH8WFRMbb6sitI4zyc18x9j1fl52/7YhCsJ751z/vvR4LEIUR1rP/8gd255ll7wjjN5dj4mUcP3QdZ45vxDP505LzbfKQMOz80igeSMu3g4rrR5jS/Or87xPiTGG+daHnWpyCVpwvbQq/Wxg5TOmAqSMKo8LxEoP1bKef5Vz+awZHGISdA9dYPM9uv5eNiyBehvGTlA4cKIw/fm2K/PqyjnjcI5n03/s1/AkP49a416U/5tJtCovKYHw8rzhDw8NEIUFpFkLhaL0FsLjCLA1XCI/8i8/Lr89gHWEQ5APDWDzPx9r8Ajdhh5kHxnqFdRhCwsBhfT/fwy2tQVGcJWKw1pS22fH3sp6PNRbjIsIg2nJQ1xis9fBsPqTCEDzfx5r8Y3PGKwSTK60X8Z69eOcwfhJTXptvZZf62+891cgrfLzb17f6E/+X2/E/4Db9nnihujA/B1pB+jEN404BQv4FrTB+l2AtTmnq4kuntOqOwfNj7/i6sR6+ffdK2liL3+minJ1nLHh+bKtwyC9w866bMx5bfnznA0sdz/LzfB/vX/4uFs+37/p9a322PNTOvytsy1lpLj+lLH96oP7+5BMYxo7SylX59Qt0ZOA92xTO4WkB9O6tAAqrq7koxJnCQkEK43fdizBmy6pz8jFtUwRBRG1NiiEDKsgGkaa2vVvLAXi7MUX9GvXcujNgcA5TORA7vDL/d6ee5lZ/gBH4cVzDKtzmtRgvpjH5uIaxNdDUluWEg0Zy9sm7kQ1C4r4uDPluYfzb387ib6+6Ttd06/gh7z+WncbLWFyYI77LNCpO+1Hp9HOFcYcxC7IYP076kStIP/YLvMpB4DT59GPZpjB2y6m/HT+kYwG35eSEjhfWLK64VvxX3tvW45Vfw6P4N1eck6wV0Dr/8W1ZKa/UotD7/sezMu64BoOqvHev5t6tSnbOkU6nyWQy+fnDusz8+ypewiqdTpcW1d/yN5c/SaQ4y0OKf3NbTocuBbJ8DMN4q6pPlXHXKmPP82hubmbGjBk8+eST5HI5jVkX39hisRjr16+nqakJz/Pya3Bs9Xensez0x9f5NanK+OMbxrLtgWKtpa2tjUcffZQwDBUe2zh+nueRSCTwPK+0QL+Iwli2uUouBnLHC4rKtgVy1OGKHCIKY/lQbYso6r4rPeSDyZbOZistLRmF+UvVuw+4+15YIMjzPAwRQbjjnMWlIBaFsexopWL+tPQwQ/OmDaRz+dOPrY2RrKiiMuXnLy2/zfP9Hc4YLCGtzU0EJKmsTEAY6cQBEYWxvEuJSJBpp2rIXnz3lz/iwJFx4p5He/Nqnr/jOm6871WaAo+YV7jqXClIt1zh2RQvNtpxTQjjYaN2Wt1wjv/3LzHePMr0P76I6ZuCoLgY+papZFuu+lxYH6K0vnBxwRlXuI+Iwlg+pmEcBTlsxSDG7dSf5fefxzWPZhg17ni+c9bPSOZ+yH/dvZisSUKU67AokCldYToKswSRwff9/DKZLiLIZrFeSC6KUzdkLDt7z5NuasOvSeIbA1FILgzZsgaQh+d7pUV/8quaGVxUWAzI5q86raln8nGka+BJae6oM472jet5Y+6LPDv7Be7+y7U8vbqMXSeNoMwPyIUJdj/uAv58+3089PB9/PXX3+XAURW0bFzLqM9dyu8vPZ3R1Rla0gExfzznX/9XvjQ+wS57H8dJx01ilwPP5PanH+DyU/anX9RA1GdPzvjJddxxzyM8eM9fufRbB9DXtdO0qQ9Hf+0CfjP9F5z7rZ/yt3uv55QpA7GZNJGCWFQZy8e5MjYmf0FL46foN3gMO4/aRP8BhzG2T8Cbb66jNesYc+i5/OyMfvzpnC/xf+t1GOEAACAASURBVIvL+cIPr+QHF1ey8avfpNGvoroqhWeLJwj4lFf1pTbVzCuz7ufOe8Yyxf2dc3/yBN6gGM2ZyZx/1bkMfeV6vvG5e2nqtz9nXXouF3xjNaddsgYTH8NB+wf84vrzufr6NMm4w8UTimJRZSw7ShG7nWbcGwNBGlc1jBN/8Cv+fO3fuPnWCxn06rVcc+cCmk0t+x23L+vuv47bX23Btr7Bvf+4g3o7mf32H0xbY1tpYXRTWCw9CAJCHFEUEgQRURiQyeTItDZSvcdJHNh/Lc++vIY+O41lcEWaxfPWMeLozzIql4ZEO/Mff5rZL79J1jiCUo/Z9Y7xFFFl/PEM4OJVoYvzjLt7WpaLIpyfxGtezi1/+Co/vSPgoJPP55JvHcBeox/j7TkRZZUejWvqCf045b5PurWR5kxIsiKFF7r85eyNwfN8XC5HZGzhYqRb1jXw4wmMyVHdN0U8MYLPnv4dPhXGiXsG4+d4eeYyKEtiTTvNuTTp0Mf3DMaZbj+A13FcdRq+KIylC0VrPn7Ky8u3z4kKpW06ctmATNYjURkw7/b/5H/3uZFTv3wYz73yd5a82sKJhx5An7/+kSX1EXvsvztDawNmvbme9v6WquokLrOZdWtCqqZMY0StZX3kIHLYeAyTbWfDqjfxEtVEry2nsbUPt/3iHH5/7wIyNk55nwEMHVpBS6wGk80WLlJLYd3rQjulm8fVOVc6ecZorWhRGMv77UYbY5gwYcJ2a1G4KML6SWr69qMyEZHJxBjQbxP3/vffOXnGN/naUXO54bbreOWqr3DJT6p5fVMfpuwxiTdn/i9PLo7T3PAwc9pP4svfOZ+Jr7xF9agDGd2/hoVJH5ttYNnStznkuNP46S8msXTZMzzyyC1c++CunH7OVYw/egXNoSXhGeqX3Mv1N2ykrLqW2j5l2KjQnthOFyV2zjFx4sTS8pk6K08UxvKe1RvATjvtRCaTIZVKlRa46a7K2EskydS/zj/+9j9sXBpRHgvJUUW47gGmT69kZDu0bbiLX1zezrRpBzBsUMDcB37HvffPZn1iMPGNj3PNHyzHHLYrAwf35+15f+HKK5+neVUZlYnNvPjA34iZz7L/uOFUr5pFqqqFh/54FZunTuXQPcfQLxawec0SliypJ14b8coTd9JYtoa2ZDm+i7o9iItrVKTTaUaNGqUglp5/rffo1aEBzxo2NLbz1am7aHH5fyGKIqy1ZLNZfvjDH/LMM8+QSqW6b5Eg58BaolyalpY2vLJqiifKWQ9aNzWQsVXUVKWIso1s3NhCNoR4WR9qqivwCXHGI0xvZtPmNiLjEU+WYYM0XnktFQmIwiwtjY00t+eIV9ZSXVlBwsvR3NhIU2uayBm8WJKKqj5UpKCtuYVcFKOiqkN13M1B3N7ezj777MP06dNJpVKlcZYOY9VxcflHr8JWDYYo2LY9O10dWpXxx6VNUayO4/E4Z511Fq+99hptbW14ntc9gdypTVGOi4LCGcuOKDRU1A6k0oX5S93Hqxk4pKbw4PKXoY+cARfhp6oZUF6DKR4Ms1W4MJfflk1QXTeYGkNhvYuAIPKoqKmjqrZ0Cl7pis9llTVYk78y9PYI4iiKqKys5KyzzioF8fY6OCrSFSoDekGbYssFWyPGjh3LhRdeiLWWTCbTbYvKFw/ghWFAVFqDIj9NLQrzZ8PlLwYQEgRB/iPMtw/ypy4XQjYICML84kJhEBAVZ1MUth0UzqzLXy3aEYUdtxeWfraLQsLQdftBO8/zyGQyOOc499xzmTBhQmnBJa2lLaqMpUvVcbFlMXXqVIYMGcJvf/tbZs2ahe/7CpIujKFz+bnPe+yxB//xH//B5MmT33H1FI2hKIzlfarWzsGy6667Mn36dJYtW8brr7/OG2+8wVtvvdW9B/Y+JiHseR7Dhg1j7NixjB8/ntGjR1NeXv4vx1dEYSzvGSrF4ChWeeXl5UyaNIlJkyZ1uo107Q2t43gqlEVhLNsUJltfwLXj9xQmXX9T6xjEGjdRGMsHCuWOgayK+MOPo4jCWD5Ulawg6Z5xFNkRaGqbiIjCWEREFMYiIgpjERFRGIuIKIxFRERhLCKiMBYREYWxiIjCWEREFMYiIgpjERFRGIuIKIxFRERhLCKiMBYREYWxiIjCWEREFMYiIgpjERFRGIuIKIxFRERhLCKiMBYREYWxiIjCWEREFMYiIgpjERFRGIuIKIxFRKT3hrHr+InTsyEiCuMeYTp+YvRsiIjCuGcrYxERhfEOEMZqU4iIwrjnqE0hIrIDhLGIiOwAYaw2hYjIDhDGalOIiOxIYSwiojDuOWpTiIjsSJWx2hQiojAWERGFsYiIKIxFRBTGIiKiMBYRURiLiIjCWEREYSwiIgpjERGFsYiIKIxFRBTGIiKiMBYRURiLiIjCWEREYSwiIgpjERGFsYiIKIxFRBTGIiKiMBYRURiLiIjCWEREYSwiIgpjERGFsYiIKIxFRBTGIiKiMBYRURiLiIjCWEREYSwiIgpjERGFsYiIKIxFRBTGIiKiMBYRURiLiIjCWEREYSwiIgpjERGFsYiIKIxFRBTGIiKiMBYRURiLiIjCWEREYSwiIgpjERGFsYiIKIxFRBTGIiKiMBYRURiLiIjCWEREYSwiIgpjERGFsYiIKIxFRBTGIiKiMBYRURiLiIjCWEREYSwiIgpjERGFsYiIKIxFRERhLCKiMBYREYWxiIjCWEREFMYiIgpjERFRGIuIKIxFRERhLCKiMBYREYWxiIjCWEREFMYiIgpjERFRGIuIKIxFRERhLCKiMBYREYWxiIjCWEREFMYi0v2c0xgojEWkJ2MYnMMQKbkVxiLScwwYg8Nsw12Mhk1hLCLdH8YOgnIw8a5VxQpjhbGIbI8wjiBKQZdbFQpjhbGIdLMIIovxN4MLu5DDBlDPWGEsIt3MgTNg09sQsqqMFcYisn0C2dhtu70ojEWkOxmwBpdLdO0AniiMRWQ7hbGJIKwAk+xiYazKWGEsIt0fxi7Ktylcu8J4O/A1BCLy/iJwHsQ35EO5S/ltFMiqjEWke+VnU+g8DoWxiPQoA8bDhVnFhsJYRHo0jG0EYUqxoTAWkR4NYxdiqAACDYfCWER6hiucUBeA0XF/hbGI9FwYOx9nNoOp0HAojEWk58IYsCF4SQ2HwlhEekahZ2xTkFuj4VAYi0iPVcYYsA6dK6YwFpGerIyNxWWz4PfTcCiMRaTHwtgGENaBy2o4tgPtb4hIFxQWlzft+TUqunov57TEvCpjEen22s1r6dpll4oBYxUxCmMR6UYGTBbCQWA8DYfCWER6jDNAiC6ntN32O0RE3jeJwVmIbd6mNYqd1jNWZSwi3R3GDmMdRDmFscJYRHqGAWNwzoDt+g610Wr0CmMR2R6R7Lp+2SVRGIvI9kgLT0GsMBaRnuUwNoFmUiiMRaRH5demEIWxiPR4GG9rMa0qWmEsIttBYRnNbbi1AllhLCLdHcSuFLFdq6WNwWlqm8JYRLo5jqNg2yrjMNQ8Y4WxiHR7VLg0RGVdLYshCDBatU1hLCLdKYIIMEEXy2IHvg+R5iUrjEWkGxUWl7fbcJUPz9PaFApjEelehm2dTWGcUxgrjEWk2ytj44MLtuUeOoCnMBaRbq+MTWFN467eQ0GsMBaR7RAVNr+MpiiMRaTHOIyXRAsFKYxFpIfDGBvXMCiMRaRHRQHG6qrQCmMR6dm6ON2ufrHCWER6Poxbt30JTdkxwrg42dt0OACrCeAivTSMw21bJEh2iDB2OAfGGoyBMBeRyzmMAWsMzjkdjxUR2b5h7HAuH8JBJiDAZ/jYOibtXIGNQjK5CGMMRhWyiEgnfvdmscFYRzYNw0aP5gen7Mz4SosDcpvrmf7X+Ty1KoMXyx+V1U6PSG+hAqp3VcbG4XIh8do+HH3MrhwwMEVNeYLa8gQDBg/hwhOGMKjCkA2cglikV9ErtndVxkAuZxlQ1ZcDx2T4+z8W0bbTcAavX8oTzYO55PND2bl8Fauasjjf09MrojCW7VIZ44giQ1kyhU23sHjZRjKeRyJs45Vlm9kUWqp9i9Eej0gvoxdt76qMjcHYiEwuIHAeFeUe6WxE36HD+OawOgbmmljVHuCs0fusiMh2C2Nn8L2IxtbNNLSPYNzoGhZnEkzccxQTSfP4nct4oynA+nYbl6kWkZ6lV2svC2OwvqW9cSO337+EOpOhfdPbPDw7xqoVb/OPZxtoCS0xX0+syMedTvLqwTB2OBw+lb7j5ZcXsnqjx+C6NTz8TI62loBEbQV9YhG5KMIZtSpEelG0bnstbQxRFOl13kXdegDPGEcuE1HddwgXfmcvThgXp7ktxA8NdTsN58zTxjGpyifKRTocINKbmhSev+2B7Jyu9tFjbQqTfwKIxZi08yj2/3qC/vcs5Y1cFScdPZ4jhmVZdf8iwgi0GJ9ILwrjZAXbfKCnsPerbkVPtCmcIZ50rH3rTa64Nc6Z00bz/S9U0xAlGFTWzow75vHUhixe3GrXRaRXhXE5fODD7nq1f/RtCmcw1hIGbTz/zFLumrUZW1bGoAqPxXOW8/eZ66jPOqymton0Ki7IfuBQVauiR9oUjiiISFT35ytf2IPTdkmxfnUjTcQYMWUC19TEuPB/FvNGs8P3FcgivSaM2xo1CL2pMsY4slnLgD51HDuxjNWvvMFPr32Cr/+/WdzwYhPVowYxqiyGiVyhraFmkkivCONcqCt99KbK2DmTX8c4auOfT77E7TOW0eQniZtGbrrpBda2jmBTzkEU4TBYPbkivSWOP8Q9VXR95GFsnCGRdLz51gpeXwKV1ZX08SDMRNTtMoz9+iWYGbckyn2CoDgvWYEssqMzsRgf+ACe9oA/+jAGcFGEl0iy157DOXBsBX3iFoKQygF1HDoyxfhUigWN9fxtxnLWRopikV4RxmXVEIVgty0y1IrsqTaFcQQZR+3A/nz9yxPZa6utR5Fj9C6DGI3PA7ctYzWa9CLSK8I4nsAFaUysGkygAdnh2xTGEUUelbFyBrg2Zj+zlPuWhcS9HGVDR3La/uU8/8Ay5tRv5i1nsEYL84n0Dg6XS2P8EIwHhBqSHb9N4TDxOLUxeHLeUv70omOI10bFPv0545By5sxaxi3LMlT3TRJTGIv0mjAmcmCdgrhXtCmcIZaE+rVvcvGf1rBpfYzhVQG5TBKz/m1+/Y963gh9+vfNtzScA802FukVjQowEYU1DzQcO3ybwhk8H9qbm3hmdkgYxtlj79Ecs4flvnuXcvtDOcpTPp7JP7ma2SbSu4pjjNHsiO2k+y9I6hzW8+hTFcuv1jZkAMfvNYCRlT7WePjWgDN6bxXpbUlsfHA5DUWvCGNM/jx0B5Fz+ZNAMBSbEa70tGpKm0jva1M4XBhjOxxqErbDBUldvhGMMQbPQhgEtGUCAkehPbFlj0dEelFUmADCPvkKWbpdt18DzxiIooj25pAgluPpx2dz/PPQ0pwljCAXmnyrQkR6V5uiUB1j4uDSGpIdOYydcbgI4okkw0ekSIaOCAfOYPsZPBuwanUrLTkHWkZTpHeFsfPANAEVGo4dPYyNcWTSMHzkSKb/xy7UvuMWzVx51bPct6odL+EpjEV6VRgDXlZVce9oU4D1oL29heeX1tM/iIiMwUuk2GVoOelNm1ibDvIru2nsRXpZHocYLw5R9n1u57TcZo+3KZwhFodNG9dx7a2b8MP8YTpjY+x72G5Mq26iPhcSGqPjsSK9igELLoxjTIb3PARvreYi93hljClcITrNymWtBAasgVxblrZBO/HNLw5kVPlK3mzK4XTunUgvYvNn4IVl4KffNwc0X6qHw9gYRzbjGDh4GGcfP4x+kcMVTvKorqumurwVi8HqXVOkt/UowFmMbevCTSMN144QxlFgqKioZuquA0lt9f3lsxewoDELnq4OLdL7wtiAzXTt1s7pQqQ9GcbOQSzpWLduBRf8pZFkEBFisEQ0NbWxdl0rmwKD75kPfNFvEempMHZd7kAoiHs8jA2eZ0i3t/LSnGYifKqqE8Rdlk2bsuSMR9K3GKMoFuldTCmTt6k6kx5qUxTeNqMcVA8ezvdO342jB/k4Y9i0cik/vXEhL64Pifk2fzKPxl+k91TG1tvGQNAKb9uim1dtgygIoKqak4+bwlEDPFpzEZl0jspho7n0hGEMLoNsqIWCRHpdZWz9bSuNjdWw9VRljHEEOcuAmhoO2jXg/keW0zZkAMM2rebZlv587zNDGF3xNqtbszh0Bp5Irwpj48DFwHR1GU1VxT1XGTtHFBlSiTJsexNz561lY86jecNa7pm9nvXOp7pwrSU9TSK9LIxdlA/jroo0xa0HK+P89LYwDAjSloRvyWZh0KhRfGNoX4YErazLhDijEz5EehcHLsRFXte7D+oZ92AYO4PnRWxsb6U1NZq9J9Uyr81j4l47MRHHrIcXsLApwPqaZyzSu0QQgvFbNRS9Jox9Q7qxnpv+sYCKbAZbtZbH5nosXriKGU+tIx2LUR63BGFUeNNULIv0ijaFl8iHsvSGNoXDWA8vl+G5mYtoDS1Vlet49PE20hXD+cbnx/Hcw0t4pSFLeWUMz6h3LNJb2hQmltQw9J7KOP+fIDIMGjWMQ6b0pdo6wlxAn2HDOGFSgt3LU7zasIl7H3mbetCcCpHeUhm/b1VscLkcJhHXwbueDmNnDGEmpHLAAL5y2p4cM9jH7xC2LnLss99O7BOsY/Zjq1gfqkkh0nvCuAvCSGsZ7whhnJ9JYaiqqGHvwTEalq/mqdU5PBuR6lfHp8YkWDxvHYs319NQuF6e2hQivYR9v2ltDhPzNYNix2hTuPz6FNYj5pp58OE5/Gqeo86kqdpzHw7YuS8P3P8Kd65ME0t4eBp/kd4hymG6MqfNs2pR7BBtCmfwYtDSuol7nw1ZtMGR8sFFBtfWysKVHhtzDmttaVUnvYeK7Phcur3r7QdddmlHaFPkL7vUuGEN1938Nl7Mo9wD5yVoXLSI718ZkUj6xOIWcIUV+fSkiez4YdzS9QM8CuIdoE1RCFhrLWVJi3MQOTA4jOdRVeHjIkdUeOfUcybSS8I4DNHh9l4VxlsCNnId3yTzX4wKX9TC0yK9jVZg0wiLSM/L6jRohbGI9DjX3rgNN9ZheYWxiGwfUdjF22kmhcJYRLafLq6b6cJw2y/PJApjEelyGnf9ZiqMFcYisr10rQ9srN/1loYojEVk+4SxCwO1KRTGIrL9bEPvQbMpFMYisp3q4ijoWmT7MbUpFMYisl2COMjlrwzdtVujI3gKYxHZHnLZrs8djiKwihWFsYh0v1gc4+v6dwpjEelRxo9hklVdTBQtLq8wFpHtJ57qYnKj2RQKYxHZbsLsNpTSOoCnMBaR7SPYhjBWZawwFpHtxI93MYgBq8pYYSwi24eX2IbKeMunuqqPwlhEesK7ZK8xNn/iiCiMReTD+hB9YGOINjdoCBXGIvKhC17vw63EFjWu1yAqjEXkQ4dxvOzDzZLIZTSICmMR+dA+ZGVMLKExVBiLSPdExQevjG1ljYZQYSwiH96Hm6Jmyio1hApjEfnQPPshesYOkyzXGCqMReRD18W+/8Hv7ApXABGFsYh82KTwcB+wMnZorQqFsYh0X1Q4XdtOYSwiPcx98AuNahU3hbGIdJcIdRsUxiLS4wxKY4WxiOwIUWGKoSzdYesDogpjEelKdGz1r3zofQ1jaGhoICpcwFVhLCJdC2Onqrg7hWHI/PnzVRmLyAepjKW7eJ7H3nvvrTAWkW1hwTjUM+5eFRUVpUtTKYxFpAsUwtttZBXGItJ1xXnGald8EF05lVxhLCJdiRNVx9uZwlhEurIzDUZxocpYRHo+jK3i4gOPnnn/vQqNroh0NVE0BtuRwlhEurKjjXrG25evIRCRLpTFQNS98V7ooxpjcM4RhiFBEAAQj8ex1r7jNlEUEYb5pTyttXieV/re1q2A4teK2y6edux5Htbad71fx/8v/qzi14o/q2ProePji6KIbDaLtZZYLFb6evH3isVi2Pdo9SiMRaRrYRyF4HXjFgvBVgw73/fxt7q8U8fwi6IIz/PwvC0PIgzDdw3WjkHsnHvHdsMwfNcg7xjE1tp3hGfx61sHd/HNIZlMvuPnb/2Yt34MalOIyDaIPvji8u9RGRdDa9OmTdx8881MmzaNE088kSVLlpRuE0VRKYhnzZrFWWedxbe+9S0eeuihdw3GjkFYDL277rqLr33ta5x33nnMmzcPz/M6/fyOj6cYrI2Njfzxj3/ktNNO4+qrr2b16tVYa4mi6B1h75xj1qxZHHnkkfzsZz8jDEPCMMQYw8KFC/nyl7/MddddRxAEhGHIsmXLWLFiRalaVxiLSFejExdk3/XrH7ZNsXbtWh588EGGDx/OnXfeyR133EF9fX2n21hrufLKK/ne977HnnvuyYknnshFF13EmWeeWWptdAzXYshlMhlOPfVUrrvuOr74xS+y884782//9m9ce+21pdt1vF/x86VLlzJ16lTmzZvHN77xDdauXcvRRx/NU0891SmQO4b/iBEjiKKISy65hJtvvhnP82htbeWcc87h5ptvJpvNYozBGMOaNWtYtGhRp/FQGItI19oULoczXv7z0oftUuD+qzaFMYaamhqOOOIIDjroIAYNGoTnecTj8VJVa4xhzpw5XHHFFYwbN46vfOUrHHXUURx11FH88Y9/5JFHHunUbij2iI0x3HLLLdx2220ce+yxTJ06la9//euMGDGCq666iqVLl5aCteP9jTH86le/Yvbs2Zx++ul86lOf4tvf/jYNDQ38+te/pqWlpdTP7tjWGDBgANdeey1jxozhsssuY/ny5dx0003cf//9nHnmmXz/+98vtT5G77TTO8ZDYSwiXQ7kfPi4rT4+4NYKAZhIJOjbty8AuVyudICuY9V577330tbWxpQpU0qti7322oswDLnttts6tQs6Vqx//vOfARg/fnwpdPfff39WrFjBY489VjrA1rE63rhxI9dffz01NTUMHz6cKIqoq6tj8uTJPPTQQyxevLhTFV0M5DAMGT16ND/5yU9Yvnw506ZN49JLL2WvvfbiggsuKDymiEwQkhowkJEjR3Z6s1IYi0jPND46tBSCIHhH/xYo9XZbWlpK/18M8uLBsvvuu6+0neIMCGstQRCQTqeB/OyM4rarqqoAmDlzZqeedDFcGxsbS4+lOAOiWMG3t7fz+uuvd5rZ4Zzr1Ls+7bTTOP3005k3bx4bNmzg3HPPZfDgwaU3gyiCljbDuHG7dOoZazaFiPRMnd1hBkPxY+vvdaxy8+2ALZVkMchSqVTpPh1nLhQDs+Ntiy0MgGQyiTGmNEXu3X52x/sVP4/FYqXZH1s/TmMMq1evZuXKlaXqecmSJZ1aKDHf0i8W4Vzn2RqqjEWkxyrj4kculyObzZZCLZfLlVoWxhjq6uryoeq2hGux6j3++ONL21uyZAnPP/88GzduxPd9+vbtizGmNIvBGENTUxPGGA477DAAstks8+bNY+7cueRyOfr27Ut5eXmpus7lcjjn2LhxI9XV1UyYMAGAxsZGXnjhBRYvXlz6nYIg4IorruCxxx7jzDPP5FOf+hSXX345Tz311JY3G+cIQ4NzUae51ApjEemxyrhYmSaTSeLxeOnf4cOHE4vFSCQSOOeYNm0affr04dHCwTrP83jooYdIJpOcfPLJpSC88MIL2X///Zk7dy7OOc444wycczz99NP4vk8QBDz44IPsuuuuHHLIIQBs3LiR4447jmOPPZbGxkaqqqo466yz2LBhAwsWLCAWi7FixQqef/55pk2bxsiRIwHHnDlz2G+//TjvvPNKj+nRRx/lT3/6E8cccwxXX301V155Jb7vc8kll9Da2oq1llzgWN0QFD7PzwRZsWKF2hQi8lFUwRG44nSwDvOBgWw2x59u+BPr1q1j1apVAFx04QXsvPPOHH/88YwfP4ExY8Zw1ZVXcOuMGVx+2WVU9ali4YLXuOyyS9l///1wLsIYiAotCM/mDzR+7nOf5bvfOYPnnn2W3/6/37Chvp5kMsGPf3wRQ4YMyT8uHFFUPEPP4VzE9777XebPn89f//pX3njjDV5++WUOOuggfvjDH1KWStFpkohz4Bwvzn6RU7/8ZRKJOD//2c8wxnDAAQdw/vnnc+mll3L66afz5/+5Ac9LEGJxLsyPhItoqN+gMBaR7ZXAWz4xxscUluDsdNayAWzExk2bWbN2PZdcehnGGNavX8/adRvIZAOs5xGEju9893tMPfpz3HXnnaQzGX7339cwebdJRC6/zVgsyWlfOZ099tybnUaPxRiL78f5/TV/YNasWTz04EMMHTKMW265laFDh+bPgLMe1dU1XHThRUQOyssqwBkGDxnCnf+4nfvuvY/ZL83myM98mqM/ezSVfaoJc1msNYweNZyfXnYJEydOwIVZwlyWr//76ey7zz5MnrIbuUyGyAWcfdaZVKSSNDc3kUm3sy7tGDqwT2FV0sLSpNbHuK4stNlFnz777m2+j2cNGxrb+erUXTj75N3I/v/27jxOrqpA9Pjv3Huruju9pLMvLGELO8gaVtkNIOpERBTy1GHTYVDkySKLijjPUUSUxcc2MsLMCA7o+4gKguBjGXnDEkXZFEQwLCGQNEk63eml6t4zf1R1NhBx7Eqa17/v5xNDd1d3THX6V6dOnXtONaecpf5DlkZCT6uDhKxM/11fpv/nXyHpmA5F9S1/flEUECNtp91PKLXURoNDL9ytnK5ICM0T/sRXWEG+ord2NXY1p9TSDFln/f9cD5XeXpIkQAgEAknLWKAE1WXkgwPEkBFDRqm5Y7WvOUh1YIAkTSBCkqaQ1FZmkK8gzwtihLSp7XVbIxW8tbndnD995fiCxYuY3hrJY6AockrlJub98teOjCU1bmRcC2+g/6a/gzShatoXcQAAFKtJREFUNox9/U2HXiRbW5ZlJElamz4A+oqCvKgdAZUkCUmaEAgrh+HVapWiKMhKJZIQiCGBkLKiKCjy2lRGUt8oaPVphqG526ENfmp/eBtF/QElJAlpkhCSQIiBGCKxqL3wmCQJpSwjry/RG3o7rvzykWqlAqH29SdUlrF8sEIIkBcwpimhf/4KYyypgTFO6hdEzH+4drr0n9iJM3mTmY78TW679j5yoT4iXePz1lqt8GZfc433x6Ed22qfNPSxGOp/lcDKB4LB1f78CK97e+h2FQKVsGr3t7wI5KWCYlHJGEtqkFBffxshNLevXqa3zV8gvPFfa43f+TN/pdffbtUzgFBAKEVCORhjSQ0eGUdqO7697WK8DhQQiwhFYowlNXhkHMKqF/2id8saj1ex9j8xpsZYUgNjXNQ2E8q2P5xQ32cieJbeqruoiKSlhOzZbmMsqVHDvvpqiiKn9chrnKV4A0NL4Foe+50xltS4kXGtvoE40AOl5lXTFqo9XuU5MU2Jgz3GWNI66HKSEZIMnKZY836JgZCkhCR1oyBJGgmMsSQZY0mSMZYkYyxJMsaSZIwlScZYkoyxJMkYS5IxliQNiTESYyTPc2MsSetLCIEQAu3t7cZYktZnjIuiYJNNNjHGkrQ+Y1ytVmlqajLGkrQ+YxxCIMZojCVpfYkxkmUZeZ67ubwkrc+RMUCSJI6MJWl9j46NsSSNlNGxd4UkjYDRsXeDJK3/0bExlqQRwBhLkjGWJBljSTLGkiRjLEnGWJJkjCXJGEuSjLEkGWNJkjGWJGMsSTLGkmSMJUnGWJKMsSTJGEuSMZYkGWNJMsaSJGMsScZYkmSMJckYS5KMsSQZY0mSMZYkYyxJMsaSZIwlScZYkoyxJL2BuNbvMsaS1oNQD3HwrjDGktbvyDg4MjbGkoyxMZY06jlNYYwlyRhLEjhNYYwljQhOUxhjScbYGEsSOE1hjCWNmJExjoyNsSQZY0mSMZYkYyxJMsaSZIwlScZYkoyxJMkYS5IxliQZY0kyxpIkYyxJxliSZIwlyRhLkoyxJBljSZIxliRjLEkyxpJkjCVJxliSjLEkyRhLkjGWJBljSTLGkiRjLEnGWJJkjCXJGEuSjLEkGWNJkjGWJGMsSTLGkmSMJUnGWJKMsSTJGEuSMZYkGWNJMsaSJGMsSTLGkmSMJUnGWJKMsSTJGEuSMZYkGWNJMsaSJGMsaR2Ja/0uYyxpPQj1EAfvCmMsaf2OjIMjY2MsyRgbY0mjntMUxliSjLEkgdMUxljSiOA0hTGWZIyNsSSB0xTGWNKIGRnjyNgYS5IxliQZY0kyxpIkYyxJxliSZIwlyRhLkoyxJBljSZIxliRjLEkyxpJkjCVJxliSjLEkyRhLkjGWJBljSTLGkiRjLEnGWJJkjCXJGEuSjLEkGWNJkjGWJGMsSTLGkmSMJUnGWJKMsSTJGEuSMZYkGWNJMsaSJGMsScZYkmSMJckYS5KMsaT/P8X6bzFSFLH2ZozEWHtfBGIsah+LceVt6/85amT+S5HUUKEW2SQE0jTUQrxmpQkhIYTVPmX1NxwZS9JwjIwDoRRY/OKtnH/8JSwIgbDyVy28Pfefy4ePu5r5rzkylqTGxTgEBvpeYt69D3FI12LKlSpFmhFihSIpk44p88w99/Dk8mOZMb69PnoOjKYBsjGWtA6mKaCpNWPJgp9w/OG/p31gkDzUpiwgIU376Fq6GQOlovYptYY7Mpak4RwZEyIDvf2Uyntw9hVfZbveHgaTlDQJQG1OOSbj2W5Sa/1TRteo2BhLWicj4xADWdOG7HbogRy0265sWq2SpxnpGwQ3xgghEGJ9iGyMJWl4YhzzyMQNDufsy/dlPECWka51s8HBClkpI6lPX8QQRlOLjbGkBouBWBQkpWYmTRlP11N38oOfPsQLi3vJyWifsDH7HHo0+23bUV9/7MhYkhoyMg5JiRBW8OB3P8tnv/kYYzedRmdLuTYifvohbr3huxz06Us599gdaQqrBdmRsSQN18gYQhroXvgLrrvkAfY750pOPngbJo9tJSWnp/slHr37Qs4865845MCvst8GrVAUo25pmxd9SGpwjBNiyOlZ/kcWV3bjpA/sxrTOllpoQ6Bt7MbsPedEZuYLeKFnBTHG2gUho+yiD2MsqcHTFAWBEpMn78eOU2/nhJMu4aEnXmJx11KWdi1m/pP38tUTTuSxDfZkz8njCSHUlrq5tE2ShjPGUAwOko3dmlOvvYrivK9w7OEX0bW8D4iMaZvIDu88nktv/Hs2H5euWklhjCVpmGtc3xRo7AaHcv51h3BO3wr6ervpjW10tLbQ0lKurzmu3S64mkKShll9Drio9rDo5W6aJ05lbEs75ZZ2xq51u6EX7cIoXGfsnLGkho+MQyll+Wt3cvbcT/Cde5dQFDkDgxXyPKcoipX7Gq+8NHqUhdiRsaR1MksRi4Lmjh358GeOY/xmrSRJSlN51TV41UqFkGZr7FUx2iaNjbGkBk9TANWCpubNOXTO5rX3DXbx0qu95DGjY/J0OptKQO0kkJDUpipG2ZSxMZa0DkbG9ayuWHg/V37jau569BWyLCPGQF5UmbHdEZx85snsNCUlUttyMxB8AU+Shm9kHAlpibz3j1x/3hl8/4+7cdScg9hwUitpkrN80Xzm/fBqzj69hX+66ng2agsUMULi5dCSNIwxDoQ0p2vhf/J/fz6Dy564nFmta97k+OO35+jNv8OvFh7JhluMZ2jfeS+HlqRhnqsoZ2MY07GcBd1v8OGlL9I9po3mtLTynNLRxpGxpAZ3OBKrgc4ND2Lux6/hEztvw7f3P4CZG7aRUWXZgke5/86n2fmzN7D3xm2EsOqFPGMsScM3KCYWVUK5nUP//nvcOes+br/tPp5+YQFdcTwbbPkBvnnqu9l31iaMSesv3nkFniQ1osf19RRJOzNnHcHMWUfU1hJTC++Q2rtG59I254wlNVYMhDTQv+Ipbrn+Jh5+ZgCIFKuHePUTPuqby4+2K/CMsaTG9zhJ6Fs+j3+95H9z7y+XUK1UGegfpFKpUKlUyYu4cgQdI6Pu6jtwmkJSo4VIrOSMmzKX7z8yd1V8SmveLM9zkiStddgDSSVpuIfFtf0miqIgSRKWzn+An//Ho7y8pI+CjNbO6eyy3+HsPKO5Pl2BB5JKUiNGxiHJCEmFx3/yFc698B7621tpThMigSLv5vprrmfOmRfxyffOpIQHkkpSA0bGENKUnlf/g2u+/H/Y+GPf4DNzdmPDiR1kscKyJc9x/y1f4h/OuZq9Z/0De05t8UBSSRr+GCdEqixb+hQv9+3PF/7uEDab2k6aAGlK5+Stec9Jn2OHgWd5ZmmPB5JKUmOmKQpCKDF50l5sNe4nfPz07/DbF5YzWI3EaoUlLzzCFZ/5OL+csDO7ThrngaSS1JgYQzFYodS5A6defSEXnvtN3rPv+XT3DZKQ09Q8ls12Ooov/8sn2Xp85oGkktSwGlNACEze8mi+fsOhnLV4KT3Ll7EitjG2vY3O8RPoaEmBWJtjdjWFJA2zelyLvJeuV3oZM3EyU6aPZcrrbueBpJLU2LFxKWHJwhs5ZufZXHRzF0VR0D9QpSgKDyR1ZCxp3ZQ4EvOCzinH8M/3HUA2pZMkSWhuWjUWzKtVSFIPJJWkhokB8khSGsPGW21Re1/RQ9drfRSktI4fz5islqJiaFmbB5JK0nCPjKnPBQcGlz7Gjdf+Cz+b9xyVHIqYELIyW+/ybj560oeZ2Rk8kFSSGjMyjpBmFH0LuOGLn+KSX0zh4MP2YLPp7aQhZ9nLz/DLm77IGc8Grr74Q0wd44GkktSQaYokLXj15V9w2w8ncPmv/p13jl/rNp/ZlyO3/R4Pn3EY79l8nAeSSlKj5irSJKPcGhksvcGH036qzU2kIfVAUklqTIcjRRU6px/AUR/5FiduP4u9Dj2ImRu2UaLC0gWPcd+PH2KjE69lr43aPZBUkoZfbf1wEgKUxzPnjO+x4U53cPudD/Dsk7+nO3YyddqunHbV55k9eyfGlfBAUklqzPREwhM/Pp+bXtqN9x8+m90O+wg7Hfzh2oRwSEiThFVH4dUKvHLO2JGxJA3X2Bimbb47zff9gE8f/Xm6y1ty4OzDmD17X96x1XTGto5hTHO5lu6hHdtwoyBJGtYUF0XBuG3ezTnfmMM55Cx67l5u+f4tXHnet1nQ2862e76Tffbam1222oItd5hBe5assU/FaOFqCkkNnaYIAWKR199OmbTpQZx45qXccvdDPPSzq5i7axuP33E5Z59yMfOW9dfPv4ujblGFI2NJDR4cB0ISGOx7nt88/Aobz9qdKU2D9A8GSmNnMvtjZzB7zrE82xWY3tk8avczHnkj46FHxBgpipy8WiXP89oVOQxN8Et6W8U4C3QvuZUT9z+A4869mRcGyjRnkUp/H3le5bmfnMlxp93Ii931eeNReDeNoBjX7/4QIK8yWMlJkpQ0y0jTlJBXqFRzhl5mtcnS22WmorYLW7XaxkbTtyRZdA2nnnItz8cyzeVI32Bk0yOPZsITv+Gx15av3CAoegbe+hoQ156TFNUKMc0olzOWLXyaRx58kEd/t4BKVqaUpeSVav0pjEGW3iY1JgSo9A3QOvUgLrzsm+zafQ0fP/4qnhscQ1tLCVraCCylP+YQY21J2yj7+R4Rc8a102AjUFBqbqb38R9x8cVXcPujL/DasgFi2kTnlO340Alf5PSPbQuVnCJLSUL9FVf/tUsjeZ6CGAMh5Cxf2kUybnvOu+Zy/tenzmLuu+7m8KP3Y/CBy3hi0kf52sSxtWmKoiCMsknjZCR8o0IIFNUqMSYsvu/bHHfM33LBdXfw4K+e5Pd/+AMLuwOlPOfJu87k5AvuolpKCHmFItZedZU0kltceyZbbp7M9jvMJC2qhHGzOO/Kazn96A347Z0/ZF51Dl+7+mQ278xWnfThOuN1/xQmxpw8G0sI87j0a+fzg8eXQBog7+S9p1/F5WfNZkJrM/nzP+SCM6/gilv25tPva6ZaLQilxJGxNKJnKSKxEpm4weF87tp30ZbUspO0b84HTv0675q7mKJlIp1jElY/kNRd29bHU5g80tJRovv+u7n13gUQAimbcPxXv8t1Fx7NjMmdtLU2M3abg9lri35uu/5mloeErMhdXSG9HWIcIaTNdExo47Vn7+HmG2/n6VcrQELHhMl0jkmIxdB0Ru0Zr0vb/tq0/sVxjBRFieamxTz3xz/wYg8QIzMO3I/yQ//O3Y/1AZGB7mXMf+h+ni830d/zJM9VI6GpoCiMsTTCa1zbiS1GiqKbpx+5hc+dcBzHffQkLrvpUV7rrV0QEuqv2tW2pwiupvhrQ/yXTrrHWDtmhRCIlTLTpkxiox0PYMfy8/zsgXv48d2/oXswELsf5qJzT+Xif/01MWkhCUARRt0kv7R+nsDGVb/+G583tBNbkpQZWFZin7lf50ff/1uev+5UPvG5q7n/qUVUhuaJ60vhHBn/NY9/9U0+/tLPSZKcajGZ6VNb2f0DZ/OLR/6NdxS/5dkF87n+rPfykXNuo3v87sw9/iB6F85n0ha7sHEaiFVjLDU8wvVha6z/+gsHxfUX4wJFUaF76css7emlZ/Gr9Be7848338CxGz3AGR/8KBdcdh9dA0V9WdvoW7o6rC/gtbaW6Fk+8JZn3WN9NN3UnFCsiEw+7H2Mv/JSrvzSAn6/ooksSyF28aNvnEi+4pNs+fj1rGg/hA8esz8dRUElSclG26an0jqdYahfZNXUQsjK9dVLb/Vnrv5iXHMbIUvpW/owXz/lS9z7zPO81PUrTj5tHumiFbROncSM6b/jwk//T7b9m7s5ZkYHgUgxyl7AG9YYbzC1nad6Bt/ydEWIkWoBYztamdIxSEz24qxzn+b0kz/JDx7pWe2WL3PrVedxa3k7Pv+tC3jfPh3k1SppWsIWS42NcQwQOqYQxown5tW3fGpz7UKuSJgyk0hClnWwzTtm8VzPEha+NpE9t9uZbGCQKpBu9Sn2fc/W7DWxhUB9adsou6uHNcYHbD+Vx3+3iKZS+pYungkhMDBYZYspbeyxzVQgZ8oeH+Py723Art/+N376n/N4Zv4ysrEbscNu+3DUUR/h/UfsSFOeE9MSySj9pknrbJYiBJIYSDfak2T8JhQLHieWW/nzu0dEQpIS+3spbX0EkNDSvj3HfHZ7Dv3DbB54ejrvPnyzNx2Qj7rHvTiMa8MWLevnuIvupbd34M9GMsZIEgJ9gzl/885NOPtDO1HNC0IsSLMMiLzy/OM8/1IPafsUZm67Ge0JxGqVmGW1EMeAU8ZSA2McIxQ5pBl9P/scg//vWpLSGGJ88yvkapt9BWhuovWkO8jGbkSMOdVKQalcO5G0MjhYm4NemaCErJTWjmgahfsZD2uMI3DXr1/iC//8MGNKKUV8/QqLoT8uSQJ9A1VmzhjH107ag0ntTRAgTQJFnpPHlFK2+neiSqUSyLJ05b4UvngnNV5R5LU53N5FrLj5BIr5jxCaWlfuUbz2z3cIAUJGMbiEliO/RXmHD1K7uCuS1H++ixhIs7S+b7GDqtpD0XA+ihaRd+00nVPevz3LB6pQv/PXnppIkkBff5Vpk9v4wv/YhamdLYQAaX1tYZJmZGmkyHOqQ1toFimlUkrtgENXUUjramQcQkokkLZPo2XOpTBlM+LAckJIXvdzGEICBPKB1ygffA7lHY4m1EMcVv/5ztLaM+dgiBsyMi7qm3tE4LZ5L3LtT3/Lwld6KZdq36Ch2+QF7LXzNE45Yls2m9pOXhSkScBX4qSRGmWIsbatbbXrGfrv+Ueqj90OSboywASIlQHCuGk07X8aTe+YCyEZOu7ZAdQ6naaof6mhR7xlvQM88twSHnzqVV54tZeWpowtN+zgwB2msfGkVspZujLgQ2uU/YZJI3F0XP/5pPaiHvkAedezDD5zB/mC30B/D2HCDEqbHkhpxj4kLZ0rD4kYekbsz/c6jLEk6b/HA0klyRhLkoyxJBljSZIxliRjLEkyxpJkjCVJxliSjLEk6Y38F7zBAlMANie3AAAAAElFTkSuQmCC;" parent="1" vertex="1">
          <mxGeometry x="60" y="40" width="302.27" height="580" as="geometry" />
        </mxCell>
        <mxCell id="hrnPTHgjcRG-61fIRarA-3" value="" style="shape=image;imageAspect=0;aspect=fixed;verticalLabelPosition=bottom;verticalAlign=top;image=data:image/png,iVBORw0KGgoAAAANSUhEUgAAASwAAADICAYAAABS39xVAAARHnpUWHRSYXcgcHJvZmlsZSB0eXBlIGV4aWYAAHjatZppduNIDoT/5ynmCLkjcZxc35sbzPHnAyl5L5erpsfqMmWKBJFYAhGpdvs//z7uX/wUH7PLRVrVWj0/WbPGzpvm759+/Q4+X7+vnzgf78L7824+b4qcShzT/Wer9zE8zz9ueB5D5115Y6jNxwfj/QeaH/bbB0PxPiTzyN6vhyF9GErx/iA8DPR7Wb5qk7dLGPs+Pu6/w8A/Z79ye+/2p7+F6C1CyuPiTiF5fscUbweS/YsudT4I/PapceHzvVzn9WGMgHwVJ//GK/cxKy/vPmTludSPSUn1vsJx4n0w68vxy/OhfDj/MOiuEL95cnrWSXx/vuwQPy7n+e+c1dw5+15dz5WQ1seinku83nHhIOTpuq3yEv4V3sv1Ul7NUb2TlC8//eA1g4ZIWk7IYYUeTtjXcYaJiznuKBxjnDFd51qSqHEm78hNtlc4UZKmlRrJnKQ3cTa++BKu5+r1uBkaD16BK2PAWLjTH/+Z1y8NnWMlH4IFs/crVvgVLeC4YZmz31xFQsJ51lG5Avx8ffyxvCYyWK4wNxbY/bhNjBIetWV1lK5EJy4sHO9eC7IeBggRzy44Q9Xn4GtIJdTgJUYJgTg28tMx1GLKcZCCUEpceBlzSpXk0DE8m3skXNfGEu/TYBaJKKnSSI0EdXJlwEb9SG7UUC+p5FJKLVJa0dJrqrmWWqtUA78uSbIUqSLSRKW31HIrrTZpzTVtXaMmwLFoVdGmqr3z0I7lzt2dC3ofcaSRRxl1yGhDR5+Uz8yzzDplNjd19hVXWuDEqktWW7r6DptS2nmXXbfstnX3Q6mddPIppx457ejpL1kL7k7rp9fPsxaeWYtXpuxCeckat4o8TQSDk2I5I2MxBzIulgEKOlrOfAs5R2eps5x5jXRFiXhZLDkrWMbIYKbtywkvuXvN3Lu8uZz/p7zFZ+acpe6fyJyz1P0ic5/z9kXWlkHw9MldGbI2tKD6RPtxUY+N/+hW3EystK5cedI8+1Qp5eAeGZNcWOOpe+s4jmeUcLaUNBMnl/BH78TldJsdg5iROWWFNiztCV8fXfvNBT869rHcWmumKj7llUbj+UFjXnnE3GK0WLUze0+xjhnHjlUav0Yfva5U57Z+76fE7mrDxplFTygyh+peI++j1FbdVMMmsLoxWQkBYJvEKlNG7Lv2LY2QhMEVLmZt6cThSU2tMfUlI+3GbBnHn60CPo6RMegDDthKji9nlD1aEKmbGpAzmqt9lXbaSGXiK30y8YbsWZGxltbPnmP5UTdB8DXtzkO5+DBjW+p9+s3fMzvgKjVQLfvQZAd/WpewFp71zTSKSeELU3C09zXWzCLJ96mMrFrS8jxJRTA0dqhjHU8pnrk0hS0sn5qmS6AweprW1UuhkgvVlCeJmng2t0V37ZFyJRHbjYOltRu4kFZthzUN6VHOPFY6J7PkoP0kqphB++bD9LhTrzudmQ3yMDteP6PKL7vvb/5g+c1H7q3h++ZfWP6Nv+57h3/ur/ve4Z/76944fF4crlgtM5ROyReqhxZqK8mceXtgjVnXDWfgiE3j2uCDdzIqj4l7BdoMvC73McxBVwk4saLMtOKcHUxvjFG8rpoqqNzamDSbrzsS7CIxnwXsUMEnUPOqDM7aQN+5RKmuOBgWUVqvAezcJWu4OoXCjWBSY+we7zBbQ4M3VesNGggc7CvBqCjGyZJHYAniWQCNvnovs4VCZ8ui06eevZe0XB1rxVNQgX6zpi+hrQCMWPPz2H1kA4zhCrbuSfDP6BvyPFrb6QR6JpS2pks0fzpMBY1xwK13tFu8WtLGIi+KC2sU+Ga50k3XwvVCCDXZ3/VKZBluZp53cJScAnm7+akDUr9p/dpW7nMubobLjOtGEyEJ66cMQGrV6AUcKcelJO305Ul1ax183oCMHEVr5NHFMrbAtzhyZjFMRB4Go2OKmtnNceMudTR1j1UBEMynNXG08YSWEUpFGJOWHlw8r7dwx6OmywBdCEGUflzPMOHK7EmbvJ13n364fWxNs4TPto3mu8v8e+MfbH949gcDT/su/Nj57313P3f+e9/dz51/2FcIwKZch9TiVVsmz5WsZUAbxQFinyapwFFi1TKAZqpwUqCUDJRkkv1I87eNXlQvhvm0R+TzrYDBcUPbrIsn8UzvrdeZoSdDZFabRVKAqYw2V5kQS6oEkhTrPjOhSbKcXeATuLFcMT1s2IEVa/UiIweKVEKHcs1hCEYzh74YmYSE2dI0jIpg2pW5R0ucPDOGUu4KyWTkgTgBZDvoaszFoYxaA0I9lzyxCQ4/WOZ3MbwZEQgZHZfpR9cSSNWqDTLWY2OsH2Q2iqZUY17Sx2lgWzmMVO2RmauwnqLZwHA0enT1JtPFM8CFVWwJDdDrJssSmNkr6FJqg2rlBesjfaOkETL6cKQQN720cDpsQq/dRaJSUVXIQbKsRxi7iEEyRQa8FQA8cSiIX0oeUwYJhcesGXUSFvDrPjiwRDv6B/o2VrPdBDnLIAQ1Sh/rmFDjvBGm0/ZJBBzfQ07wY1YJFyTCOeMCs/2KBEtmv/JD6fScoZkMm9DJVCfXE27cJt5Sa1oho5mITU+B1JN9HcN3DMEQtA0PASGrKGGoOau9qGiDiS/bZqkgfx/GJY3bvcyaN0f3cgLMnOu1qJ5HkgprPQybaRBd6J8Mb93NimhDsbpY8ScHRSz5HLXIXjyW8XhQARbm6CFziA+uhLHB4NTMQPx2i2PF/vDaXB6ubFmETibBrYMGgCBXkLtMmlNZDAOvRZYIiiu9WujRfjd81kVZg/grq6Jp6Wohkon0cA/jnuqjFZEAKwaKS3euNpx8arBPmG1GXFA6NUfkdy2DOsjqejB8p1CYIhssgTsCE+QC/jdk1kCDIUE29WKBSsWyWKgVMohWgrBJo1qDYzSwVmHUMhUXomBa7Oi9NoEKXM3NMsxS5kKwTCqQwmK4hULQ0WYKnhB1Z1df84r2SBFRySSkHSjNyVyFvJsTA1raMvx7hYhYB0B6aSI2Uk2AmmxhikD9iSNtW4ibqRVFLy7YLsUQKyxlNP8ich7HjCOmwF5Poo7M4vT32YBFhUjIH1cS6uifqSRnOpWrZgBkiEBkoTQ3ppfl6Rhp30oOz0UuGsMBCTrzSOBUKUwSurvhrNuQMJDaAAJ+38ASRBMxRnoIRGJBdiBpZxKnxPKY/EhPgGf5HMmnRbB7yd0hWctr7xHcTUENi42F+13bfXs08EfSc6st961MJCLQCnJzdOJbZ+ghpGV5NK8tWvKFW8A8wvkcZ3ZIO/oe0GzrUzgHRBLlb2YiNQZFAXZevfHWeugi7xgBc2UkEw0GPC4CcKdOB340G7U5I9pMf5E8aOfYcELCQ9FQuPBfk06KqIGzVbgm8waXGMUq6CDTiwD9UgSkR/Js25+zObRT8fcwV6PBgDmKHdxwN6OHMsL5tdrYj7qID5UGbZ4XccgUKIoAlotHydztV5WNHA1HmIFnOwHsayuXiJoHPEYZ7PLF7V88A0wiB3uZi+6899CkzLfuUZSPJ3j/1kWHj289fHXwnXtf3f7+Oe6Tj69hvJri87Lly2W7r9aNWGesY/Np8Qdeuh9F8lOyP+fa/V2yJY8PySFrPPAPsvOr5LjzLorX7ePldjpsq/xo2e67df/Jst1XJfQ3Ne42zAzOVpCNh/sYsbibYDmQ6BLLEhCj+pnAJ//Wwt5mYcAs+QFdnaQInVY4d7kg6ZQ/hSQwCKXvGuIV7mMbL4tpBpLUh9poEMETYZAQc+NcWMTZz2fvSeKuGYcV7eSHKKEKVqFMLi55al2QccgDHO0BvHkz0K84NijqOZAG2Crp9yx2RF+OuYr6nA0CnSActt0jUM2IKkgN+llDXbcOhxsyGwYcGSLYGeZSnGf4FKg82phpKmiVXhazMCTjuNf3PCSeALQBOW9IWYaeLFRGhgrBrlKbwrWuRFksK6O4o6/gL8OMaWZcpzLx4NI9QTeYYpxmIufIsxJMGeUDp28rsZCYs/NAMt5Cc3cpcW9qdoltWMFvV/eZh0CSISqc40qGqwmJaJuHkFu0Vo6kcCeH7BDZnqB2IrOJRKQaoXWpYQjxNwvDNxGPfnAmB6hXJbgH5jCPcTMIB2F1ViNIoTh8xh2k2EieCZJXJXcJecNotKGIuGqpKwq81o5kSGipFqDeLSjduQ1GAlQRJBPc0TrjtU1IfcSmx1K0bIQeVMiukWikFejnzliurdYcFDqpWZwFlwGZKyNvj3o8aVksbjZqml5pu6p2iA28yVKHHkFBjODxysOVUgir6lQnEd0kmQ6QrKTrpi8ojniWslh66eBxPVc6eRAktCKhUMY0Wd00IRZqchM5Y9vnV61SXXkGGGdVTkPd7CsAkkX3kB4VMaFGDUG4V20oFslVcfNAtHjK2qkZkYuRjOwNfmhOI6ttg4ntllJM+GdZk1GJPrS62HeufQYqwWqNyl4XMBHqi8Sujnt1IYNMPCGDEJzIZ3gpSsDPgXbzVrOqhcvrtfkKp0OAu0FXzdgpRONBFlREuKxUbGcMWhEzjK2p7e4Uq7+qlCw6eNPI6SZoE97WnJGYYmrqZhv29c2fwRFGzIa7WHHaYnLWJA3pOabHOwJZbA9xGaAgN4/v+EJVxxPhUYv+si+hTZb7otEh8WtOAaFaysooXtN1+ngaSuBm0QjVjXYHZ1CfGX0L7xppBtuBp/myiFNJpL2ifDjDCjMK0RofyioGUsSrbYZ1aIWitZ09UIjMLJPyae2w4gXlDlyMhtUoWisty1EoWpG5sO8BGhLlhTqvTChNc2ah4OF+wGhCcwFeWlqph+43CY7M2rbHNveOBz5uAMgftJZX0lztSweySy6BAcQ8+qY0MLIavCeF26Igczj1IL9Sy5DsoQokB1ocuTFG76lXiOXQVK+Kqx242XuKIjQo2ETvAZ3LJbhxmJlZwgQLo+1E1BOpmhEkBMoSyy6INT6kHyhBTNN2LYFQNIzMhY8tw9jWNvCtSJFyYKy2k0shbBafbLiDx/QsmAWlReNRAaJ+rkN+1mDs2F4H7egKuE7Eiuq9rxiCtgx12NW+h0FjAZbB4PeQ3IhEaEKJYLkDogXqT9vxVhyq0ZIebEba5jjhaPYNOVJ2BJwFKMmuj3RGLQg2JnxnPQmjkxI41nxzrOkY++hzqnVTqYw4dAD9f4giE81KD+UcavK5M5ethfNODJFlu8ngSgy0UGDOOWLv0QQwfNRUvXI0tyfqxIB4ar8mEwWFR8Qv7kq1J9vVDttGHBDHODom15epxbW9AOK8GQrlUfsCaZnqOldJUkY97sPcvGJu30kCV0ypPdVgOSy3TCyrWaFuEZOsUi5TLILZhCMFh+0rw7GYtPblJANz2ZSO1rGVuUtwvAMIayb6cZDZHHofrJ7HAlJ1rDWisR9Pp9pmmvTpj+2dF5AKikR84X2JItwAG8jMhBMFvzL37w7sRUsv8JRToeiqEGZmGNEri5lD4CqzlHUx8KFd2mZ3JhjxmFrg2kxmLIZ92dYJSUiQGqp+gMvJ9oUGfZ+l2tcUeMpIiSR5mbR1hmGptwgYwu7iyZ5eZzKtYPuO4Uw0X6HIPktZcGBSlNShhkzTUo2slHVmZDcDZsNomMJcFNfZxpZsDyfr/V1fHVA5yitDdcgVA8K22vkczG6HAIPWEFixbw9sp8Y2bA4zgaeYanxsSudvLna2Pfjm+u+v/sa0+3z135l2P3H7J6bd30Xks+n/c7C3fL6cgW/ftwTAPTRYsJqWgFxMm0kJzOaiYf8P0cwd/kVrQ5xG98yWFfdjb+rDftZXR/e7C356/IGhdNAJ6v4LM9aemWhV0yYAAAGEaUNDUElDQyBwcm9maWxlAAB4nH2RPUjDQBzFX1OlVSsOdhB1yFCdLIiKOGoVilAh1AqtOphc+gVNGpIUF0fBteDgx2LVwcVZVwdXQRD8AHF0clJ0kRL/1xRaxHhw3I939x537wChVmKa1TEOaLptJuMxMZ1ZFQOv6EEQXZjGkMwsY06SEvAcX/fw8fUuyrO8z/05etWsxQCfSDzLDNMm3iCe3rQNzvvEYVaQVeJz4jGTLkj8yHXF5TfO+QYLPDNsppLzxGFiMd/GShuzgqkRTxFHVE2nfCHtssp5i7NWqrDmPfkLQ1l9ZZnrNIcRxyKWIEGEggqKKMFGlFadFAtJ2o95+AcbfolcCrmKYORYQBka5IYf/A9+d2vlJifcpFAM6HxxnI8RILAL1KuO833sOPUTwP8MXOktf7kGzHySXm1pkSOgbxu4uG5pyh5wuQMMPBmyKTckP00hlwPez+ibMkD/LdC95vbW3MfpA5CirhI3wMEhMJqn7HWPdwfbe/v3TLO/H39+cqy01qsxAAAPi2lUWHRYTUw6Y29tLmFkb2JlLnhtcAAAAAAAPD94cGFja2V0IGJlZ2luPSLvu78iIGlkPSJXNU0wTXBDZWhpSHpyZVN6TlRjemtjOWQiPz4KPHg6eG1wbWV0YSB4bWxuczp4PSJhZG9iZTpuczptZXRhLyIgeDp4bXB0az0iWE1QIENvcmUgNC40LjAtRXhpdjIiPgogPHJkZjpSREYgeG1sbnM6cmRmPSJodHRwOi8vd3d3LnczLm9yZy8xOTk5LzAyLzIyLXJkZi1zeW50YXgtbnMjIj4KICA8cmRmOkRlc2NyaXB0aW9uIHJkZjphYm91dD0iIgogICAgeG1sbnM6aXB0Y0V4dD0iaHR0cDovL2lwdGMub3JnL3N0ZC9JcHRjNHhtcEV4dC8yMDA4LTAyLTI5LyIKICAgIHhtbG5zOnhtcE1NPSJodHRwOi8vbnMuYWRvYmUuY29tL3hhcC8xLjAvbW0vIgogICAgeG1sbnM6c3RFdnQ9Imh0dHA6Ly9ucy5hZG9iZS5jb20veGFwLzEuMC9zVHlwZS9SZXNvdXJjZUV2ZW50IyIKICAgIHhtbG5zOnBsdXM9Imh0dHA6Ly9ucy51c2VwbHVzLm9yZy9sZGYveG1wLzEuMC8iCiAgICB4bWxuczpHSU1QPSJodHRwOi8vd3d3LmdpbXAub3JnL3htcC8iCiAgICB4bWxuczpkYz0iaHR0cDovL3B1cmwub3JnL2RjL2VsZW1lbnRzLzEuMS8iCiAgICB4bWxuczp0aWZmPSJodHRwOi8vbnMuYWRvYmUuY29tL3RpZmYvMS4wLyIKICAgIHhtbG5zOnhtcD0iaHR0cDovL25zLmFkb2JlLmNvbS94YXAvMS4wLyIKICAgeG1wTU06RG9jdW1lbnRJRD0iZ2ltcDpkb2NpZDpnaW1wOjVkYTdlMzNkLTYxZWUtNDMxOS04YTJkLTEwZDhlMzE2N2FhZSIKICAgeG1wTU06SW5zdGFuY2VJRD0ieG1wLmlpZDo5NTMzNDMyZS0wODc3LTQ4ZmMtYTgyOC1kOGNkMzhiNDMzYjgiCiAgIHhtcE1NOk9yaWdpbmFsRG9jdW1lbnRJRD0ieG1wLmRpZDo2NDM2Mzc2YS0xOGFjLTQwYzItOGM0Ny04NGQyOTlkZTFmOWIiCiAgIEdJTVA6QVBJPSIyLjAiCiAgIEdJTVA6UGxhdGZvcm09IkxpbnV4IgogICBHSU1QOlRpbWVTdGFtcD0iMTY2NzkwMjAzOTE4NDgxNiIKICAgR0lNUDpWZXJzaW9uPSIyLjEwLjIyIgogICBkYzpGb3JtYXQ9ImltYWdlL3BuZyIKICAgdGlmZjpPcmllbnRhdGlvbj0iMSIKICAgeG1wOkNyZWF0b3JUb29sPSJHSU1QIDIuMTAiPgogICA8aXB0Y0V4dDpMb2NhdGlvbkNyZWF0ZWQ+CiAgICA8cmRmOkJhZy8+CiAgIDwvaXB0Y0V4dDpMb2NhdGlvbkNyZWF0ZWQ+CiAgIDxpcHRjRXh0OkxvY2F0aW9uU2hvd24+CiAgICA8cmRmOkJhZy8+CiAgIDwvaXB0Y0V4dDpMb2NhdGlvblNob3duPgogICA8aXB0Y0V4dDpBcnR3b3JrT3JPYmplY3Q+CiAgICA8cmRmOkJhZy8+CiAgIDwvaXB0Y0V4dDpBcnR3b3JrT3JPYmplY3Q+CiAgIDxpcHRjRXh0OlJlZ2lzdHJ5SWQ+CiAgICA8cmRmOkJhZy8+CiAgIDwvaXB0Y0V4dDpSZWdpc3RyeUlkPgogICA8eG1wTU06SGlzdG9yeT4KICAgIDxyZGY6U2VxPgogICAgIDxyZGY6bGkKICAgICAgc3RFdnQ6YWN0aW9uPSJzYXZlZCIKICAgICAgc3RFdnQ6Y2hhbmdlZD0iLyIKICAgICAgc3RFdnQ6aW5zdGFuY2VJRD0ieG1wLmlpZDpiZmM0YjQ5Ni0yNTkzLTRlY2MtYjAxMi0zZTM4M2U4ODBjZjMiCiAgICAgIHN0RXZ0OnNvZnR3YXJlQWdlbnQ9IkdpbXAgMi4xMCAoTGludXgpIgogICAgICBzdEV2dDp3aGVuPSIrMDE6MDAiLz4KICAgIDwvcmRmOlNlcT4KICAgPC94bXBNTTpIaXN0b3J5PgogICA8cGx1czpJbWFnZVN1cHBsaWVyPgogICAgPHJkZjpTZXEvPgogICA8L3BsdXM6SW1hZ2VTdXBwbGllcj4KICAgPHBsdXM6SW1hZ2VDcmVhdG9yPgogICAgPHJkZjpTZXEvPgogICA8L3BsdXM6SW1hZ2VDcmVhdG9yPgogICA8cGx1czpDb3B5cmlnaHRPd25lcj4KICAgIDxyZGY6U2VxLz4KICAgPC9wbHVzOkNvcHlyaWdodE93bmVyPgogICA8cGx1czpMaWNlbnNvcj4KICAgIDxyZGY6U2VxLz4KICAgPC9wbHVzOkxpY2Vuc29yPgogIDwvcmRmOkRlc2NyaXB0aW9uPgogPC9yZGY6UkRGPgo8L3g6eG1wbWV0YT4KICAgICAgICAgICAgICAgICAgICAgICAgICAgICAgICAgICAgICAgICAgICAgICAgICAgICAgICAgICAgICAgICAgICAgICAgICAgICAgICAgICAgICAgICAgICAgICAgICAgIAogICAgICAgICAgICAgICAgICAgICAgICAgICAgICAgICAgICAgICAgICAgICAgICAgICAgICAgICAgICAgICAgICAgICAgICAgICAgICAgICAgICAgICAgICAgICAgICAgICAgCiAgICAgICAgICAgICAgICAgICAgICAgICAgICAgICAgICAgICAgICAgICAgICAgICAgICAgICAgICAgICAgICAgICAgICAgICAgICAgICAgICAgICAgICAgICAgICAgICAgICAKICAgICAgICAgICAgICAgICAgICAgICAgICAgICAgICAgICAgICAgICAgICAgICAgICAgICAgICAgICAgICAgICAgICAgICAgICAgICAgICAgICAgICAgICAgICAgICAgICAgIAogICAgICAgICAgICAgICAgICAgICAgICAgICAgICAgICAgICAgICAgICAgICAgICAgICAgICAgICAgICAgICAgICAgICAgICAgICAgICAgICAgICAgICAgICAgICAgICAgICAgCiAgICAgICAgICAgICAgICAgICAgICAgICAgICAgICAgICAgICAgICAgICAgICAgICAgICAgICAgICAgICAgICAgICAgICAgICAgICAgICAgICAgICAgICAgICAgICAgICAgICAKICAgICAgICAgICAgICAgICAgICAgICAgICAgICAgICAgICAgICAgICAgICAgICAgICAgICAgICAgICAgICAgICAgICAgICAgICAgICAgICAgICAgICAgICAgICAgICAgICAgIAogICAgICAgICAgICAgICAgICAgICAgICAgICAgICAgICAgICAgICAgICAgICAgICAgICAgICAgICAgICAgICAgICAgICAgICAgICAgICAgICAgICAgICAgICAgICAgICAgICAgCiAgICAgICAgICAgICAgICAgICAgICAgICAgICAgICAgICAgICAgICAgICAgICAgICAgICAgICAgICAgICAgICAgICAgICAgICAgICAgICAgICAgICAgICAgICAgICAgICAgICAKICAgICAgICAgICAgICAgICAgICAgICAgICAgICAgICAgICAgICAgICAgICAgICAgICAgICAgICAgICAgICAgICAgICAgICAgICAgICAgICAgICAgICAgICAgICAgICAgICAgIAogICAgICAgICAgICAgICAgICAgICAgICAgICAgICAgICAgICAgICAgICAgICAgICAgICAgICAgICAgICAgICAgICAgICAgICAgICAgICAgICAgICAgICAgICAgICAgICAgICAgCiAgICAgICAgICAgICAgICAgICAgICAgICAgICAgICAgICAgICAgICAgICAgICAgICAgICAgICAgICAgICAgICAgICAgICAgICAgICAgICAgICAgICAgICAgICAgICAgICAgICAKICAgICAgICAgICAgICAgICAgICAgICAgICAgICAgICAgICAgICAgICAgICAgICAgICAgICAgICAgICAgICAgICAgICAgICAgICAgICAgICAgICAgICAgICAgICAgICAgICAgIAogICAgICAgICAgICAgICAgICAgICAgICAgICAgICAgICAgICAgICAgICAgICAgICAgICAgICAgICAgICAgICAgICAgICAgICAgICAgICAgICAgICAgICAgICAgICAgICAgICAgCiAgICAgICAgICAgICAgICAgICAgICAgICAgICAgICAgICAgICAgICAgICAgICAgICAgICAgICAgICAgICAgICAgICAgICAgICAgICAgICAgICAgICAgICAgICAgICAgICAgICAKICAgICAgICAgICAgICAgICAgICAgICAgICAgICAgICAgICAgICAgICAgICAgICAgICAgICAgICAgICAgICAgICAgICAgICAgICAgICAgICAgICAgICAgICAgICAgICAgICAgIAogICAgICAgICAgICAgICAgICAgICAgICAgICAgICAgICAgICAgICAgICAgICAgICAgICAgICAgICAgICAgICAgICAgICAgICAgICAgICAgICAgICAgICAgICAgICAgICAgICAgCiAgICAgICAgICAgICAgICAgICAgICAgICAgICAgICAgICAgICAgICAgICAgICAgICAgICAgICAgICAgICAgICAgICAgICAgICAgICAgICAgICAgICAgICAgICAgICAgICAgICAKICAgICAgICAgICAgICAgICAgICAgICAgICAgICAgICAgICAgICAgICAgICAgICAgICAgICAgICAgICAgICAgICAgICAgICAgICAgICAgICAgICAgICAgICAgICAgICAgICAgIAogICAgICAgICAgICAgICAgICAgICAgICAgICAgICAgICAgICAgICAgICAgICAgICAgICAgICAgICAgICAgICAgICAgICAgICAgICAgICAgICAgICAgICAgICAgICAgICAgICAgCiAgICAgICAgICAgICAgICAgICAgICAgICAgIAo8P3hwYWNrZXQgZW5kPSJ3Ij8+wVSVzAAAAAZiS0dEAAAAAAAA+UO7fwAAAAlwSFlzAAALEwAACxMBAJqcGAAAAAd0SU1FB+YLCAoHE3jFGQ4AACAASURBVHja7L1Zd9tItq37RaAl2FOtZaWzqnaNc17O0/3/f+OOO8atvavSmWmrpSi26BHnAQwoCJGUZDvTkhMri2WZpkB0MTFXN5dQSikaa6yxxt6AyeYUNNZYYw1gNdZYY401gNVYY401gNVYY4011gBWY4011lgDWI011lgDWI011lhjDWA11lhjjX2V2X/WF+n6VCHE1ve/he3adv39xhprrAGsFwHXW9t2Y4019oMB1ksZTR1g6r/31HbM3zd/fopp7ftsY4019npNfItewl2bMMFgF7hs+/xLQERva9s2n7udBrQaa6wBrBczsi8Fjm2g9dJ4VgNajTX2gwLWLleu/v4ukPgzwUEptdf1NPe9Aa3GGnvdZn8JAOxzrbaxnToYFEWx11V8CkP3AeAutrYNPOtA24BWY439QAzruR/d5pppMCuKgjzPN/6s/2wC2j7AEkIgpURKiWVZGz/rv7+U3TWA1Vhjb5xhPSc2tMtVrAfesywjSZKdryzLyPP8WRlHy7JwHAfXdas/9cvzPBzH2QCubUkAk1Xtcm0bEGussTfEsPaBxy4XsP4ZpRRpmhJFEavVijAMiaKIMAxZrVbVK0mSim3tA0khBLZt4/s+QRDQarU2XkEQ4Ps+ruti2/ZW4HpJeUMDWo019kYY1lNAtm3h53lOlmWkaVqxKg1W8/mc5XK5AVSLxYLVakUcxy8CLA1O5qvdbtPpdGi32/i+j+/7eJ6H53kVgGngqh9DA0yNNfbGAWtXPdW2v+v30jTdAKPFYsF8Pmc2mzGbzZjP5xuAtVqtiKKINE0piuJZrM62bVzXrUCp1WpVYNXpdOh2uxuvXq9Hr9ej1WphWdYGaNVBt2nzaayxN86w9oGVXvRFUZCmKcvlktlsxmQyYTKZcHd3x93dHZPJhPv7e6bTacWqwjCsmFg94L4PsDSwmMAVBEEFToPBgOFwyGg04uDggDiOq6C+53nYto2U8kWA1GQSG2vsDQDWvkpyIQRFUZAkSeXyTadT7u7uGI/HGy8NVrPZjOVyucGqtpUkmOxn379LKXEcB9/3abfbdLvdCrDM71utVgyHQ3q9XuUyahexDl51xtX0KjbW2Pe1nUH3XYtzF3hkWcZ0OuXm5obLy0tubm64vb3l9vaWu7u7RyBlBtc1a9kGRHXAMl/b9lUzLsdxKhex1+sxHA45ODjg6OiI4+NjTk5OODo6YjAY0Gq1qoziPlBu3MPGGnujLqEJJnmeE4Yhk8mEz58/88svv/D582eurq64vb3l/v5+I6CuAUdKuREAr3/PS3oO6y5pkiQsl0smkwmO49DtdhkOhxweHvL+/XuiKKrcw36/TxAEuK67UbtV336dZTXA1Vhjb8glLIqCKIpYLBZMJhMuLy/5+PEjv/zyC58+feL29pbJZMJyuaxqq3RxpxCieq/OpEw2ZQKICUo61mV+pp71U0pVbupqtWK5XLJYLEiShKIoyLKMMAw5OjpiNBrR6XSq+q1tsa2nWGdjjb1KN+oHeqDauxbeUwtUx6xmsxmXl5f89ttvfPr0id9//51Pnz5xc3PDcrkkSZKq+nyfy2cCkGVZlVunA+P6c1mWVWUSGvB0/MsELxPo9LbjOGYymVRApmNtq9WqCvr3+/0NUH1uu1Bjjb1WoHpKPPMtAZr91AHXmY8GjTiOWSwW3Nzc8Ntvv/Gvf/2Ljx8/cnl5ye3tLcvlcoNR1dtkzFiTbdvVz7pq3Xxfsx3dwqMBS7t+aZpWL51prFeya2DTxamz2Yy7uzvm8zlZllXHaYKdjmk1Ll9jP4LtIyBv5R6391HHbS5anuekacr9/T1XV1d8+vSJ//znP/zyyy/89ttvTCYTwjAkyzJs294AOQ06lmXRarXo9/t0u92qyFNXp+sCT7O1Rm/HBKw4jqs6r+VyyXw+r37W2Uel1KO+Qv27URRVwKn3UYOsEKIqfai7m/tKLRpr7DWxqqfuz7emVmI/F43NAPtyueTq6or//u//5j//+Q+//fYbFxcXTCYTkiSpmo9NkNNA4Hke7XabwWDAwcEBo9GoAq52u02r1apaajRgmSdVx5505bwGqtlsxnQ65f7+vnrNZjOSJNmIdWn3Ms9z8jzn7u4OpRRhGBLHcVUeIYSg2+3SarWq32nAqbG3yKL2daSYQFUHrdfoMtrPPWidfVutVtzd3XFxccG///1v/vWvf3FxccFsNiMMwyr+VD8JruvS7XarIs7RaMRoNGIwGOwFq22ApVlWHMdVL6JZST+ZTLi9veX6+prpdEoURZWraJZF5Hm+UYUPEAQBnudtgLTneY9icI019lYY17ZSoJcA0WtiX/YuvXP9p3bH0jSt6qw+ffrEr7/+yqdPnypmpV0+E1iKoqgC7u12m5OTE37++WfOzs44PDyswEqDhO7z03Er/aqfPL1t3auo2VYYhlXG8uLigk6nw8XFRZWtrCcANHPSwfjLy0u63S5Syko9Ik1T2u02rus+As9d9Lqxxl4Ds9JlQ3o97bo/n5qN8JQI5ndhWLt2WgNEHMeMx2M+fvxYxayurq6Yz+cURVHFgcwaJt2c3O12OTw85Pz8nL///e+cn59zeHhIr9erwKouBWOelG0gYWYXTcalK9lbrVYlM6MZ0v39fRXXAjYKRZVS3N/f88svv1TMTQfydXGprtMys5oNUDX2GsFLJ43MeHBdreS50uTbKga+F+uy96GtZjI6qzYej/n999+ruNV4PCYMw0dlBJZl4bou7Xabg4MDTk5OOD095d27d5ydnXF8fMxgMKiC7Ppk1tnUSy6QBq1Wq1UFy33fp9vt0u/3GQwGXF9fMx6Pmc1mxHH86IIsl0vSNCUMw6rAVbuNmmWZJRb1i9YAV2OviWXZto3neRtrTIdZzAz9tljxazV7l8SKZhFRFDGfzxmPx1xfX3N5ecnl5SXj8ZgoijYWqmYdnufR6/U4Ojri/fv3/Pzzz/z0009VK4wOZmsX8EuBygQKrXmlL4aOmenmZ90/6Lpuxcbq9VtKKaIo4v7+vnIBwzDc2N9tpR4NWDX22kBLMywtaKlBSbesaTUTU4bppW1o3yMob++ifLqhebVaMR6Pubq64urqipubG8bjMavVqipRMHfesiw6nQ7Hx8ecn5/z4cMH/va3v3F2dsZwOKyajS3LqmRotgUEv/RC6X3SVeumFpbjOFUbkWZS9VIGXd6g43K3t7fVE6qeTGissddsmlHpOJZt2wRBwGg04vj4mOPjYw4ODqr1rj2IL3VBv5tLaC5cDVgXFxcVs5rNZkRRhOM4G78jpcT3fYbDIT/99BP/+Mc/OD8/5+TkhMFggOd55HlOFEUbGu7fAgDqsTPNkFzXpd/vP6rBAri5ueH+/p4syzZqrbIsq0QGTa34bwGsjTX2R9u2bKBeE71ej9PTUxaLRaX6myQJg8GATqezVQjgVZU17Go90Qt3uVxye3vL58+fuby8ZDqdVrVN9Wpy7YYdHR1VgHV6ekqn08FxnCoWNplMmM/nxHH8qMr8S8HL1MYKgoBer1e5cp7nMRqNEEJUWUUd91osFkRR9CiLotmf/uxLp0U3wNbYa3IRtTuovYooiqpuj9vb20rF5OjoiF6vtyG3tCtG9iqC7vAgb6zjVyZgLZfLim5qt1HHrUajEe/eveP8/Jz379/z7t07Dg8PsW27Kj0Yj8f85z//4fPnzxuFnSYr2qW7XjddG6YHVxRFge/7lSLD6ekpR0dHlRqpEKIqV9Cu4Ww2I03TRz55XY30OWUMjXpDY6+ZdRVFQRiGVX3i9fX1IwUT7UYCG0xrV0Hqn32v2/UdMQtEp9Mpk8mE8XjMzc0Nk8lkoyzAPBntdpvz83P+67/+i7///e+cnp7S7/dptVoAFbBoxvbx40eur6/J87yKeXU6nUrmxWzr2fZ9un5KV7VPJhMWiwWe5xFFEb7v0+l0GAwGCCFwHIdOp8Ph4WFVCqELTjXT0oF4DZp19lkHr6dYYQNcjb0WlqUfwDp2WxTFhgpwFEUVC1NKMRqN6PV6+L6/VSfuu7mEZqZMA5bWtrq6uuL6+roCA+0e1fvqHMep4lb//Oc/+fDhA8fHx1VbizmHUE/O0RXmnufR7XY5Ozvj7OysAjndHmM2MpvsRycErq6ukFISxzHz+byqfI/jeKMZWsfXNIBlWVZVuGu5Ga3XVY9X6QTBNtDaRZcbwGrstbmF9RIc/aDWD2kNVjpUowP2+wLxfzbLelTprgHr7u6O6+trbm5umE6nVW2SufO6N7Df72/UWp2cnFQlBHqbZqGnlogpigLHcej1elXmYjQaVSxLA5MpPWMCllaEMLXjNehsG8xq2zbtdhuAKIo4OTmpEgha8M+s2K+7pvXBrQ0gNfZa3T8TUOrDiuvlS6vVipubmwqskiTBcRza7Tae523c79+7iNTe9uVaK0rrsOtCS1MtVCmF4ziMRiPOzs54//49R0dH9Pv9jQOtD5Woi/DpepH6IFSz5mkXYKVpujF30GRk++JOnudV7qGWm9EusI5n1ZmnBiuzVGJboL5hVo29FsAyC6q1Z6PXsQlYRVGwWCwqUQG9rnVmH6i8HvP3vgdo2dtiQ3rqjR4YoQXuTHdQA9bBwQHv37/n/fv3jEajjb67XSez3oxpPgH0ydUMbtsQCg2EJlOrB8z3AYcQonIPkySpXGBTdFBfVB1L065hEAQMBgPa7fZGu8P3DEQ21tg+wDKVTXQ5g143Zi1lGIaMx2N6vR5XV1cMBoOKOOg6ru99b2+tw9K1Ulr9QLuDdZbkui6DwYDT01NOT0+rHr5d7lIdrLQfrRnOYrHAsqwK5XedHA1Yy+Xy0VCL+vfsijFpnXfd1K0r8HVdlmZYGoD0hdV1LKPRqHrq7PPxm2k7jf0ZwLTrff1g1+t5Op1Wr/l8XnWrQJkYWywW3N3dcXV1VYV19CQq7VV8V8Cqx2lMVDbHx5uunf6M4zj0+/2qhkNTSPOgdrlM9Uzf1dUVANPpdGM68zbWon83DENub2+5ubmpgLX+veafpquoRQS3tSjoKv56MalmlFpxotvtboj8NdbYazOTgOi6q5ubGz5//szvv/9eJaZMgFssFlxdXVU1jHpcXrvd/u4PX7u+0Mxsnq4K1wJ8Jqhpl7DT6TAcDhkOh3S73YpCbjtx9aeB7lW8u7vDtm3CMCQIgo2Y1K44lAa72WxWTeYJw7AK9O964tTnGOpR9/pPncbdJgttWVbFKH/66aeqgdtsaWjYVGOvhXnV19l0OmU8HtPtdhFCVINZ6nLmWZZxfX2NEIIgCDg7O6s8mO/9cN4ALDOGZOql1wPn1S+vFRGCIHhEGV8Sy9G6Pdt03OvMzASsL2mbMQHL/F7db6gZU/13dGmEHtZqVtNr+ZomhtXYa2NXOpwRx3EljimEqCoBZrNZJQag12Ke54zHY9I05ejoqKpR1LLn20I+f1qWUMeDNKvSac1tAx3MndPKCGZzZb0qdlc7iwkaQRDw7t07/vnPf3J2dla18dTHe9XjYGbV7m+//YZt29Vx1NnUNqant2WWKZhTeurszpxurbMtmkrr89BYY68VtFzXpdPpVHHj2WzG0dFR1W2iM4Sakenwymq1qu73NE0f6Wr92R6FbWbq9GLUQWwTsEx2oxdoXUfnKYpa/5wGrKOjIz58+MDPP/9Mv9+vXKxdbE2Dh9ap0j66zoI89ySaPYz6eEzQqmcfzXae2WxWxb00s2zcwcZeG1iZZUGaXSVJUk1Cv7+/r4q4tymwmANf4jiuKgC+V/DdNt1Bc5qMCVh10y6Ujjftk1/ddSJNhqNrsHSNU/2k7AKsPM+rz9ep6nPBw9QN0nEs7RbqJ44JWCYwaq34ervOn02TG2tsmwehwcp8KAshqmRTr9erBsCMx+OtMum6lWe5XBKGYSW19N1iWHrHzHoN7RbumvGnq9u15pQ5v+85QGGeGD19Wadcnxr6UK90n81mVSuOmc3cV4NV35aWcu50Ohv9jLr2zDx+XbelNbXqBabfw69vrAGpXfec6d1ogmAqApvZccuyNgBO3++LxYLZbMZ8Pq8GxbwKwNIxLLMPr14Va1aKbxvOsKsKdhvrqZc1SCmrTOMuhrUthqWr8U1pY/OzT4GWTh602+3q4pkTpzUI6up6E9D3Vbc3gNXY9zQz3FMvEdIZcj2tSnspumhbrx0NWNPplH6/T6/X26jJ/G4uoTmFxgSrbeoEeoFrFc8vYRgadKIoYnJfTqzJ87ysIHcdLGkhpAC1/Wmh5Yy1no/ud9Qg95K4mo5fmcqk29K3JhNN03Sj3KMBqca+NzBtm4C1a7yXlnMy17FlWY/UWLSI53w+31qT+d0YljmBxmwe3rYgzXKA5w6P2NZio4o16IzvEAgWy8WDhLKUwG6X0Ox5vLu7q1qItJzNNrq862Jr0DKznbuAR5+bXRnUxhr73sC1y02su4U6ybRtYpUJWHqEnhmz/e4M6zkn41uyB4GgUEV1MparJcGtDuIL0N+ldl8YXT+ikwS6GfopV7TuZtZBdduT6bkjkRpr7DWDmQla5gN6W8KqHirSMdttE6P+VMDahrom06gjt3aLdPXrLoq4c0AjoiJPWZYRrkIWs8VGOlVppBJPP0n29Qw+h/np2JQ+JtMdroOWeY6+Z3q3sca+Brz2TYSumynT9N1bc8wJz+bgUXM0UD1TqMXydGp/l/u4h14ZiFG6hqoAVFH+XbuPQoEUJdnSGLenXeclrqB5MczUrW6m1k8THcvSha6u61atPLperGFdjb1GUKoThufep3Ugey6w/akMS6c6fd/fqG2qNzKbPXx6kMS24PNekDJMSoHt2ViuxHbLAL4qFCpXFZg9kC2xsR3ThatPY97nCtb7IrWfvlgsqnoTra5qgqHWw9L1WttkdBpNrMZeu23rC96nH2cOSn4V8jL1rEG9GLN+kFovywzCPVWqLwykMd094Ugc38LpOnjttcporiiSgjwuKKKCIl4DmIl+QiEQz6pBeS7LMuNhpktoPml0OticptuAU2N/pTjYq2NY2iXc1VenhfN0irMOGjvZ1tq1026fECBdgduxaR16+D0PYQmKrCALc9JlTnKfUuQ5KscIwKv1ZtTe4OK+J0x9gIQ+nl0lC6ZLqKfw1BlWkzFs7K2CzXPY02u4v+0H1+yhVEHHr3al+M1maR2g1nGsjSC16b8J4+/q4T3Lk8iewD9waI08pCXI04J0lSHclCItyFYFxAXKiMOrNWAp1LNO5K7PmEqnZtB9m3tpApZmoY3iaGOvPY61r+tjWzZ8VyjlNZhtLsz6WOs6w6pL0ejMmm6Yrse9HjEgAagH0BKWwGpJnJ7AO3BpHbpIW5KnOdZCgoQszJHTjHylgU6hEHwpJpj+uFl7Zlb512tNTHkZHXTXPYf1GFYDVo29RtB60vt5YfzruwOWXsS6vEGzrV0SwHpUlu4DnM/nVXzH/J06aAmTYVmlS2i3Ldyehdsvg+95IsGGPM2xWxLplNysLHcAgUIpsTOQX4+57Xqi6Op+s+nbHLZRN8uyqqC7VmPcN2iyscYa+8aAVe/TM5sj9cJcLBYb8inmUMbFYlGN2NJlEBsCeDvWsarHtQQgH/4UQoAUNYR7+F2h31MGQKnttV/me/o46jLQ+qXLNOo02VSTMF3CZtxXY419hxiWCVhaVVPrnWu9HLPPSDdG3t3dcXFxUTErnfLf6iIpHXda/zWHPC5IF4p4mmLZCdKRFGlBssxIpinpKqdI1WYx6Rrp9HsVMKH2sh1zX5IkqTSux+Mxk8mkUn6oz1/UAK4llLclJRprrLE/AbDqWTUNWO12m8FgwGAwYDqd4jjOxpBRPW35+vq6YhpBEDAcDun1eo9khjVYld+1hpdUkWU5uVUgLUm+BGkLirQgDXOSWUZyl5KFeVmPtYF9+8fI77Oq6XpSNl1fXFxwc3NT6cLreJUpfNZut+n1elV28M+odN9V0/Wc/sh9n28AtrE3zbC2DQvtdrscHBwwnU65u7vDcZyNkUDaJRyPx9UE54ODA46PjyspVtu2NxeLesjsoaDICtIkI88zVAHZrEBYJcPK4pxslZMtc/Iop1gXkAqjx1CxLhZVzyuC08FzLZkxHo+5uLjg4uKC29vbamCsjsHprGer1eLg4KCau6hjV9tKPl6bNbG1xn5AhqVfJXPyfZ/hcFgF1K+urqqmYhMM8jxnuVxSFAW9Xo/r62suLy9xXZeiKOh0Oo/Gdali3buXlZNol4sV8SwkDF28toeUZR1Wvi4czeO1S5g/9ENX1RFaUbF4qHTvdDobQyLNGJ2OWy2XS6bTKTc3N1xeXnJ1dcX9/X0lxK9NTwlpt9scHh5ydHREr9fbKzD4Le05IoTP3UZTgd/YDwZYbACWnop8f39fjZ+fz+dVZs0EgSiKuL+/5/Lykm63W7lJ2k2sFosUG2qHw+EQz/dIsjJ25Ui7RCVLUXgKHIUKHgLq+9QV9N8Hg0EVTzNdNg1gq9WK+/t7xuMxNzc3XFxccH19XR2blsvRYGfbNt1ul6OjowqwzLFeb8UaoGrsB3EJzaJHEEJWgNLv9xkMBoxGIw4ODqp+O7NOydSlurq6qvSs9CgsHZiWUuJ7Pv1+n3fv3lEUBaenp1UbTOmOboLnc90dkz14nsfh4SEnJycVeFmWVbGr6XTK7e0t19fXXF1dcXV1xXg83hhzZKoydjodRqMRx8fHHB0d0e/38X3/uwfbdyphNDI4jf3QgFWFhDSLeag30rP3RqMRJycnVcpfB6bNBaOnMOtK+W63S7fbxbZtgiDAscvFf3x8jJSSw8NDwjAs3be8KCvhhXiohhcvW7R6kdq2XQ131brztm2TZRmLxYKbmxs+ffrE77//ztXVFZPJpBppZDIrKSWtVot+v78BWIPBoAKsvTEi9bgU41uxoG0N3PXBHg1oNfaDMqzHK0q36fi+T7fb5fDwkNlsVontzefzaqKMWZN1f38PgOd5j7KFuiRgOBxWLChJEvIsp1DFxra+hGXo3zfBVseatP77ZDLh4uKCjx8/8vHjRy4vL6sYnI61acByXZd+v18B1cHBwcZ0a7Mu7an4kHrB8WzT9tql92WKqZmzHs3z+JwSj8Yae3uA9XArr5/SpVBdt9vl+Pi4qgTX8R8tVm9Ol10ul2RZRqvVYjgc0m63qzhXv98nCAIsy6LdbhMEwSNRsC9ZRPViVg1ammXo4tD7+3suLi749OkTv/32G58+fWIymRDH8Qbw6JH0nU6Hd+/ecX5+zvHxMYPBoJoStE3v/VsAwEu3oTOUuzKk+yRD3kIQ/mvAdt/xfU3mtAH67wxYoiq63Gx1EYLKvTo5OUEpxWq1qjKBYRhu9NiZOuuTyYTff/8dgOVyyXw+5/DwsHLTNPupV89/qwWv22300NPxeMz19TWfP3/m48ePXFxcVGClXShTedRxHAaDAe/fv+enn37i+Ph4Y5rPPrDaVHYWz/Vun7046n2dGph3TbzepqX/FhbiLnnrpxp69036/lrA2jYNvLHvxLAezv266cUYJa9jO7PZrIr7ANVoLb1w9AVdLpf89ttvzOdzxuMx4/GYs7MzTk9PeffuHUdHRxUL0mzlJVN39t2UWnlhsVhwd3fH9fU1nz594tdff60KRCeTSVVTpsFKL4IgCKqY1dnZGWdnZxweHpbTfMweyS0gsLm7f9zNvG2kmm432uZC7pL/MRf/91KZ2Of27tPi36XJvwvknrPtp873rqk0z2V2jX1zl9BkWeIhu7eOZR0dHfG3v/2NPM9xXZdff/21ahY2XTvTfdTjgbQwnmYycRw/mgFoAt8+sKozCFMiJo7jCqyurq64uLjg119/5ZdffqliVjrLqb9L/12XWmhmpcHVzDY+D5LEjs+obw5mdVd4HzPbBXrf0/aKPr6wKPc5wFsH6Zey3G0A1YDTnwhYSmyoViEURh1p+S+WZeH7PgcHB1WMRwhRxYaWy2X1dDeZVpZlzGazKigfRRGr1YrpdFoFsnWZgFn+oNmXftVjNTr2pYHSLAidz+dMJpPKdb26uuLy8pKbm5sKrMwbT7uBeojr+fk5f/vb3/jw4QOnp6eMRqONQPtWN7C6eU03cAs72PLTt3DLNFjV43mmy/gcV/N7gtYuRvMtimd3xe2eAq0vOSdNoe6fwLBKjDLLyB9Tasdx6PV61XuaQYVhyM3NTaWDrheJBpqiKKohp3qG4PX1NWdnZ7x//75q5dGCgfXRQxoc67MTTeHANE1ZrVZMJhNub2+rgtCLiwvG4zHL5bJKEuispVkFrydZn5yccH5+zocPHzg7O+Pg4IBut1uN8d7PpTag6xFMraW8HjjWjmDw1yySbazprQTY97n9X1LZ/5KY4Nfs23M+24DWH+YS7n+C+75fBbWXyyWr1aqqV/r8+TOTyaQCFZPBxHFcTaTRwys0wK1Wqw3AMtVO64qnmlnVJ1RrjfnJZMLNzc1Gy810Oq3qs8wbR7fvtFoter0eJycnfPjwgQ8fPlRAWm/D2XejbmdP2nVVVVlWldxQ35bZvKWA+lO2LXP82rOZ34oJNvYEYNVPpxJqS4TlId6jG6OPj4/Jsqxy5UwRPDN7aLoluh5KN0xHUcTNzU2lgKABy5Rv0duvq4Oa+us6Izifz5lOp8xms6qR2XQv6yxNSkmn0+H09JQPHz7w888/c35+zrt37xgOh1UZxsNT9SEGJbY6d+oBqNY+YtlWpKVxBNrjVmvJ6G0B8b/aTV7X1zcTCDpE8JpsW41bo4jxpzMstZnm0kSgVlCqNa+Gw2F1o+kyAikl4/G4Agsd2DZF/XR5RBzHjMfjDUZl6qVrgTwzM2cG1rUscxzHFXhpPXZzko85CdrsD2y1WhVY/fzzz3z48KGquRoOhxuN25ugssVzVlvi6KrYrhwhSpYltv3OX9CeO4rtNQLAPtbduIJ/OGDVaobUy+TzygAAIABJREFUJnswg7i619C8OLog9OPHj/z666+V2F/9wmm3To8I032E5tQeLT/8XMDSU27MotG6K2myvlarxeHhIaenp7x//75yA09OThiNRlXz9L66G6V2BbLUGqxMwHp4Aoj1fzQ3885Fb9bGvZYBnl8Tx2rsD4phiUfUYeuKrDSzTB14rf+eZRnT6ZT5fF5l5OqLXv9eXS9LSkmWZRUDM4Puejs60K5fGkD1ts3PmiO2zTjcwcEB5+fn/PTTT9Wfp6enG0oPT8ciHijSJllSm6BVQMHaNRZroBLlEA3B68rWfW8Xq35/vFaW8txi3IZl/cGA9fSFKhekBhsTsKSUpGnK3d0d/X6fu7u7Sm7YrIbXwFQfCFEvgDTVTXfd5PVgej2bqLObui9Sq4YeHx9zfn7O+fk5p6ennJyccHBwQLvd3jpncDPwq6hpEmIOHivFBDVYFSglyjk/ohSsr467ufeevLZvLf627Z5pQOsPjGEpJRBC7QGrx7TdcRyCICDP80pSeTAY0Ov1KmWHumuolR7qVcf1YtBtT7NtL/Nz+rOmDnu322UwGHB4eMjh4SHHx8ecnJxwdHTEaDSqFBi2xax2uwHCCMHXyhiUQhXFOthufEKILfxs46Q2d+QbdGX3VeQ3oPWNAevxE2HLSlK7F692yfTwCT24otvtslqtNjTSTWAxU9fb4kRPCeTV2ZSpVqD3RwOV1vM6OTmp1BdGo1HVoK0bml9WX8NDY0CVnSjBqnwV6/esdSHujiZczbaaG/rNgZV5D26PczZA9Se6hE+3kegLonsCXdfdGHdvBq7rLMksDjWHmr60FcP8ftu2K2mZTqdDr9djMBgwHA4r0NKMqtfrVeoLJjjWx55tY1f7d9EoZTDAv3ECf1yG9RKXsbGvBKxnNe+KHYtUbPmoMduw7q5p5qSBRbMbIURVX2WOvd8V1NQ3gWVZ1UgyPUNRM7xer1cpppoAFQTBRhayPkhiXwFg9Rl2a1ztle0TdUVVsfsxoVTDun5wMGvsSxmW2FxUotZOotfaozgWomIUqpbKNxlQHbA8z6PX61WCeLZtV4Cl66jyPN9oUK7HuDRL02DVbrdpt9uVO9rv9yvQ6vV6G9Nudk282cesHo6FsuFyx/24D8z0eSzP8I66CGWe+6Yf7a0BVXOt/mDAKlSBUDrdrp/sxjIygEqs39hYbGoNcIq97Sb1mJduhzk4OMD3/arv0OwT3HUTmIClR8drDXkTvDqdTvWzDqqb23guWL3wti3BXYgaeG2C3KN/o0mPN9bYk4CVZ8W6NEiWQyDWbosw1BpKdqVqzMpceRIhypdcL9SqQJLHQXUtP6z1sXq9XhXv0qC1jWFtcwk9z6vcu12vukpoHQCeYlZ1hqS9NY3RwlBpKE+mBCnB0L3XdFUpAev2p81tqKpGi8adeDOMat/fG/sjAKuaWAMCibAesoVC7L8YenDFwwAJzcB2swTNjLT21MnJCcPhcIMBbWNY27IvOoZlTmLeJk1j9hFuu8FeJsL20I+jnedNfqQLQyVKlgx0I4P4+NOPQKuJgbxt4GrsjwSsogQsBEjEyy6Cnr6sCrIiI1M5uSqHShQUtTjNg+n6Le3GaddNt+FsC7pvAywdwNdgtQ3cnnLvvkzOhZIpVYAjHoBIKAQSJRWi0GzULCwtQcmErafiXo29brD61ppaje2LYYm8cuUQL+uK12CVFilJEZPkMUmekBUZhcpRxjScsulXbY0dmdm+bWxoX+aunpH8FjfO/s+uIcqM7dUD6EIglAQhkGvYVhueodqQpMbkXEo14PXGGdZLFE0bezFgFUgBSsgH1+45U0nW/+VFTpInRFlEmIXEeUSSx6R5Sq7yKuZlxrPMPj/T/aqrOjz3ZtlWPlG/kXaJ2n1NQFtgZFJrJSFlK46qXoLaZ6rf2R1w//aCyo019sYBSwMPvGx1iJIykaucJEsIkxWrZMkyWbJKloRpSJqnj3utUDvjRebrpfpCz6Xlz5XHfSZUbTlnD8F3UYGV2pii83hb+7+psR/LTWzsKwBLR1i+dGEURUGaxYRxyCJaMI9mTKMp83hGnMVr/iAryrCt4ntbL+G2JtKXUvNv6SY+3ueH6BWPYlAPJQ26YfoBfcTjn9lV59ZYY41tAJZclyOYbtuLeIZSZHlOksVEacQqXjKPp8ySKWmegxJIIXgqMrNv9PpL5H+3salv/bR72NwDGG3C1wMIbf6w/xjq5SONvU1rruEfCFi2tNc1WNYXMA5hsLOSIuRFTpzHRFkIhYWFXS3nl4aTTbD6mqD5t9ZWen6plFm+oLYwsUe3enNH/oDg1WQKvyFgOZZbgo7WqHoJy1oXnFrSxrEcHMvFkhYoyIocqQRWzbfZBlrb5GK+tWv3rW8aLcOjtoDS5k+b4CWeeCJXk6Mb7GpYVmPbGZaW7v2SoIkUAlvauJaLYznYwimLJlHPIgxPjWN/nf1Z6hn//nX73BS8vz1wapjUnwBYT+lOPb2wJJa0sKWNIx0saa0ziC9zAd9Wm0M9dvU10PU8wcTGXidQvSTe2tg3AKyvW7blf1JaWJaNJW0saa2LUJ/HRd6uPeQH9QScDfdQPTXnmUdu4KYr0dz4b8F0PSGwUcDclDb8MSa/etmK0i20xLqHb5113AdwP9Zj9jEqfaUz+Mz3GnvtrmHDuF4Zw9qAIX1xdl0gsaFA8wMRLbEdVowg1D63sX66zD7Fbf/e2Gu7/E9nshvQelWA9TT5WDtOf8W7+Ys4UnN/vx2wMuWPvrQMp7E/GbA2mZOqmpzFTvhqrLEfj2E19oYY1oMSwzp7spZSqYq91WNoa+wrz/lfoCjxNR3jt5Qoauw7AdZG8/S67F0KWQbhNT1WpY7d1/Qs/kBLsHISN6WndWvS0wtic4LP264B2rX/r+0Y9+3PU8fQANq3M/nNtrSWprGkhWd7BE6AbdkVqDXM6rkuRnMOGmvsD2NYZjW6ZVm4jkvbb9P1+6ycFanI1wNDm5P9QEO3gdPzM4M/0hP7rWTWnhoF9yUtZa/tnP8lAAtAyrVqqO3guz4dv0uv1SN3CjKxXA8WNXzGZ8QHmqbRxpqF/vVu7DZX9i0XtH4dYOl4lbRxLQfP8Wi7bXqtPl2/R+hErMSKgmJDL37fSf1RTuyPuvhe6zV56fH8le4tkxluk3HaBmo/JGAJBFJIHMvBd3wCJ6Dtdej6Pbp+j6kzQwhJoQoE1iPIqp8oLZ3cgNX3dW+eWuCv7dp8TRvMj36fmYC068+3dB6+2iUsW3EEruXh2T4tp0XgBLScFq7llqOwlKqHafYivf551xzBxr7+Jv6RGNZzwfev9hA019W26em7AO2HBiyTaenXLl0t83zUNbC2Sck0VcN/rPv0UlHE1zoN5imlj32A9iODWP06P2fN/SUAy0TqvCinNmd5Vk7FYXexnW5tMIeemkMoGqB6HfGer/297308f+X7aJu23K61t42Z/bCApQ+0KAqyPCMrsmrM1z56vmvs12s9YT/KDfwtXLAf4Xj+asF3c509B5he2/mxnzOw9Fknw+gh3HihtlL0PM9J05Q0TUmShCRJsCxra9C9YVqNNfZ1gKxZVVEU1XpLkoQsyzYmrb96l3DfSPgXPekMmRnzvaprx3i/KArSNCWOY1arFcvlEtu2UUphWdazJz831lhjzwcsKSVFURBFEavVijAMCcOQOI7J83xryOa1rT07z/NypHpNKuNrKLoW8luj1iP6nmUZURSxWCyYTqfYtk2e57RarQqw6kDaWGONfT1gAURRxP39PdPplMViQRiGpGn6JuLGdpqmCCkredcv3emdwTzEo3HyaZqyWCy4vb3Ftm2iKKLdbuN5XgNYjTX2BwNWHMfM53Mmkwm3t7fMZjPiON5Yc6913dlJmpYHohTWVw+keAArU9/aBB6lFHEcc39/j2VZhGFIu93G930cx0FKuXXyc2ONNfZ1gKXXUpZlhGHIfD5nNptxd3dHGIYbZSuvFbTsLMsqkCmUKucIfqXtqv/QJzBJEqbTKUmSMJlMcF0X27Y3WF4DWI019scAlo4hJ0lCHMeEYUgURRve1R81Nf3rASvPsdYu2LfYuV3pUvME5HleBfs0SDXKjY019sebSQh06EVnCXet/9cEWnaR5+WQhFIq9JsAVp7nGydhW1mDPlFpmj7JpJp6rMYa+zpv50cxuygKpJCoovhqiT0TiPbVdjyq1WoAqbHv4zAZ9+SPu8j3Adlba9GRJWAU5QX7BhXQ2xjWPrbUuIKNfcdla9yHf0329dbWnq0KhZKbT5uvMV36v4thNZNxG2sY1ut1Gd+EHpaedvPVl/+Frt5rQPh6jO1hl9WjJ69S4tU9iTcHWTy8qTZP9Ob6FCB2DsP4q2CVKo99Y0Ddw/kSBgETNTb2452Kp9fp62FY+lp87T6px8D1mp9YdfGyDcZnLHi10VqkqqnMr+GQlNr8udxFc9/VxuIs/1dOpNZTjJT+N3MbPzpOVWeoAKUolCIvoFC68Bks8SCQtG7H/yGZ17YQzWteu/Yftj/ieSj9WijoBljVGUo1bF4gxO5xXK8GwPT+qx3iPmI9eu0J1+iHdQMVICQIF2HZeJbAscCSZTw3y3LSLKco1vOe1PoJ1YQwXodL+EfMCxRvgEI/epLoAbAU1X2t1AMzkeLtsZCqXEUIhJCaaD0mxz8wu9oogtQJJisAd4DX6nLQdTjuQcfLyNKI++mcm7sZi1VCkpXM6+Ec/vig8Kpbc8RfLnjBI5B6oBbG/EQBKIHaUE9VDwoUwoBmYaz6etxoh9+sap9XW0D+6ZtmR+xx7c4oQGiEFSXgasAyQ3ViR4jmye/X2mXb4gLsG3u1/3PmQalt1G/rfu1z1UUVtyvyDJAgA2id4g+PeXfi888TxaidkEQzPl9eo/KYLInJckVWWBSApRfzM0JajzyHv4K//WcAVqms8A3qMMSbRS2UKhmVsBwsJ8ByfFxb0rJzHJFS5ClRkhLGGWlWUKgSzMpfL0FD1Jbh0+7DYzesrh32fHdZGbE2CyFtLNvBcR1cz8GSoPKUPApJk4QsL8gR5Gr/pXuZu/4YjOsPw+3bU8/YbA3Atjbo73LVH1hRybAylLIR0gW3hxMM6fZaHB7AcTciDgVRuODKt3EtVYbllaJQAmnt+55n+OoNaH09YOkevnqz8tcG794KWKEUFDlKSSy/izv8iXb/kMO2w3ErpGfNyJIZN3dTPl3PGc/idWxDlgCjHvhRfZGptV+pzIWjHw7Vg/8B6sTGwlPreNp6S2qDihlMav37SoGQJejaHbxuj4OjPqNRD9+zyJYzltcXzK8/M1/GLAqLTFkgBJZYk7AKNqlmSaqtcTD9cBOavG1dh0rvl9oFTWqj/k8ZiQHzASr2PhwftqEFI1G171rPGUAVqKIEIVQBRYYqUrLMJkkgTjLiJCNNC/JCUZhpQn09CgyhSrbEOtdMcu0+Cl5PkuaHACzXdbeqK/wl3MH1IiryFLCRXh9v9DOD0w+8H7r8ozvnwLkhXV3zqw9hGDFbrIjTklIV65jIw5OzfJWMrajd1AIhJUJo6R2BRKyzdTVXaV3MW+QFqigolKoCwA/VCBIhy7hUuQBzpHQRto/lDvD7Rxy/P+X9+SHdwCG5v+VOpNzOLmA2J0wDEuWipMSzJZZkHYkvDCnd9fdugJZ2LyVCWuVxSIHErLEzAFcvbnP/jZiSKooqOaD0tqWFkBIpQRrAuBW8FGsgytf7uz5fVfZTwPq8CwGiWO9vESGSCfFCcnfn80nCapaQxAuux3Pmy4w0F+hKQinW12R9LIUq1ueG2rkxpJWkRAq1PoZNgG2Kpb8QsLSki2VZlV7OXwi1EEqh8hSEhXQCnO4h7eEpw0Ofk8GUE6cgWcasVnM6LRtLL2phlREtvRAApResstYRj60BJoPN7HOuBEJaICR6a7WAl370l21VRVG6qdLH8vsEvUMGhyecvDuh13ZIfAtrekVx4ZJMYY5kVtjkgBTli/UxCARCljEvae2LARhscXsQ7CFGJkWJh/XY37Z7boNZqb3xBmWyKAlSWsgd2yuRwi7BogghviWex9wUDsVK0HZz8jRiPp9zv0yJM7HGV70/64eDBVJZ+8+N2IxIKjbDBs2Qla8ALGGojf7V3MLyqb+e7iMtpOVgOR6O6+G5Hr7rIFIH17GwpFizB71YS2YiqxotSgZl21i2XT4IJEgKKAryLCXLyg6AvP501jVUhQYrGykdpG1h2xaOVTIDsd5fioJCZRR5TpYmpFFBLmws18dtdfCDLkG7S7vdoduxiZOAqBOw6nVZrob04hZRapPkBbbK1ttbZ8SkxLYspGVhWRLLksiq2DSnyHPyLCNNM7J1TE8hjIwqDy6jTq0qtcnQ5Hr7to20JBKFIEPleVVWkOfrcyQemNlD7ZhmfgKlrPJaODaO62Db5bWSYv25otznIsvI8ow8L1CkqHxJHucsC5sihqksUEVGEkdESU6+Pi4h9IOp3G/LODclwyyTG6rIKPJs3dSfk+Ul0yvQrvv6nDwBwo09EcP6Fs2PP8Z4eWMhqKKk/armFq3BSkoH6bi4notjWwhVIPKsvKldD9trYds2jiWwRQ5FRhZHJHFIEsdESU6cFuRVEacoF99627bbwm218Hwf37PxXQvbEsh1/EXlKXkWk6UhcShZSkWcu0ivhR90aAUdfK+F5zj4toV0HdpBi85wSK+AMC4XaRjFFHFInmYkmSSnPC7P9/B9D9excRy5/u4CVEaep6RRSLhaEYUxcZqT5JAXRkBcSIRlIy0by5LYUpSAXxEiC9t1sV0P27GxhUKSobKEJI4IlyFRFJPmBZmidM2UwbsKnTGwkbaH4/q0Ap8g8PA8B8eWWEIhVE6RpeRpRBLHxFFIFCUkOWSqQKzdSVUIFGvX0nSBlSqZlXSxbLd8kPkuvu/iOBaObWFJEBSQJ+RZXO5/GBGGMXGSr4tSTW/4IVWrmvjWywDLsqxHcZ2/nGn6rhQUBUrl6xhOTp4X5CYjUgKUheW0CUaH9Ecj2oGPqxLsZI7IE5TlUjgBwvZwHQvXAqkyVLoiDRdEqyWz+YLZfMUySkgV5EKC9JDSx/fbdHpder0u7XaLwHfwXIljl7EipXJUFpOlC9JoxnJucW/BbOWjWm2Cdo+g08f327RcD98B2/eIuz36h6fkbgCxwosy5vM54awgXEmQLpkM8Nsd+v0O3W5Ay3fwnPV3r93hIk/I4hXxasZqOWM+XzGdxcxXKWlalG6esJFOB6/Vod1p0eu2aPk2FgUqjVBZBpaDdIMS+G2JIxUUKVk4J5zds1pMmS8j5lHOKinBvSzUX2/fcvGCLq1Oj3anQ6ft0wlcfM/GsUtWiMpQaUQWLYhWCxYzyXSmmIcSJTpIt0un7XDYhY6bkWcRs/mCu2lGkafkCJS0kW4HLyi/p9fx6XY8Wv4aGK3y3Igio8hj0mjFajFjMZ+ynK+Yr1KWUUGq07KyQagvBqzGj94endma1lKUT+LCwW0NOXj/D07/9ndGgy5dVvjhNTK6J84tViIgt1q4nkfLtXFEgZUvKeIpq/k9t9c3XFxcMR4nzOKcCBdld3CDA3rDIacnI44P+/R7bdqtEjRsax0WKjKKLCRPJkSrW2YTG88Gbn3SoEenP6I7OKDbHdAJWnQDRU4XDo+RqsAbzummCdPlisnYYixSJoVFYXVx/AOGByNOT4YcjLolALgS1wLLEg/fnyxIwzGr+ZjbmzGfPo25uJgyjTMy5YDbQnoHBIMjTt4dcHY2ZNRv4ZBSLO9JlzOyQpLZAThBySRdG1tlFKsJ8f1nFhOH2/GET+MVWRYTpgVK2ChsED6uP2B0dMLhuxNGowG9jkfXt/AdgW2XLpwqMlSyJFvds5rfcXcjyu8oXDJ5gtM94vTY558ncNBJSOI5F1c3iCIli0PSVCCkh9M+pD065WA04GTU5nDg0QkcHMdax4BZM7qUNFoQTm+Y3V1wN77l6nrO5W3IdJWvM4+iIouiKZ5/GWB9KyniH2OsvNisotTRcbNioRAUmY3b6jM4/cC7v/9vTo6GDFnQXrSRyyuWccF9FhDJANdvE7R8fKvAI0Qk96ymbVo2qGRJEc3J0nKR596A1vCU4ckxp+8POD/pM+wHBL6DY4vS9agAa0kWu0SLgsBJScOI5colagUEnR5Bt0/Q6RK0HNqtgkJ0YDBCAH7coZOGBIsptopJlzOilSS2eojOAb3RMUcnR5we9el1XHxX4No8JGZUDtmCIu6ymgV0WjYqSUlmC7JlykI5FKKFdEe0+u84fPeOD/91yslhB09FZPfXxJNroqQgkm1yt4Pf6hK0fDxZIMIxWV8y7xR4tiJKCuaLhDjOKSwbpI/tjmj3jzk8Oef8wxnHRyP6bYe2C54Ncn2yVJGh4jn50mMxEdj5inA+ZxEFLKxj/P57jk8C/v4zvBtExOEEW6RMJxPuJzlLJRCWh90aEAyOGRwecnLc4fTAp9t2cJwyBmdZAscSWCInj+aspi1mHUHXE4hCEa4SojAhLh1rI2/SxLNeBFj8xbMWQjyEQU1+JYw6mg3MKkAVFpbbotXp0x0dMjg8YKR8Ou4MYc+xFglRZJFjYVk2tu3iuhLfcrD9MuYRxyHhYkIaTYnTgij2Ub0h/ZNTRmcnHB71OBj6DDoOrm2tCZ52iaAQNhR2Gf9xLCMwbsYjjdJ2IddJhXVcqbCwLe3OrGNO0sZyHJz1y3X1zwLbAtuyyrgUCulKhCewLIskKlgeLEjux6gYigXMhY2yfByvQ6c3YDg64OC4h5evSAhZxlMkCQWS1CoLXW2nheuA62QI5xDXiYnznPE0oTteEq0UiXSQ7SHB8JyDk3ccnx5zcjDkaNim7VnYMsdCu6WSogByB2HbOI69PmaJtFxw2th+j3anzbAPB0OXyEsZd1u0PBtbrjsb1vE4y3Fx3PXLcXCdMsAvrDJJ4TgWtizlmiyVYBUJRa5YrTLm90vSMGQSK1aUMS0pqDKaDdF6IWB9C7B664AnnvFOiRgljJX1NhaWtLCUKOMzeUQWzVneS25jD5w5QdCm027R6/gErg9OH6875+BkQJ7PWMU5i1kL6+iQww/vOXx3zKAj6Dor3GROssiYRzlhWlCwTggUIUU6JYmmzCZL7mcRq9AiEjPs6ZjZJGDey5m1AywF+WrGbHzH7PaaVTQnTCPmqznj2xn3s5BVrEhFiEoXhEuH6Z3CLpYsWzaOBbZFebyWg2U7eJ6P6wUIZeP4GcfDO+x3bazCIboQzFPICqrzZDsWjiORQFFkJOGC5XTOfTpnJVdYXkS7HdFtewy6ik63j+cp2qmid7NkFEyI5ysWto8zPOHwwz959+6M08MWx13FwFpAkrAME1ZxRqYEhRBQFJAuKaIp4eye8XTJYhUT5YrceUyqTU0ZnRlURUaRLsmie1ZzmFgLZGKz8Cys8sQgLRvHdsokhSVwLQ/hn+D3LfrDhJPRGBVPKaaKKII4B8cC5PobVQNaTQzrj0I1XUSY52WpQpqQFTFJtCRf3jG/u+LqU8R/xhDmHq12j+HRCUdnZ4wOBnScFn7QpX/QJ8/6TKYRN5mPM+jTPz6kfzSiY69woxuYf2Jxd89vNxEX9wlhWpTfT4ZSMUUWEa4WzMYz5jNJGl0R2y0cO2fYCun4Q9LEIp2Oufv4C+Nf/810ds80K5jFCbP5kuVsRZxJ8C2cUHE/npEtLxivM5NCqIcyBcvFaw/pH/+N4dF7eq02XTtm2B/QSttkSYurmeL3SUGa5hR5WU2uioQii0mTkNVixv3tJdcXn7mcwzjrkIghreCAk3dD/vG/htiDAKft4C5jOr1r+i2XhW2ROQGt4SGH7885fv+ew07B0LqmlXxmMRtzczXn19uYWVRQIGEdDCeLyKIly/mY2WzFQuVk3rrSPU9JEkUUp0RxSpLm69KHtVuZR2ThLeF9zl16SzyR3FgKW5ZJYyUshPSQdkAr6HJ4MOLkZES/O8JpW/R6U9JBm3wlWSQ5N6Eiy8GW66Jh0dCsFzOsb1IU8BeS31C6ujrLyNOUJIuRqxXJbMJ8/DvjT3f8z78jfruC7uEJ5/87I3T7ZH4fejae4+F3WgSrgFbbw53Ish7JLp/aQgoEOSoPyeIZq9mMu5sl02VMXmRkeU6a56RZQRrHJKsVeWZRJHfEVkArsJkdOcyXDlK4xLM54+srLv/1/3L5+Tcu0oDr3CXJFa4UuJ6DKyQFGXlssQKkKmvMpCUQlkQVIIRDe5STeO+RPQfPDxi6bbqdAD8LmMx8Wn6CoOwEKIE9I09jssRCRcsSsMbX3H76//l0veTjYsDF/RHtwTv+z//zE/2fAoZWH+m5yKCN1/Jo+y4tx2flBnS6HYYHXYaHXdpuhB0mFMsLwtt/c/Pxhv/vv+f8clO6m7Zjl265ZSFEAemsLDFoKXLWGeG8rJnKsrIGLMuLh84CFEWekIb3hFZMETks1365UKrMDloSZJtCDmj3crA7DI4chBNgi5yg3SbpeCw7Lq1phISyxswWby589b0Jjv0jHcwfz6zKH8S6glsVZX1VnqckcUyxWBFNpizuxyzmU2azmP/5JeMs8ei9K12RVZSQtCSFDTgu0vOxXAepMtLFkuX9jEXLI/QzUtHCDU5pjdocixVWb8lytSSOl6yWS2bTGfeTObNoRR5FpMqncBSyKHvmNgUJy4r+IpmTLn5nGb7nToGyBD1fYmWCJIzIc3C9ANdr4wQB7cCj03ZpeXYZI1MCNxjR67fotWzarqRlWfiWi0zL2jHbLcrCTat0l4q8IIsj0lVBvpqzWs5ZzOfMpnfM50tmC4v/+ZfD4UmLn//XkDBNCQuBrWRZDGtZZSO328FxA4LAptcX9PoFjkqJZyuSuzvGl5+5u77l9ibi94sYKQUtz8FyfSzHw7bAKiJsy0F6azFGo+1APSKlhc9mAAAbqUlEQVQ5pdRQkWfEYYxQAhVYtDpdgnabVssjcAW+I5CWR6462H6f4aBDJ3DLMo7UAt/Ga3m4voftZOtuCaXbwxugeg0Myywk/SEm45jKo1XbhVo/oTPiOCVeRIT3c5azJUlmIwOX9z8X9FoOtihQaUKexGSZTaYUhZAoqwwIi3xFeHPLXfcCv1B0DjzaXQ/pn+A5I47aMd3DkCRaEoULFvN77u/G3PkWYyfnbpIxjWwSy8FeV+o7Tjmg1rZtXNvCdR28IMDvn9H2uvRzj1wV+FaBZUlQDtDC8Yf0RwcMBn0G/YB+16Pt29iyPA+W3cLvtmm3JV2/wJcKR1rkvof0fKQdlfEuu+wJVHlBFkUky4RsuSBaLlmtIqJUktsDnE6bDz9btJwMi5Qsz4kzhZuXcTCkWCcXAhzHx/clnSAjaMfIOGQRL7m/nnH5ecbkXpDbPYbHCleWcSKxbqNC5ahU90oarUVCItY9f1K3Jpm1eUiU8MDu4bWHZZJlNKDXbdFtSVqOwLIccuUhrDb9fpde26XllgUMuSOwXRvLdbHsCCnSUvZnDVrijYgDvgbQsr/5ut4CWj/EZByxmUE0n8lKrYduxCnxMiQJQ/K8hbAdXD8vixjNFpF8PcxSlpk7ISWomPhuzL1/gScUHTUgIICOg2u5WK5Fy3JwXQ/Pb+H5LVq+XzKgbotW6xb7JmGar5MAsmxXkUJWC1FKWWbjXA9bObipTVrkSGnheB2sYETQHTEcDjgcDRj2O3Q7Hu2WjefoQkyFtDwcz8GzwZEKSyqkLZC2jbDsddNv+X1IWQJElpGniiyJSZOENM1IM8iFg7RtPE/gygJBXkkWZ1VfuW7lWXcB2ALHLXDcDLKUOEuYTkPub5YsFg65dHE98KTCWafh8kJR5JRJi0JLApmgZSRVNwLwLrbXwesfMzw8ZjQacDjoMewHdAMX3wXXAiFtssJDWD4t38VxHhrKLQmWvc7QSmkAYfkdb+FR/lpIh/2tgerHnjVoCNaJ7coBpUpB/qD0qR6kWh46fx8KJXTfnVAJ2fyW6MrDFhlesUImPVbrOizXlmVKXvgIxyOwA4J2m8Gwy2DYxXddSK8QU0Vcfe+6haUaMqL0F64lYQSqECBdnGBE9+QnhocnHA+7nPQ9BoGN54jSLVqrR5QtJgVy3QVQFAIlHpQRSlXTx42/Dz9UUq5VZ8FDO5SqnRvx8P/ClG1Z9++VCVtypUiznCTOyDKLUjVHH+ODXpnu96w3Im/x+0sgUTZKeHjtEYfvz3l3fs7hqM/It+k5BZ4sQOTk6wdWrnKEKCqlC1U2Z1bHIg1pIVG/b14xUOlxfa9hXX9zhlVnUm+JWal976hNyFK1m1yItcKBVcqKCNZtPnmBstl0P/QiNIMmKiMP74gUTEQEyYx40WfS69LrBmWLTquF77bwXI/A92m32thWl3anRZFkrG7nxEvFVJXNazqOpSqZF61vlVdSKVkqKCwPrzNgeHLK8dk7TvoBx76iZ6eQJ4RRwipKiNOMXAmEA56VIt0czxbkQvdbrtUZKmBS6148sz7MYHwohJbiyXVMR1SLWwphqDtoKZ9izcAEeSERqiwtcT0Hr+Ph5hKZlceq+0Afrtsm039KA0IpF+jit4ccnpxw9vMZR8MuXVL8eI6Il0RJTJjlRJlFqnKkI3AchyTNyXKJVEJj8sPzwtgDtfHoatKEfzpgaakae61W8Jro5K5705gzU0klq5p4nnr0GFQG31KGxDJG84V6UBaoY6DJMqBcjPkSFRXEs5RxuiRczph2u/T7HXq9Lp12l6DVoxN0UKM2waCL3+khHY/+/Zxh5xNLd0UqisrRqBrbKymahCKZksaSMLaYLV0ct4Xf6TE6GXJyNuIgcGgXS+xwThLOCWcr7hcxqyQjUxKrldOWA4Rf4HmCXIkKrOrnaHswmw2XGkM3bOM8bYj/FSgSiiIhTRRRJIkjGy8rs4fDUYfktM+9WmHdxkTLglxCZpUyPUJatYdLJVX4cH9WQoCsBRpbKNnHDwYcHPY4Pe1yMGhhhzn5dUS0mLBYrpjGBcvcIlEtHD9H2g69QYdUuazLbEuWt6Fa8XrxSZ8Pfe/oOOhrkKD6ZoClJWosy8J1XVy3DPi+9oGp21UwjVexQ13SVLlUamO2o/lZUd+uoQZRbVcJFBbStvBcgbAT8uSeeTQnnLrM7wJanQ5B0MfzhvT7B5xzSnDcp93uYVsuQfeWXrvFwFuwLArS8qJU18SSa6WHLCaPLknmMFl6XNy06PYDWp02B8ddjt616VoKaxITza6Y3VxzNZ5zOUuZhik5Dq3hKSPrENktaClBpmQpS1MB0Mbd/6DWaSiYVoJ9dVirn9OKqeXAijwPCcOc+VyynLvY0qfjt2mdDpH5iEmc4v7f9s6kOW4kycJfYAcSmUyKIkUtLbXpMtbWNpfp//8X+tD3mamqHpUk5r5gj2UOWBLJTVSXSqSq8czSlKRALAHEg7uH+/OrDftZgrZsgtDH9UM8v8nst+xGXA+0MLf00mzPRWBMBNYJYTTh9DTi4sJhOhHk84J5Omf2z59ZLDesKsFO+5TERJMC4fmcXpwybuSqjbAb6SB9kDKCxpV+muzVzlnbtnFdF9/3acU+HzMm/U0tLMuycF2XIAgIwxDP8zrC+kPEtLqZJr60wRfj94e4bhNvEg52MMaZxLhxWG8jZRPjyVCZZF9U7JCUhWB8PiHXFtIOsF2F5QZ4joNva1wtKbVqyFYgsLFtDy8cMXr2imn1X1yc2KgkYhpFjEOfIPCIIpfRyMUXFXJVkidr9otPrGdbZhvFYl+hhM8JMd6F5EQLJDZa2F3cSlyffOI2V6tH7ve/BQ9RcKFAJGiZkCQFq5UiHmnC0OLECfGenaHkG54nPq/2W3RYIFttMsvCsSyEkajSIJVC2lBeP4HjG4PBAxHgOD5hYDOKBGGoqOySvNizml0x+7hgaWy2ZkROxVT5nF3WChzasjDY9eJKa3XfaNzBkySqPmG189n3fVrBzz+EhWXbNr7vMxqNGI1G+L6PEKIL2j3hJZCGg0StPGoddO5tpxGxa6SAD9fbSATbdWKibTsI225iL7VDAc2qlOltb9ldcqhj1YF0y7awLA83nuA9v2ByNmUcBcRB3TPPbs9R2xjtYnsjnk19AipMkVLle8o8o6hKcllRlDlVWZAXFVluKEIbxxtzevmOwHc5ff8fvMpSVruC+VXBLnEJUMi8pMhKbBuECPDHF4xf2JwHCdZZybOsQhobb/yMk3FE5NfChq5j4SoLjsapqcETtdhdLdYHuhnXWozQdK5rtybQ5G+1Ioh04w+2XWHKlGS7ZXW1YuRGjKaCcejgBJf4ZyEv+BP/OS15X9ZpI6BBFZgypUy3bNcuy9WWjbTQ4iBZ7djgOjaqJ1hoIRGmQsmKslDkmSZwHYwJCEdnnL15jz1+zkRpEuWS6whvdMpkPCLwXFzHxpG1nGsr9ies4wWJpxbh7RsYxhhc1yUMQ0ajEVEU0Qp+/iEIy3EcgiAgjmNGoxFBEGBZFlrrH2HdtiMVYTvYtlsL8Dk22qndCUsc+hEIYTWFzS6OW2+rrdr1soU5UuXttL7tthi6Llp2bRvHbSa57eOMzhidveHZqxdcPj/hYhoxiTw8S2C3Wl2Nkp3tWHgig9WebLtiPfuV+WbHPMlZVwk63bHf5ay3kjCweRad8Oy1j/vqAi13ZNmazXrFxw8zPvxzT1YmbD+tce2IaRxyYo2JL94zOn3FJEt5kefkRS18Z5wY92RKNPKJXRvfEbiWhXEsbKeZmKIm/7bguo6DgHFqQb+6s7LpskVMq+5pNWTuujiug3BcHNvGtgW2bTA6I1leMQt+wtUlfjnGP3fQ4wvck3POY83pmybHTQiMkphyh0oWJOsZV580rlHItUWGhRAOtuXguOC6NsqtFV4tyyBEAnpFlsTM58/59KlCFgG+nDA9e0fsPyPPU7KyJJOQyVoiaHJ6yiQKCGyBo+thcByrfvm1D9E1K1Q8sZXC1sBwXZfRaMR4PGY0GnVu4WOJJXxzCysIghsWllLqyVpYbSsqQfNm0aqRuZUoKVGWqpesdbuk3yomNAJ/st5OKoVWGqXqFSzd12prhe+0RmmFUvWYKHQnEGiEheWFOMGYYDRlMn3Gs+djTuOAwLGwjcEyCoxCyxJZppTZmnQxYzv7zOLX/+PTasOv+4K12uMlWzabPYtlShjExEGEN5ow9iMsE1FmDr5rkHnCfrUjX25Z/DIny3yqi1P885h4EuJZGj/OiPKUqioppEHigefgWApLFRhRIrVEKt3IAreLFIfSF6UUUoFsxlK18sZdakebglCnTygpkZL6b9vGEgi0ysnWHykqgSh2OOYljvsC5U05jX3iyGbi1s+iEQKtKkzuUQWKgIxiH7EIXDzLYDflVfU9ob4nqk3f0MAONKT7EZ8/bgiiZ1RpwPnI5iSYMApC4iojL3LySpNVLpXwCSIfRxioSlSR17WmSqMMqF7KxrHu2tNaJewTVhRFxHFMFEUdYf1hXELP8wjD8CiG9ZQJq+5a7gAWRmZU6ZpsM2Pj+MzVFtw1ZbJnuc1JC4kWYDkKWaWk2yWb+WdsmeLtZ+jNhjSt2JYOuapvquda2LaupYz3a5KNz8Zy8Ms9ub1hv96z3RXkpUS6JWWRUqQJaeKRBAKXisq2cGgISyuUKqiyLelmxm7xgcXVJ2ZXM+a7jHWpyEyOybbs1wsW0RjfhsCK8fCQocEmRRYZSZqT5QVFmZEliu3OZ184CFkRiBJLhwQudeFwWU+8UmoqU6BzgUgrckeg7CWJXlHuE+abgn0m0bqEak+RrNltYLlIoQSZrllv9uxzSa5dJA5g8DyNbZWUWcJutWR1FVGGNnq+IN3s2aSStBJUSlJla2SucagIAoMb2GhhkGWEjBwi38Jp1A61KjF5QpWk7NO8Ts8oFVIWaL2jylbstgXzBTgyp8g2LLcpaVZR6Qpt9hTpmuVsgeePMIWEqY+OBaGrMaqgKHKKqk5tKE1JVRUYmZC7AsoN1XrFfp2y3kvSApQR2M5x4No8saiWUrXqbmuERFF0RFjXravvZXF906D7bYRl2/atZHX9d9/bvOy6IlM3UMVY6GJDsfyFDQUf9y4iypg5K6p8xef5luWuRAqw3YoqW7P6+AuOpdiNQpx8g776QLHM2aQeu6ouB/F9sK16km0XH7BMitxY7MMc39qR77d8vtqzSytKZ4WYe8wpIF+SLyPi0MOzLWxMp6muVUmVJ2S7Jcnqis1qyXxZT+rSgKFCFlv2q49YQmOKJdV+xHbuEwfgiAJd7ciTDcv5gqvlhvVOsq80FCW62qCLMdtliO+A0BValbUyhVJIbaEIMFaALWBk7QiZUWVzrmYpi22FkilkM9KV4kqssAqfRWjQecLmasZiV7JVPmUt+ozvS2xyst2Cz7/8jJYJoWejd0uKjzOSVcEqs8ikASpQO/JEsLwSQEm2W7IeB5yEDpFv49h2bQnrOu7VKY7O18y3Ofu8QorP5BvJZ9snlLAclVRFwufZisW2oJBgkMhiw27xKxYKuV+Qn/isRjaB20g6VyWVVBRSUJk6Bur7tSyPqBJkMiPfrlivCxZ7TWWom4o07dDEI0Xh7yOZ9v/aFcIoigiC4MjCegwj5HezsKIoYjQaEccxcRzTasc/GUur12igtrAEutxSLv+XbTaj8mzWboUvagmXfZazTWTdFstWVPma5a//Tb69wvNcbJlj0jUyK8hLh1TWsYpaC10h8zX7eUWVXLH1LHxHYosSWRQk+4I002jLIE1JlSxIZgGzwMP3HBzLqpudoussel0hq4IiS8iThCzNSHNJVhqUqDPTVbUn23xAFmvSdcTqc8D/RbV6qGMphC5RVU6a7NlvE5JUksscnW3J05D9JuRjWGutW0I1zWYb904bpLJQum5l5ooSV2RolZEkBeudRKkUiivS5Y6r1GO/sPEdg5YlRZqQ70sK7VA1K66uoxHk5LsFn/+nYDf7iONYUGTIZEeVFuSlIFe1i23ZJarcsF1UFNma1VVIFPq1/r3byuJQn7cqUWVGmaekScI+yckKkOITSm35mDuka0Po1nr1SZKzSyoKVWfx62pPtvkVVWxJVyHr0CUKHVyHrolFp/igDvWBdfJwhZEZqkzJi5Ik00gjmoUNHi3Lvb8aKHp9ItvV/iiKmE6nnSsYBAG+7x/lVz5KCMd8IwbRWiOlJM9z1us1P//8M//4xz/4+9//zk8//USWZVRVhTGGfuOL/kA9yupDQ1xdZKFpgHkooajTFNoGnYfRqhuZ1uZxmxSomrbmTRynTaZsrk1Y/ZWitgVVkyWum1ia7dSriI0kStdKqm2zZTTGNHGzqqIqZRMfETdiQl2iZKfo6TYtw6hVOY1EyoqqrKikQkpQplbXdNxa/rcOkNfxpS7TXNUSLFLqJpPcNCuDpmtmWish9MayrdFr96F1L1lUdHEcQVstILpxPeSstU1M+wm5FkbU7dlc16lVUp22JZtp2m81ccgmLimlamJo9d8K0fRgbFQUdNMhWh/lZllAvYDgevXH7tqTNQ1vdRN/0xolW4ka05URtZn3bfb9oz3zd8y5NnTTWlQvXrzgr3/9K3/729/4y1/+wsXFRRfmucto+eHysFoLK45jTk9PefHiBWmaMpvNWK/XKKW6zrh9hu/nan2vm3iTqw1aS1CH1un9NvPi6NwUWhm07JFYV0cnjtSJuyJpXQeeDx5Av415s1QmS7QCiaDo155dK1Ex7cPf5oU1J2j1nd4m8VJXEiVLqrLprSfann0cukx3E1NhlKLSFbIUvUz53nU0SZCH9meHGr/DOB16GHbt5Hv5VYda8v73+tqUlId706lj9ILVbb5Um6xqJFoqSiWQpXV4ifTHoZe0ejgfXV8v9S1vSxlFr9N0e+/bbt5aVhTaoix7REw/OdYcukNr0xuXvsqHOMpJ+56k1X/mb4tDaa3xPI/nz5/z+vVrzs/PGY/HXXinXSH8oYPu7aBbloXjOPi+TxzHnJ2d8fr1a8qyREpJmqZkWXZv/sdjvHFEPwehy+07NPHsHjJxUxqyewMLcZTeLvrd6w/zpmeKc2hAIHqq8v0W6OauUGxfd97qFQYfd0s2mK6ur27lLnvE0WzfL90RpmtUarTsVjpbs+247q0+/6P7ZcyxvlQnoUKvsBlu64xMnxAxR3XSorWlmtpCQe+lYBoLx9QWm5ISae4brzovqrOe+1UMR1UzB03/Q6MIXZ+hlmh1M+e0t+x8GAsO1TgC0xWew+NWgNw1zxzHYTwec3l5yZs3b7i8vGQymeD7/r2u4Peat99cwK+1suI45vz8nKIoqKqK/X7PfD4nSZLO9Lye4v+9yerG8a7z0W85HfHA/xcHq+PYDDmUuZjbT/6IdI4PKThu8d6rd+zV7AkjGk1x0VkW9GTlTN8yMt2Ua4hN3HORty3Ri4cNzLWcJPGFYa0NLXFUAnTrmN1T9Nz9Ob2x6Dc8bdqU1MfR9FnIXNuR6Pnk4l8kje/1zPcTRNvfu67LyckJL1++5O3bt7x69YrpdHqvK/hDWVjXg3dt8D2KIs7OztBaUxQFq9WK+XxOWZZUVYVSqiO4u0jr+7+Bmje3ZW4+2EcPYDOxhaj1rK5PhRvSMz3r5wa59K5ZCAxtTOy+xe7+ccQdPCA6o08Iu9NgMreeV89i6vmy9hFh3nVtN2e/6B3/2O39Enk021qivQU3rvfW4xkO98HckyDQuaKivdzuu3XH+N0kI7v+vdUPBYgHvqvEo3R5vm9OtW6g4zhdoP38/JzLy0tevXrFixcvmEwmuK57Z7D+h1wlvB7L8n2fyWSCUookSXj9+jVJkuA4Dsvlku12S1VVNwbx0duN9SfwA0ykrzrVr3nr9uM738qK/OLxr5OS+DJBfXkwv/Lvf+O4iq8YswdJzdz90nroOT5GSuhDUona58NxHOI45vnz57x8+ZI///nPXF5ecnZ2xmQyIQzDI8Pih45h3RZ76pfpTCYTzs/PybIMY0yXx5FlGUVR3BkIvM9dHDr9DPiR8D2n9/Xi5fv+beeY53lMJhPevn3L+/fveffuHS9fvmQ8HuP7PrZt3zv/vud8dH6vHbfKDWEYcnp6ipSyWx1USiGlZLlcUhQFRVF0mbW3WVjXSfHfqTvPgAG/hbRu+94aFO2K/ng85s2bN7x7947379/z+vVrzs7OiKLoBlk9dhzudyGs9iLaRNLRaNTFrNrfx3HM1dUVi8WC1WpFkiTdauJdA3FX6sO3J7BD2Pm4iPl+t+JhjQS+tG9x664favbffbzb93ffPu57GM01cbAvjlNvfw857697OX1pzMyDbtGXr+ELY3nX1v2Qx3eIVd3lsfTDNVEUcXJywtnZGefn57x69aoLsj9//pw4jo/KcJ6KkfBNgu73PVz9eFab8tC6iR8+fOCXX37B8zyWyyX7/b5zHdv9tVbXk5eoGTDgkeNU18Mp7aJWPx2hdf9OT0+5vLzkT3/6U5e+cHZ2xnQ6JYqiI1fw0ePK34qw7qsHvG5+9l3EyWTCyckJYRh2GlonJyfsdjuyLENK2bmN/Y9qqv4HDBhwc561BkKr5eY4Dm4jfdRKHLcGQ0tYb9++5e3bt1xcXDAajXBdt0sQ7ZPVbaR1XxLqDxfD6l9IXz7Zdd2jomjLsphOp5111Qbji6Igz/Pue1mWncs4WFoDBtwkrDalqC9p7Pt+Vwfo+35X5xvHMdPplIuLC87Pz5lOp50c1FOeX9+klvBrd6GUoixLkiTpiKolpizLSNP06JNlGXmek+c5VVUdCQIOK4YDBpfwEH5pDYJW1riVhel/WtWFVrsujuPO2/na+fzdk71/T8K6Htvqb6e17ly81v2rqoo8z0mShCRJbhBWmzV/m4LpQFwD/h3Jqm9htaVx7epfX8eqFdVsNa1at8/uJKtvT+C+Lz79KJn630qt4b4L+tIh2qB6a3nleX5kdbUuYRvLemwtrQEDnqKF1XcJW0urdQn7n7ab1V0r7bcR1x+OsH6rq9imLFwPtvetsH4H2sHCGjCQ1c050I8XtxZXG4BvP/+KntVTmV/fjbBuY+rr5NPf5npr7NvcygEDBnAncfW/93++zTK77gLeZ3U9Jpzfe+BuG5z73g6DtTRgwO9rmfXn4EPm2lOaj7+rhXWbtXVfIP4hfvOAAQP+NePhS97PdWPiKRoOzmMO4PVktPvcv4G8Bgz4bSR1nZyeMjE9uoXVN0fvsr4e+vOAAQO+nrDuI7CHzNN/O8J6qNs4YMCA72d1/UhwhsEcMGDAjwJrGIIBAwYMhDVgwIABA2ENGDBgIKwBAwYMGAhrwIABAwbCGjBgwEBYAwYMGDAQ1oABAwYMhDVgwICBsAYMGDBgIKwBAwYMGAhrwIABA2ENGDBgwEBYAwYMGDAQ1oABA/6I+H/WxhnYyjQuvQAAAABJRU5ErkJggg==;resizeWidth=1;resizable=1;resizeHeight=1;perimeter=none;flipV=0;flipH=0;noLabel=0;imageBackground=none;" parent="1" vertex="1">
          <mxGeometry x="362.27" y="200" width="602.5" height="401.67" as="geometry" />
        </mxCell>
        <mxCell id="hrnPTHgjcRG-61fIRarA-13" value="" style="edgeStyle=none;rounded=0;orthogonalLoop=1;jettySize=auto;html=1;endArrow=none;endFill=0;strokeWidth=5;fillColor=#ffe6cc;strokeColor=#d79b00;exitX=1.009;exitY=0.633;exitDx=0;exitDy=0;exitPerimeter=0;" parent="1" edge="1">
          <mxGeometry relative="1" as="geometry">
            <mxPoint x="360.99042999999983" y="403.1399999999999" as="sourcePoint" />
            <mxPoint x="400" y="403" as="targetPoint" />
            <Array as="points" />
          </mxGeometry>
        </mxCell>
        <mxCell id="hrnPTHgjcRG-61fIRarA-8" value="" style="edgeStyle=orthogonalEdgeStyle;rounded=0;orthogonalLoop=1;jettySize=auto;html=1;endArrow=none;endFill=0;entryX=1;entryY=0.5;entryDx=0;entryDy=0;entryPerimeter=0;" parent="1" source="hrnPTHgjcRG-61fIRarA-4" target="hrnPTHgjcRG-61fIRarA-5" edge="1">
          <mxGeometry relative="1" as="geometry">
            <mxPoint x="680" y="345" as="targetPoint" />
            <Array as="points">
              <mxPoint x="660" y="343" />
            </Array>
          </mxGeometry>
        </mxCell>
        <mxCell id="hrnPTHgjcRG-61fIRarA-4" value="" style="fontColor=#0066CC;verticalAlign=top;verticalLabelPosition=bottom;labelPosition=center;align=center;html=1;outlineConnect=0;fillColor=#CCCCCC;strokeColor=#6881B3;gradientColor=none;gradientDirection=north;strokeWidth=2;shape=mxgraph.networks.hub;" parent="1" vertex="1">
          <mxGeometry x="630" y="410" width="100" height="30" as="geometry" />
        </mxCell>
        <mxCell id="hrnPTHgjcRG-61fIRarA-5" value="" style="fontColor=#0066CC;verticalAlign=top;verticalLabelPosition=bottom;labelPosition=center;align=center;html=1;outlineConnect=0;fillColor=#CCCCCC;strokeColor=#6881B3;gradientColor=none;gradientDirection=north;strokeWidth=2;shape=mxgraph.networks.virtual_server;" parent="1" vertex="1">
          <mxGeometry x="570" y="310" width="60" height="65" as="geometry" />
        </mxCell>
        <mxCell id="hrnPTHgjcRG-61fIRarA-6" value="" style="fontColor=#0066CC;verticalAlign=top;verticalLabelPosition=bottom;labelPosition=center;align=center;html=1;outlineConnect=0;fillColor=#CCCCCC;strokeColor=#6881B3;gradientColor=none;gradientDirection=north;strokeWidth=2;shape=mxgraph.networks.virtual_server;" parent="1" vertex="1">
          <mxGeometry x="740" y="310" width="60" height="65" as="geometry" />
        </mxCell>
        <mxCell id="hrnPTHgjcRG-61fIRarA-11" value="" style="edgeStyle=orthogonalEdgeStyle;rounded=0;orthogonalLoop=1;jettySize=auto;html=1;endArrow=none;endFill=0;entryX=1;entryY=0.5;entryDx=0;entryDy=0;entryPerimeter=0;" parent="1" edge="1">
          <mxGeometry relative="1" as="geometry">
            <mxPoint x="710" y="410" as="sourcePoint" />
            <mxPoint x="740" y="342.5" as="targetPoint" />
            <Array as="points">
              <mxPoint x="710" y="343" />
            </Array>
          </mxGeometry>
        </mxCell>
        <mxCell id="hrnPTHgjcRG-61fIRarA-15" value="" style="shape=image;imageAspect=0;aspect=fixed;verticalLabelPosition=bottom;verticalAlign=top;image=data:image/png,iVBORw0KGgoAAAANSUhEUgAAAQcAAAK8CAIAAABtLO3bAAAIoHpUWHRSYXcgcHJvZmlsZSB0eXBlIGV4aWYAAHjarZhpkiI7EoT/6xRzBG2h5TjawmxuMMefLxKoV9Bgw7N50EWClKkl3MPD1e7859/q/sUr1ppdltpKL8Xzyj33OPjS/O01rs/g8/V5e9X7t/Dc7uby8foWaUpc062jlds1PNofA92vYfBNfg3U1r1jPnf0fLvG9jLQfaJkK7Il7PtA/T5QireOcB9g3LblS2/19xbmuV3vz9/CwJ+zj/lolfvNL79zJXpbmCfFeFJIns+Y4m0Byf6iS4OOwKdPjRsDjdZSr5Z4XwkBeRcn/2tV7hWV4n9ufkbr8e0FlFRu7Y6G52CWn+vb9iDvg++uEP+aOa2fmZ/aQbG/bufxp7qbUz233Y1cCGm5b+qxlesbN05Cnq7HCu/Kn/C9Xu/OuznYu4B8++Un7xV6iMCiIYcdRtBwrusKiyXmeGLlGuOK6WprqcYeV/IOhLK9g8aaetqpgdsC3kRr/FlLuObt13QrNCbegTtjYLBwgz/+M++PA6ka5UPw7RanYviEaMxiGYacfXIXgAR98EiuAD/ery/DNYGgXGFubHD4eRtiSrhzy3iULqATNwrXW66Fuu8DECLmFhZDBuTgS0gSSvA1xhoCcWzgMxioxZTjBIIgEjerjDmlAjhkDHPzTA3XvVHirRnNAghJhURqADTAyoQN/tTc4NCQJFlEilRp0mWUVHKRUkotJn6jppqr1FJrbbXX0VLLTVpptTXXehs99oQ4Si+99tZ7H4NJByMPnh7cMMaMM808ZZZZZ5t9jgV9Vl6yyqqrudXX2HGnjU7ssutuu+9xwoFKJx855dTTTj9DoZomzSpatGrTruMHteCutAt/vL9HLTxQixdSdmP9QY1Ha30MEUxOxDADsZgDiFdDAEJHw8y3kHN0Bp1h5nskKySySjFwdjDEQDCfEEXDD3Z/IfeEm8v5/8ItPpBzBt0/gZwz6D4g9ydub1DbVm2WT+5CyNLQguoT6cdNIzb+UZNaLHPZAlCp1Bk7tn0yu2F7YFZ3ZLUai0LIsaoSzxpWP3HvFM5efawyNzOLP2XK4pfwqwZ+hTNTlhQBkLTqaRH32NXJpMZKyGKV8eO19ghvimoPXVn12UypY9ex733uTWc4aWrL1WTSrmOin2gu1NY5knYBFBjz1Oascbd2hv8JzKerwqfWtk0K50yF56gqg39D3YfOk1at6tsBWbuqlJb0pH2S3QubNA5j5aPV/W6eM4Sdr7iI2YkPVzl5QvWpJzOJGnoYLT1T+Pe20/pWbQdUw5pt2fWM7auuOg3s0/Qgh5Krd3801oKNaFdchtmjD9e5ej0x8TgTmPhrOafrhjZlvHb+9DUNW6mJvQIw1y2D8tu0NqKKPK8xXB7tvDbmcRa5+TfoZY7NSPQnv67O57739CL4F5lQyGeOPTp+tX9FM2c861Cp+jVjbSxiU7BKzrPmvWyfLdhKWYBgPUjHCqJoijdL3WeW3ReS51IrXFcdoL40ydptIj6SZkpd0ddT0K1zordV3kKJFX0E8wqwtbuXjtMRy2+ijEQiR+eUPRflNrvk15CSetk9p3E83mYvghNIofBXel35w4RXBqHtqzckkNLsLYlSGa6f9hL/b8JfHuFHPLUuWAwhCV2UmVPBZi3FUE+rBaVtwWCtIlJr8htG8PZLxSeyhPxkmwUPdpKoP9ntECfPjL0rhBVGmaCYiS33sHYgiCXh/1QxicLGthLFAKhWtn563a9uRkP5sTdH5pDFKlc3/0cUc0dH41gJTpFpvTynXLwIeSUWEXhOukTSAShMAOEDYaocwvwQqnnKneKl2lKOiziqXaxgi0xKdmzcis+9krZlc0K2qbHHhZouSvYeBebmcqBwvx1FOgop/OTMR3XYzeupmfqDXbO1g5AX5I6gXCTLg/PAOVSgtI1FxDSU0WHhdNW07DY/7h7PpIpPmHLBrQ0kYqfcUOg1+LWLDIotxThYZlBLqWIENg6ra6V0P4PJM4bAh+6NfiuMswfI6px7GH2Bgr2sGqjda5m/nay3UhF36suluiHqEROJzUqOcjxruAc9i8fJaOor3LV6GL0wHvtRlJ0t8Lw/HbIsSU6W1p3L7ENHP1NHuNJtbZwLUzLQgSasDV8h9cg+Z0knmAXHAAZRoxWW7k6cigVTLw1gN6D3WULRUJdV6AgKeAuIv6z6AytnR5ZTNZ+ZBzdBo7I0OE6Wk4nAzpd9AnvJJ2MESAjPTWwCohIaraxuMFcKw+5vAr1OykSQlMT6DVNAn6gxfW1h2KsYYdAsE2dR9M6jdwC32EsiCOTX7KnZAz4dkiIehZDGM/LFXBNhlolC7x4LRqqf0jspsQrRPplnUQGybLeC2qB+oHzV5MB6l8t14mI3CYrWY57agvhtb8ql1rqr6QYWDEpRKIlOzBbChblNQU9HPHFlHOmsQFqCJS1t8jk7FN8Bl6jwA6pdNYU0W/mvSrfWrgKPtUHh4dHzuFzZaSHL3Nx1Zg0mTNyMGWNJp6KFhGjGNFebAtGNy2CxsYQQtu3ZCoa4Dsd28Zmml+zgEt0aKp6Y6Gj5Hw7kd6ubkx0ODuEbnu0pzCJE3siNFBI3TvYJ+ejD9AetpcqMKxO3SSVDUjWQGyfhUxcOxSpfRJVKPP2iRfbQEI+m0PgE3HgIJWWP2rkgCPHtqImlvv5vplSf0q4Tx/xkiChA4V5LfH61Q+5v+KHLofi/LNGTI3K/LdG6W7I2yGdbjrfDDLrCoacZHYaJ9XuT5N7p9S+T9KvvvUl6lHH3ro6/lvFvzJL7xox/48XdN2b8G5PkvjHj33hx940Z/8aLu2/M+Dde3H1jxiG7bwvl4dCaPqzLfTgkFGDRnSIChBT1gPZjU5CSuOIYjIq35JRMbnOkHHFGNzaQSCMLU8RwgZB95+CN9gQO6xs34EvfzCEmAR9oFDjU7O7+C7Qmox9Ru21iAAABhGlDQ1BJQ0MgcHJvZmlsZQAAeJx9kT1Iw0AcxV9TpVUrDnYQdchQnSyIijhqFYpQIdQKrTqYXPoFTRqSFBdHwbXg4Mdi1cHFWVcHV0EQ/ABxdHJSdJES/9cUWsR4cNyPd/ced+8AoVZimtUxDmi6bSbjMTGdWRUDr+hBEF2YxpDMLGNOkhLwHF/38PH1LsqzvM/9OXrVrMUAn0g8ywzTJt4gnt60Dc77xGFWkFXic+Ixky5I/Mh1xeU3zvkGCzwzbKaS88RhYjHfxkobs4KpEU8RR1RNp3wh7bLKeYuzVqqw5j35C0NZfWWZ6zSHEcciliBBhIIKiijBRpRWnRQLSdqPefgHG36JXAq5imDkWEAZGuSGH/wPfndr5SYn3KRQDOh8cZyPESCwC9SrjvN97Dj1E8D/DFzpLX+5Bsx8kl5taZEjoG8buLhuacoecLkDDDwZsik3JD9NIZcD3s/omzJA/y3Qveb21tzH6QOQoq4SN8DBITCap+x1j3cH23v790yzvx9/fnKstNarMQAAD4tpVFh0WE1MOmNvbS5hZG9iZS54bXAAAAAAADw/eHBhY2tldCBiZWdpbj0i77u/IiBpZD0iVzVNME1wQ2VoaUh6cmVTek5UY3prYzlkIj8+Cjx4OnhtcG1ldGEgeG1sbnM6eD0iYWRvYmU6bnM6bWV0YS8iIHg6eG1wdGs9IlhNUCBDb3JlIDQuNC4wLUV4aXYyIj4KIDxyZGY6UkRGIHhtbG5zOnJkZj0iaHR0cDovL3d3dy53My5vcmcvMTk5OS8wMi8yMi1yZGYtc3ludGF4LW5zIyI+CiAgPHJkZjpEZXNjcmlwdGlvbiByZGY6YWJvdXQ9IiIKICAgIHhtbG5zOmlwdGNFeHQ9Imh0dHA6Ly9pcHRjLm9yZy9zdGQvSXB0YzR4bXBFeHQvMjAwOC0wMi0yOS8iCiAgICB4bWxuczp4bXBNTT0iaHR0cDovL25zLmFkb2JlLmNvbS94YXAvMS4wL21tLyIKICAgIHhtbG5zOnN0RXZ0PSJodHRwOi8vbnMuYWRvYmUuY29tL3hhcC8xLjAvc1R5cGUvUmVzb3VyY2VFdmVudCMiCiAgICB4bWxuczpwbHVzPSJodHRwOi8vbnMudXNlcGx1cy5vcmcvbGRmL3htcC8xLjAvIgogICAgeG1sbnM6R0lNUD0iaHR0cDovL3d3dy5naW1wLm9yZy94bXAvIgogICAgeG1sbnM6ZGM9Imh0dHA6Ly9wdXJsLm9yZy9kYy9lbGVtZW50cy8xLjEvIgogICAgeG1sbnM6dGlmZj0iaHR0cDovL25zLmFkb2JlLmNvbS90aWZmLzEuMC8iCiAgICB4bWxuczp4bXA9Imh0dHA6Ly9ucy5hZG9iZS5jb20veGFwLzEuMC8iCiAgIHhtcE1NOkRvY3VtZW50SUQ9ImdpbXA6ZG9jaWQ6Z2ltcDplODQ0OWJiMC05MjJlLTQzYzUtODMzNS0wZDQwMTRkMTQ2NzAiCiAgIHhtcE1NOkluc3RhbmNlSUQ9InhtcC5paWQ6NGMxMjg3ODEtMjg5NC00MWVhLTk3NzUtMGI3MGQyNWExYzI5IgogICB4bXBNTTpPcmlnaW5hbERvY3VtZW50SUQ9InhtcC5kaWQ6ZGQyYjVmMzAtYjcwMi00ZGQ4LTk3NGMtYzMxOTU5ZWE0MjRiIgogICBHSU1QOkFQST0iMi4wIgogICBHSU1QOlBsYXRmb3JtPSJMaW51eCIKICAgR0lNUDpUaW1lU3RhbXA9IjE2Njc5MDYyMjIyMjE3MTAiCiAgIEdJTVA6VmVyc2lvbj0iMi4xMC4yMiIKICAgZGM6Rm9ybWF0PSJpbWFnZS9wbmciCiAgIHRpZmY6T3JpZW50YXRpb249IjEiCiAgIHhtcDpDcmVhdG9yVG9vbD0iR0lNUCAyLjEwIj4KICAgPGlwdGNFeHQ6TG9jYXRpb25DcmVhdGVkPgogICAgPHJkZjpCYWcvPgogICA8L2lwdGNFeHQ6TG9jYXRpb25DcmVhdGVkPgogICA8aXB0Y0V4dDpMb2NhdGlvblNob3duPgogICAgPHJkZjpCYWcvPgogICA8L2lwdGNFeHQ6TG9jYXRpb25TaG93bj4KICAgPGlwdGNFeHQ6QXJ0d29ya09yT2JqZWN0PgogICAgPHJkZjpCYWcvPgogICA8L2lwdGNFeHQ6QXJ0d29ya09yT2JqZWN0PgogICA8aXB0Y0V4dDpSZWdpc3RyeUlkPgogICAgPHJkZjpCYWcvPgogICA8L2lwdGNFeHQ6UmVnaXN0cnlJZD4KICAgPHhtcE1NOkhpc3Rvcnk+CiAgICA8cmRmOlNlcT4KICAgICA8cmRmOmxpCiAgICAgIHN0RXZ0OmFjdGlvbj0ic2F2ZWQiCiAgICAgIHN0RXZ0OmNoYW5nZWQ9Ii8iCiAgICAgIHN0RXZ0Omluc3RhbmNlSUQ9InhtcC5paWQ6YzcyOWE0MzMtNTQzZC00MWRhLWE5N2ItZTY3NzY5N2Y1Nzk5IgogICAgICBzdEV2dDpzb2Z0d2FyZUFnZW50PSJHaW1wIDIuMTAgKExpbnV4KSIKICAgICAgc3RFdnQ6d2hlbj0iKzAxOjAwIi8+CiAgICA8L3JkZjpTZXE+CiAgIDwveG1wTU06SGlzdG9yeT4KICAgPHBsdXM6SW1hZ2VTdXBwbGllcj4KICAgIDxyZGY6U2VxLz4KICAgPC9wbHVzOkltYWdlU3VwcGxpZXI+CiAgIDxwbHVzOkltYWdlQ3JlYXRvcj4KICAgIDxyZGY6U2VxLz4KICAgPC9wbHVzOkltYWdlQ3JlYXRvcj4KICAgPHBsdXM6Q29weXJpZ2h0T3duZXI+CiAgICA8cmRmOlNlcS8+CiAgIDwvcGx1czpDb3B5cmlnaHRPd25lcj4KICAgPHBsdXM6TGljZW5zb3I+CiAgICA8cmRmOlNlcS8+CiAgIDwvcGx1czpMaWNlbnNvcj4KICA8L3JkZjpEZXNjcmlwdGlvbj4KIDwvcmRmOlJERj4KPC94OnhtcG1ldGE+CiAgICAgICAgICAgICAgICAgICAgICAgICAgICAgICAgICAgICAgICAgICAgICAgICAgICAgICAgICAgICAgICAgICAgICAgICAgICAgICAgICAgICAgICAgICAgICAgICAgICAKICAgICAgICAgICAgICAgICAgICAgICAgICAgICAgICAgICAgICAgICAgICAgICAgICAgICAgICAgICAgICAgICAgICAgICAgICAgICAgICAgICAgICAgICAgICAgICAgICAgIAogICAgICAgICAgICAgICAgICAgICAgICAgICAgICAgICAgICAgICAgICAgICAgICAgICAgICAgICAgICAgICAgICAgICAgICAgICAgICAgICAgICAgICAgICAgICAgICAgICAgCiAgICAgICAgICAgICAgICAgICAgICAgICAgICAgICAgICAgICAgICAgICAgICAgICAgICAgICAgICAgICAgICAgICAgICAgICAgICAgICAgICAgICAgICAgICAgICAgICAgICAKICAgICAgICAgICAgICAgICAgICAgICAgICAgICAgICAgICAgICAgICAgICAgICAgICAgICAgICAgICAgICAgICAgICAgICAgICAgICAgICAgICAgICAgICAgICAgICAgICAgIAogICAgICAgICAgICAgICAgICAgICAgICAgICAgICAgICAgICAgICAgICAgICAgICAgICAgICAgICAgICAgICAgICAgICAgICAgICAgICAgICAgICAgICAgICAgICAgICAgICAgCiAgICAgICAgICAgICAgICAgICAgICAgICAgICAgICAgICAgICAgICAgICAgICAgICAgICAgICAgICAgICAgICAgICAgICAgICAgICAgICAgICAgICAgICAgICAgICAgICAgICAKICAgICAgICAgICAgICAgICAgICAgICAgICAgICAgICAgICAgICAgICAgICAgICAgICAgICAgICAgICAgICAgICAgICAgICAgICAgICAgICAgICAgICAgICAgICAgICAgICAgIAogICAgICAgICAgICAgICAgICAgICAgICAgICAgICAgICAgICAgICAgICAgICAgICAgICAgICAgICAgICAgICAgICAgICAgICAgICAgICAgICAgICAgICAgICAgICAgICAgICAgCiAgICAgICAgICAgICAgICAgICAgICAgICAgICAgICAgICAgICAgICAgICAgICAgICAgICAgICAgICAgICAgICAgICAgICAgICAgICAgICAgICAgICAgICAgICAgICAgICAgICAKICAgICAgICAgICAgICAgICAgICAgICAgICAgICAgICAgICAgICAgICAgICAgICAgICAgICAgICAgICAgICAgICAgICAgICAgICAgICAgICAgICAgICAgICAgICAgICAgICAgIAogICAgICAgICAgICAgICAgICAgICAgICAgICAgICAgICAgICAgICAgICAgICAgICAgICAgICAgICAgICAgICAgICAgICAgICAgICAgICAgICAgICAgICAgICAgICAgICAgICAgCiAgICAgICAgICAgICAgICAgICAgICAgICAgICAgICAgICAgICAgICAgICAgICAgICAgICAgICAgICAgICAgICAgICAgICAgICAgICAgICAgICAgICAgICAgICAgICAgICAgICAKICAgICAgICAgICAgICAgICAgICAgICAgICAgICAgICAgICAgICAgICAgICAgICAgICAgICAgICAgICAgICAgICAgICAgICAgICAgICAgICAgICAgICAgICAgICAgICAgICAgIAogICAgICAgICAgICAgICAgICAgICAgICAgICAgICAgICAgICAgICAgICAgICAgICAgICAgICAgICAgICAgICAgICAgICAgICAgICAgICAgICAgICAgICAgICAgICAgICAgICAgCiAgICAgICAgICAgICAgICAgICAgICAgICAgICAgICAgICAgICAgICAgICAgICAgICAgICAgICAgICAgICAgICAgICAgICAgICAgICAgICAgICAgICAgICAgICAgICAgICAgICAKICAgICAgICAgICAgICAgICAgICAgICAgICAgICAgICAgICAgICAgICAgICAgICAgICAgICAgICAgICAgICAgICAgICAgICAgICAgICAgICAgICAgICAgICAgICAgICAgICAgIAogICAgICAgICAgICAgICAgICAgICAgICAgICAgICAgICAgICAgICAgICAgICAgICAgICAgICAgICAgICAgICAgICAgICAgICAgICAgICAgICAgICAgICAgICAgICAgICAgICAgCiAgICAgICAgICAgICAgICAgICAgICAgICAgICAgICAgICAgICAgICAgICAgICAgICAgICAgICAgICAgICAgICAgICAgICAgICAgICAgICAgICAgICAgICAgICAgICAgICAgICAKICAgICAgICAgICAgICAgICAgICAgICAgICAgICAgICAgICAgICAgICAgICAgICAgICAgICAgICAgICAgICAgICAgICAgICAgICAgICAgICAgICAgICAgICAgICAgICAgICAgIAogICAgICAgICAgICAgICAgICAgICAgICAgICAKPD94cGFja2V0IGVuZD0idyI/PiMSrQMAAAAGYktHRAAAAAAAAPlDu38AAAAJcEhZcwAADsQAAA7EAZUrDhsAAAAHdElNRQfmCwgLEQIPL+YcAAAgAElEQVR42u2deXyU1b3/v9/zLLNlJyEhQABBWRR3XFFxR8FatdZ9/VG3tta2trXaWtTb1mp7XapeW72tvdZWbbXuVluXi8ValWIVBARElkAC2ZNJZp7lfH9/nMkwCRACVK7MfN59VWDmmWdmnjnv53y/Z2URIQBADgqXAABYAQCsAABWAAArAIAVAMAKAGAFALACAFgBAKwAAFYAACsAgBUAwAoAYAUAsAIAACsAGBA7L7+ViDCziAiJYrWuq/6xD3/zytJn00G3YmUeH1u110X7Xjll2KEWW9njmRllAnD+zdvup8T8xndvfeO7GzrqXTtKtPHLhqFPyvriPrMumny5rWwmhhggb60wYggJES9qXnDz699s7lzr2BGtQyIyRd/8RWutSZ+97+XnT55lsWWzDSVAfuYVIiIiilWH137n329p6ljt2hGtQ2Y2hd78RUQsZSniP37w6zkrX3GUE+oQK56AvLXCFPp5a9/6aP37UScR6nDTSoCZtWjbcrtS7W+ufCXpJ7PVCIAVeRcUMjOzp/2/rnjeVXao9ZbiIiNGzI4uanp/cfNCS1maNMoEyM+WWRHxQ29582LFlrAMfKRtOeu7GtZ2rDKhF8oEyE8rmFlL2Nq9nlkxyYBHimKr2+tMpjuYGVIAyuNePFNdMDMRbzXg0hKEOjCSoEyAvLXCZM6DiYhEmCRbocAKkM8jPpiZBtP/wCzE2QoF/RUA46BgAoAVAMAKAGAFALACAFgBAKwAAFYAACsAgBUAwAoAYAUAsAIAWAEArAAAVgAAK3AJAIAVAMAKAGAFALACAFgBAKwAAFYAACsAgBUAwAoAYAUAsAIAWAEArAAAVgAAKwAAsAIAWAEArAAAVgAAKwCAFQDACgBgBQCwAgBYAQCsAABWAAArAIAVAMAKAGAFAABWAAArAIAVAMAKAGAFALACAFgBAKwAAFYAACsAgBUAwAoAYAUAsAIAWAEArAAAwAoAYAUAsAIAWAEArAAAVgAAKwCAFQDACgBgBQCwAgBYAQCsAABWAAArAIAVAABYAQCsAABWAAArAIAVAMAKAGAFALACAFgBAKwAAFYAACsAgBUAwAoAYAUAsAIAACsAgBUAwAoAYAUAsAIAWAEArAAAVgAAKwCAFQDACgBgBQCwAgBYAQCsAABWAABgBQCwAgBYAQCsAABWAAArAIAVAMAKAGAFALACAFgBAKwAAFYAACsAgBUAwAoAAKwAAFYAACsAgBUAwAoAYAUAsAIAWAEArAAAVgAAKwCAFQDACgBgBQCwAgBYAQCswCUAAFYAACsAgBUAwAoAYAUAsAIAWAEArAAAVgAAKwCAFQDACgBgBQCwAgBYAQCsAADACgBgBQCwAgBYAQCsAABWAAArAIAVAMAKAGAFALACAFgBAKwAAFYAACsAgBUAAFgBAKwAAFYAACsAgBUAwAoAYAUAsAIAWAEArAAAVgAAKwCAFQDACgBgBQCwAgAAKwCAFQDACgBgBQCwAgBYAQCsAABWAAArAIAVAMAKAGAFALACAFgBAKwAAFYAAGAFALACAFgBAKwAAFYAACsAgBUAwAoAYAUAsAIAWAEArAAAVgAAKwCAFQDACgAArAAAVgAAKwCAFQDACgBgBQCwAgBYAQCsAABWAAArAIAVAMAKAGAFALACAFgBAIAVAMAKAGAFALACAFgBAKwAAFYAACsAgBWfMiKyQ8+DwsTOayWYmfQAJZ+ZUQRAIdUVTExEA1YGQkSoLkAB1RWkSPs+V1cdOX2v48v87pCVYtYiRGwp7km/84e3n223HBulABSMFcwsQaDKE/ufvNvMIZs83eNFXvnH022EIAoUWF5BLFozS7q++R9Lu3zXsohEa2tEzeFDKBQi3kqMBWBFvtUWwqIDisSo6fkPvv+TD5aVxaJadBiWXXDKGxdX+cQskAIUVgQlTKwD3dHF5bVFY4ZF6t14jSUdnf6ECaU2+amUEJMgggKbZKR5HEGxpVSq01u1Kh2fvNvMw0fUpv3OHhoyZfwF+8ejXteSZmJFjMoCFFBeQUKOrZraF8xbU3/A2M9fftioo1ubtF05oWZKhdX+hyWv97DlIq8ABRVBiQipuO0t/fO/fjYycfNJNVOGlZun2ud+cMPvP2m22TEJNwCFkm0Li4jYtmrveO0Xcy5+fejEEcVVVrhhVfOiZRsWdZJrQQhQeBEUM0koxJJq6Zg3p/1fruUyeekgsO24y4GybEbfNiioCEqxTns8uvbsSw8/e6jXGZDFLELEQszUlX7trpcfaLRs9G2DArKCWbRwzK3do3S3oToUZbGEng4Vu7ailL8mIaGQgzAKFFAEpUU5tjS2vvrf77TEdUdPwG6ktDy+x9QxJ+8eI8/vDIgRQYHCskKEbVs6u+f/5YN3LKe0pmTv/cZMO2XCURXB2mUN8/+67NF1bMEKUHARlJBSJGKNnrbX9V/b74giveYfH997z9Jn59Yv91UsaluMllmwCXk/Q5WZhDlR4pa6RCQbPt6wcE1Xl7AW9N+BwoygmHQgFHr/eu5f313TfMxBI6Z/4dD7Pt/51isrX//HmlfeaVgvCiM+QIFFUFpzPD5+r+rdon5bZ9eCd9Z4PX7bUaMPn7nXIQePKP/Gk3c3KhcRFCgsKzyfx5Sf+OVDz6sKA7Yd0ckuz49yoLVdnBhTxNKAWUegkKwgJiIWX/d06FTc6woC22KLFXen6pNMnamlSUw6AoWWV2jhqCNr1//+pqefsoUUq5xaJAwllVSOQsssKKi6goS0lqLEuD2HFq2qf3NZpxe1bSLRYpWVTax0O7rT64gUrAD9yOeVbxRrz1c1Zcddc+Qv7j7u+mOrK4KQHStqc8XJhzx05wlXjwh9jf4KUEhWiEksFHNAVFp1zuzjbp45cmja6w6JmZgyeTaybVBIdYWI6d62XelZ27JovXv8t4770bm7j5egK601EQljHBQosLyCmYR0KJEEr31+4Y/f1addd/hpXzrqpxH7noglIoK6AhRetp2pMYJQElFu+N8FN7GdvHK/8y88/JZmLxbqQEygBUDh5BW9K44ziR9StCTizV/8s9v+dsebnfEhruWyGeyBER+ggOoKZrOqLBMpO9SBH6ohRWrZqgfv8Jrap1w+KdLiMwnWgwKFZIVoYdelhqbffe+vL25obo67lh9KPBJpaXjyvr8trnWSG5SNXjxQWFaIsKW4J7X07RWB48RdS4noUNiNxNIdCxdrK+K4CokFKLAISkREqVhxlLVo6t3FRWtRVjxukYgWbOwCCskK6u22ln7bHTETkQgJ9joCmyXP26CYWUQP6AwABWQFMzNRSLzF+hAZBShAK8gPfEuVECoLACsyhV5CkShRiJ8ZwIrevIItxZ6WFH5mACv6RlGCugLAiqwREmrtcv6veQX+zeT3/hWsWIQ0fmaAuqI3rxBWimhrVqB9FhSQFSRMg6koREMMUDB5BesgVEzWAAc5okkpdFyAArGCeBDBEWf/A0AhRFBalG2LDNiLl2bFGhEUKJgIiphkazPtlBlCiIIACsQKxToMmLfc+hxRTnngCSOvAAUTQYmwUgP1V1REikMiLAkF+pHPc/GELGaPyNnSEU1eh2e5DvIKUDh1BbPWMtAX9AKfFSOvAAWUVzAJ80CdFYoHkY8DWJFfeYWleKC+bSEsqAkKzgohxoBZACtyIigMIQfbRz6vkqYEWvSpOs0KWZvLwBidmQViBeNnNjLQxuXhtIgopXKvjNZaa62UygqD65bfVsCHTD0QhqFSSimVNcFcHWbOPhgEgWVZqDfyPIIq5AlF2ZJt6gfLsoho1apVa9asWbp0aTKZtCzLaDNmzJi6urpRo0bF43EiCsMw+1TBupHXdcWAQ8S1iMrfXz2zyK6IUeKDDz6YM2fOm2++uWDBgmQy6bputtIIw3Ds2LFTpkw56qijjjzySNd1fd93HCdXLViRR7fLQp04Ye70pkwrpR544IGnnnpq6dKlxcXFJSUlFRUVQRCEYcjMpvS3trb+4Q9/ePHFF6dPn37FFVeMGDGiwKOp/I6gBryb5qkzphxrrYmou7v7pz/96ZNPPmlZVk1Nje/7ra2tyWSyvLy8vLw8nU6vWrXKdd1EIlFdXZ1Op5988smPPvro+uuv33fffY02Wcd2sWaWHfM5v3ehl4EDLMnHaXjZ5lcRufHGG5977rny8nLbtltaWoYOHXrqqadOmjSppqYmFouFYdje3v7hhx++/fbbc+fOraqqqqio+PDDD7/1rW/dfffdEydO3EWvgAkLTSvC9umRz3nFwEU+L2MD44PW2rKs22677eWXXy4vL9dad3Z2HnbYYVdfffW4ceOi0WjuS4444ojTTz/98ccff/jhh7XWZWVlDQ0N3//+97/5zW/W1dX5vm9uvbvQ16+trc3mRbm9NIP/FnltxYDPacnD/SuY2TQivf76688880wkEjGB0CWXXDJr1qyioqJNX6KUqq6u/upXv7rffvv98Ic/bGxsLC4u/vjjj6+//vpIJLLL3T5MKjV8+PALLrjgiCOOyP38g/8iBZpX5GWTbTYB8H3/4Ycf7uzsjEQinudNmzbt6quvbmlpue222xYuXBiPx03WkT04kUjMmjVr6tSpV1111U033RQEgeM4bW1txqhdLucWkYaGhvnz50+fPv073/lOUVER6orcos9bD8DzqLZgZt/3bdt+/vnnlyxZ4jhOGIZjxoyZPXu2UsrzvKVLlwZBYEKjdDptIu977733pZde6ujoIKJTTjll+fLlDz74YFFRkWm9DcNw16ousi0NzPz0008HQTB79uxIJJKNpgq9rhhgJ+1MhZpfHRbZH/7tt99ua2tLJBJEdMUVV5SVlZmBHrZtGz06Ojpyi4h53NxQzzjjjHnz5r333nuJRIKZp02b5rrurmKF6Zxpb29fsGCBuQJPP/304YcfPmPGDGMLrGDhgYMoEVGK82fStikTYRiuW7fOdGk7jnPMMceYYU5aa9u26+vr77zzTtd1sw2va9euNT3fzJxKpUaOHDl27Ni33nqrpKSku7v7qquuGjVq1C53Kd55552bbrqpvr6+pKTkzjvvPPbYY6PRKCIoU1fwAHlF3IkFQTrIo2lHxoo1a9Ykk0nbtkWkrKzMtm0TUZhaYty4cffdd19ZWVn2VXfddddjjz2WbcwVkZKSEtd1zZ11wYIFI0aM2IUiKBHxfX/KlCknnHDCAw88EIlEWlpaNmzYUFdXN/iOl8JtmU2HXmaEXH5FUA0NDZ2dnSYiOuCAA7JZpnFmw4YNL730UjamIqJly5ZlR9Gav0ycOLGysrKrq4uZ6+vrTU2yq1wBky1qrffYY4/KysqOjg6l1Lx58+rq6gZ/nvweByVbbaViIp1fLVLpdNr3fVPii4qKsq31WmvHdtbUr7nt9tu0DrXObK1sqpTc+2gsFnMcx2jT3d29a7U3mI+tlCorK4tGo21tbUqpNWvWbNN58npN8gIbM2vu98OGDSstLTVpw3vvvWcSjOyvzSE7ynUoEovE4vF4VoDcCGrJkiXNzc3m8TFjxtAuNegj9y5ggsDscC9YQUQ8mNGBkncDompqaoqKioIgMPFPNjpixdrX0Wp37NnDhp80hBwKA61Fm6gjO+ycmVtaWrJDzUeMGEG72lCo7NSRbC60rZ8/v/evoK21QW3vsje5t9YsmUf6P5H7q2z6dM6zWzop9fmj/9MbH1NK+b4fiURKS0tN+U6n04sXL852w2lf4sMiVVNKKg8stWNKB7pfThKJRJLJpMklTB4yevToAhw2m9dWDPxbyg4M78m9HWXJPEK9N1/u7Rg21TqZJ/o9nfMsM2c+Vd/niZllC29qGgtyH7Esa7/99jNBlO/7d9xxB/X2bSmX2xZ1ffS7+uWPr023+2xnwoxsV7dlWc8995xplvU874ADDigtLd3SbO9+kmb/Dis+0xWpGnDZG9mR5WUHqiukt8lHegcamAfN/83TG1+S86z5d79TZo7mAeqKnH8qZYnI9OnTq6urTc49f/78Rx55xHxhZSkJqHV+V3JZSrGyLMsy/1GZpdk//PDDxx9/3HSQp1KpmTNnmkpjs7ePfpL2C1p2afK2DcoPgwGybd7Bru2NE0BFk+SUByFSIjpTosXc+lVm5h+JzjythYiEiUVtfFZr44g2MhELC5NZMT3ji6lOtIh5U5UpjCSS/SBhqKurq88444y7777bjAH5zW9+s+eee+67774/+clPTKNtbsBtOvtqamrWr19///33L168uKKior29fdq0aUcfffTGLuG+tUA2Kkun02Zy32aHHsKKzxbd6e5PMY3OGYSpmDbWCqa0mAxWKSatRYhFsdk6Rlgp0aF5mfmrJlGKSUsmoDMF3/xdm3WhWYnojd4Jm7m3GfNUbwWV+SBsKa31WWedNWfOnLfeequ4uLi5ufkrX/nKrFmzvvjFL1ZWVm7W8X/84x933XXXggULysrKuru7i4qKZs2alUgkeptxNhOPGiteffXVcePG7bbbbjsjJt5ZGU7eWhGE3gB5xY6upZkbMWjK1BZk+tN1b+Ig3Bv/CClmLaZ8S+bJjeGRKMVas1K9tQ6JZlG9bWi9BbL3TYVZaR0aEUiyiYom8xZMTK7r3nLLLV/+8peXLFlSXFwchuHtt98+b968Sy+9tKSkpLi4OBKJBEGQTCa7urpeffXVX//610qpkpKSVCqltf7e97633377SVZVMZ0/oqV/C8+JJ56YXSXk0/Zhp4VneT2SfMC5dmpHapI+Y/ZzQgsWFtZsMghFoo0qbOJ2YmHNbAoyKWZNJsvOZBaSqSvMrV9EU68/2mzclKlI+twzMzWiSGaEi7CJxmTYsGG33HLLTTfd9NFHH5mGqblz57788stDhw4dN25ceXl5KpVauXLlypUrmdlk1V1dXdFo9Oqrrz7xxBN7x4lwb9gXhkEgyrKUlWvFDirRb7mqMAxt225oaDDNBpZl2bYdiUTMoFdY8W+IcrY2kHwHJqhmf59M89BmEnfetABssXpicwbunTdmwnjJxGSiNavct9hcq1CmJ1+Ie63RWu+5554/+tGPvva1rzU2NhJRNBotKSkJgmDBggUmNHIcx8RUHR0d6XR67NixV1555cknn5wdOiWiTdgXBD1+6EQcm7dxRZzcVmnP85qbm4uKikpLS4lo/fr1zc3NRDR8+PDm5uZ169ZFIpH999+/rKzMcZysbzt/gkfeWmFb9sCXcoeuc25dkdubIMxKsyYiFiWKWIsIC4kiISZh5swcQGEhYSERFiJFQpnEoPcNdG8cJppZ5Thu3qj3XTc+xNmGMDLvSGLmV0yZMuVPf/qTbdvpdLq9vd2yrOwEznQ6bWYX7bnnnkccccRJJ500adIkM+m5d+0cU2tp8X2yo4MM7rM1wMqVKxcsWFBRUTF8+HDLslKpVEVFRXaKbFVVlXGSmYuLi0ePHm3OHIvFkG1/KsQjCS16gMZZ5s20smrRWvRgxTBlJpNsb1wQQ0zurJUWrY0opE2fIgsTaZ1pmRItIqSUaC0iJtzqbbbt7fowEumNc2Yyf0pOW1rm3U28r8xBpLUIK/bSaTMuyPf96urqgw46qL29vaOjwwyqJaK6urrx48dPnjzZLF/Qb82bnDopuxLhgE1/vr969Wpmdl13+PDhLS0tU6dOjcfjpv130xr3s9mSm7dWOJbLNKjynRlSxoqZbbbVNi7uLyQW51Q+TGQpyrSdKrVxrbZec6zeCT6ilNoopw6Flcm0NZFiItIkTJY5g9aalOpNIUgsowwpSykirb2elLDyPF8CryUsHVZmRZzsdWATUJWWlp577rlDhw41Q83N+1ZUVJhpd2bElHk8WyFkhtuxYjdCQShib3ZtlOzxjuOYoVOG/fbbDy2zn7F0W7ZaoM3NVltst6ZbmlLN7T2ttmUPRoVs+5CQZBpK+8XbkjPGSjbJNqT/8Rv77Ho/V58UJtNDsfHI7EOmbgjDkJi11qJ1Wtrrk6xYlFK+53f5nabzIwgCETGLQfVprwsCswhAtjsvN28yvSmWFSUJtNaW4o0fhairq8uyrNyYJw868vK5DUrLVhdKIyIKJSyNlr+87Om5K18JJdhFJ1wYOXpbdrXubaaVgNbXp2zlpMNUdu6BWQck+8JsyLRpmZZsmxjbtmNJ32yfmT/44INDDz0035LSfK4qtla8JdvJrVS319WZass0Ke3S7dG9vosQK6GAe3yXOZotx6ZC2GyUv9mWukyTmGkP2xgvZdIj05q00zCzbWHFdqNUpsdYBq4rzJ3PUpatbMmruwKZfhJLqXD7W9w2k3dnxn8wE1FTU9PO+TrZNaFRV+xQqbBUZHC3/syPLvk1S6m3AZdFmHakDsz2ZvdrPiIioiOPPHInNZ84Du1wp2GhW1HfsmaQrUkilN1gWPJnxQ8TH2a+F/ftgt8h13Iqjux+AFttY930wvbrihzMy3dad17eWrF8/bJB/9Cq2+88sO7IfWoP7kl1s2k4EiImx3GYODsDwWSlW/rZgjAQLcpSua1YWmutQ2ZWlrWlznYhCYNQSCxlDXAv1FqHOmTi3I8RhqHWWlnKDMQgIi06DEMmVkopS4VB+L/vv7lYlv6bClP/imOQfQ4DjEUf/LvSzmrgylsrqktqBnlkJGG1tXnTRp74uUlfzMtL0fRi1wK9yAzGMg1QZkXAzzI7skmAmbPeZ8I6rDBUFlcNMs5oWpRUsWhbqiOQ4Kd33bXkgwV2POE6zojhwy+79OLy8oqFCxe+9PLLFeXlp3zulMqKykAHuf1YojUr1djY8Ovf/Lapcd0RR02bfsLxkWiUhGzLXrxk0fMvvDByZN3MGTPciGsmdUi2rYgyUxSeeebZlStXnnnmmbuN2S33/L0DpEgxv/fee6+88mptbe3MU2aWFJeEOmTmOXPmzJnzxoknnHDowYd4ge/Yzur61Y8//ochFRVfOPMLsWjU8/x0mM7GHo7jmFF3+ZtPkvl2juNkAzxYkZsvyGCmWHQ3p5wiu8vvFF9qh9Yma9vsWOL1/339vjvuvPT8C9asWjPv3X9WV1YvWrzo9h/fds0119QOHx6GoekLJyJNWills1MztPqJRx/76KOPjz/6GCfuENG7775733/918EHH9yyoWXRwkUHHnhgnxdqzcxBEPz+kUffeeedMbuNves/7/ryV748fvz47GGmDUApteSjJR+8v7C6qvpf899fvHDxN775jfLy8ldeffW3Dz+8116T/+ehh9tb20444cR1a9fddcfd0Wh0Q8OGe+78+bXf+lbEiSjONMV6nme2cckujZOXaK1d112zZo3pndyOoCufRwcOatcWE4DbVtyJk/CF555jHv7owwVnfPGsysrK9vb26dOn11RXN2/YcNjRx07ae5+LLzifcsY4mOJVVTX0S5de2tHWNu/dd5WyiMjzvDvuvOOk6Seff/551NuCmS2L2Qx1+ccf3/Xze375i/sPPeSQo0+Y/ugfn/jBDd+lPmMumIgqh1TOnDmzcsiQFR9/fOTxJx5+5BEnnXjijbNnn3/uuVddeeUNN/7gJ/951/TpJz3820c+WLjwuaefbljXcPCR0z5/+ukTJ0wwZ3Mcp6mp6e67745Go4NfcXXXvB2KZVnJZNIMbNmOcDGfRwcOsq4wc4Vs5diW7fkeCS1fvvzJF/782EO/tiyroqKCiHzfb2hs7EkmI47Tr0Y2xTcIfBGrqakp7A1nm5qb/zJn7uGHTb34kksmTJj4lauuNGG9qd+zTTmfrFzV0NKy2+jRRFRWUbFixUoizh1EbQ4eMmQIEQVB0NDQkO7pjrgRz/M+WLJ0/B57EFHt8OFr1jUQ0fuLFhWXlrmuWzW0Kh2GK1eunDBhfPbtPM9buXKlUSKfWts227plhgZv3zfN59GBRHowyzWY4UoxJ0aWqFDZjv3aa69VlZVOnXq4KcfM7Nj27B/fusf48TNOmp69hfdrLrRtu3cZYyGiVE+qubVtwcIF119//c0//NFlX736dw/9WvpmkMyc7O4urxjy1t//7nl+UTyeSqdMspG7xYTZq8WMHLz+5v+YNu2oqYcd2traGonFWlvb7rvvPk0soiXwPT+orKx88Je/HLf77ol4rLu7m3I+pFKq30ZHWyta21we6d8mm+z4rjvbtDp/oeQVZo2AwSTclrITbjFl5jfI7T+/96Lzz6uoqBARVkox//jWnyz84P3f/fbhkt5l+XKvdXZ8UWY4uhYRUZZyXefYY47ZY/fdDzr44PsfeLA7mYwlEqK1mb1gfIu4bkdHx+S9966uqXn8mWdjkYgZT5szT1t0726o3/r29Z2tLQ/e+3M3EiGiwPNLSopPOOH43/7+UWZFlm1bVltb21lnn+35firtWZaVXYJ6kKlnZsZS6GsxTcCDSuDMUN9Qa2XZaoc7FUSElWVZFIbhDrqxfa/N45VvBn3bYrIjViTqMrFt2wsXLGhtaz95xgzqXQfkhRdeeO3VV37z3w/uu/c+1DuUKAiC9vaOIAiygaxSKhqJuK5TUlLCzBXl5SOHVm7cqE5ZlmWZ21dHR2dPKmV+sNphNRGmnnQ6kUi0trZWVlWZ4huGYXt7h+/71DtS67ePPLJo0aJHfvPQ2LFjiahyyJCqspKm5uaSkpKWlpbiRIKZR9RUd7a3FZeUaK0D36upqSHF21qMRGsnVlJaHFOcnehBOQvcZNduyKAUiYjlRItLSqI2UWbpEeqzUlafV1Hfk2XHHDIzK8vWPU1lB371wR/NmlBDybTwJmf61FuxZs+enZeRZTrsefT9X2X7tgaga20qtT6cVLvPxGGTbMf+wc3/UZaIffXLXzZ7ncybP/9rX/va0cccu8+++6785BPXjSQScWZ+8+9/H7/HhMMOO3TcuHEi0tHevnTZ8qeffXbV6tVjx46LuO6QIUMU0Rt/+9seu+/+5J+eGj58xBmnnZD/8iMAACAASURBVBqGYWdHR+24PbTnHXP0NCIqLS1ta21dvGQJiSxa8MEF559XV1fHzIsXL64btdvESRMmT56smF997bUbbrjh1M9/fvSY3Vat/CSeSMTj8UQs+sacOVVVVf/7+usnnXjclAOn1NTUzJs3T2s9f/78uOtceskllmW98cYbixYtcjbJiDZ/m7SsVFvroVc9/NMvxF6f+25LD4XpHl/Y60n2pNKhKNu2mYg4THUnu7t7Uj3pQDjs6a7Y69Tvzv4qz7nn1fpYScQi8ruT3d09Pam0J+zYlmLmMEin014Q6HRPsicdkOXYlrGEQq+nK5nsSaW8QCwnEvY0Lvpw2eqGjpBIgp5k0pwpZMu27G2rjLTW+++//5QpUwZfdeT9vO2tt0O5CWfREw3Ppl8+fuIJw2pq6xs3XHDhRfF43NzI6teutS3rpdfnPPvyX1JtLT/88a1fOP00EakorzhuxoyqqirTsrRixYpvXPfdtq5kPBa//KqvXHP1ly//0pcuu+yyhx566Ibvfe9zp5xy9tlnm1u+67onnXD8+D32MD9tPB6/9pvfvOOuu375wAPXXHPNIYccYh4vKio6fsaM2tpaU5TX1K+NRSKPP/Xsb//wRLqt5b9+8cujjzrywgsv1CI//slt551z9plnnikie0+efO03vvGfd9xZM6zm1h//OB6Pe563zdELsw7SKS8QIeZ43cRJVuf62LCxFdGwtX758tUtoau0Hx8zef+6miIVel0tHy/8oGnkbhMq49Gxh5x88mhqWvHR+p6qvfeqqyyLUtC5eumHn6z3bUXx8pGVpREKg5KakUXc+cmiRQ3JULEVen68asL+e9QmXEk2rVm+bEXS8zwv1CQsVFw1Ye/RQ0sSjt/VuGzJ0g2d5Dqs5VPceSQP2yLM79qRbj/t94faHNnqtVMORWOJqw/4wbSRxwdhYMZrDHA32vSpzR7cb7rCll7V73EzUnqQ98Lcw7IbGuU2/ppmq1tvvfWJJ56IxWK5GfwAdUVPS/PUrz/+9d1fvXr2r9b17D37iUcmLX1g7oaqulFjq4KPfveLu55+q2vf06780mn7lSUcIa9tzXN33vLmId/576uOia78cGFb14rHHvjVqpIvfOXCo2vKyIkkpHXuz2+5d87S1D4zr/3edTNa5zy2Uo0ZN3YPvfChH9374upuXTP6pMuu/uLoYk87EW/lm/99z+3Lxt/1pyt6vnPjbXMWW8dfcMP5R9c6sWh5kbXy7UfvvOtPq3XMJS2DmwkTBMGsWbOuvPLKwdcw+b368qCED9PSub571ZpVokUplU6ns7tjEVEYhul0Op320mkv9ymtddrzshsTaq09z+s9Mm36j8xP4nmeST+yrSKe5wW95zFiBEHg+36uEiKS9rxsW3u/j5Et3+b85lOZukhr7fu+7/s7PpCOmUXCdFdne+PCO7996VlnfuMvzaNOOvMwd4097aLTSj/51XlH7XvAQdO/8sM31rWv+vPv75uzcNn/fPtzp1xy+xuLU0HLKzdf9blD9tt3yhHnv7T+uKvOGpdOhX5PUsKOf73+x+uvOOucix+wjj596m7lSleecc23J3f+5orzTvvczDO+9uPHP2q33LC9sanDC8i2eeU7913+hWMP3Gevo879r2DUmWceXdbWEVrWp9jfktf74hGTaNrayFlWJJbEo3Fm1qJd180tTFsaH6GUirhu7j/dnH9mS1V2enRuk4g5Mlv6RYR753fnViC559/sx9j0/NS7X1G/tt3tjgiUskKv68M5c8IRE2rXB82Njf64yqG1La8//uLuJ5x3zx9mrF+7ZM7zT7623qkpG5KIRsprRtV5Q0pUx7pV+ojTr71yr6HsB1VDvKKSulgwzy5KtCxbuHTpytI99nbWr6rv4pIhbnFitz33XP/05S/1lI7Zfaj2wlR3l5+wHcvyFLMOkxuaxp3+rTu/W626g6phpWF3zfCI/6Hm6OD3J9nWu0Nej/gQUioUsga+fMwcaD8WiRKTDkPL3uXHCOXWQqY5a7srDWFhVrbrsO8FoWspW4XiFPvvPv2Av+aQKQdMHF17wJe+M05987olaR0GYUiiVJBKDT3t618/trpz8dJVndqKDfXEMkmyKMt2FGsvHYrlKMssfKXJEiuzEBzlrjlHoRXb+4qbrqlb/68PG5pTltuTGmaRsnqXlBvkt8jW1WiZNSvCuFq22pfHQtqMyduZnb7ZsquUspRlhpFvbobPDr2Fbds1NTWDH0CaWX5Eh0Fo1silMAzMerdEorXWOvD88t13L1n19sOzv3H5d255RsYfd0Cd7vGDWDTmUOfqlWvavN2Omzl6yfN3XnfNN2+69XdrKcZaizCJDsMwzHwQHYahEPekFr73z7IzZp1W1rZqRX2bcoqKSpwgCLQW0WGkdP9jp/FTP7nu2mtvuP+R/+2Ol4jvaRMhD/rrDBs2DHVFNrEwTVHhwM1QLBTqMJSQeOOCsTutVWBL03F2/GOYMyulJk6c6Pv+IIU3/RV2tLi0KKpYhK1EcVloixCJ5kisqKQ0Kj32xOOvOP/2ySWkg3TbiidvffIju9t97+//Ovnie+aeteHt+2/91W/+893LZ/3Xs6evaupM20VWgiMkWrnxouIiV2lhEm0lSkvjUVvC9U/ceVPZ1y/+72fOF8fpXvrKvT+7dalKlJcq27Z7ml599HeHXfbgC2c0rVnbXT6E/aAolllkgWSQt55JkyZt080uj9ug2j73yCE2xYoSY1Pp5Vvsr9Ga7Mj6rrXXHPqD8/b5khd6ruXmT10pwswrVqyYOXOm2edlMBWRhGG0rKbM6dnQ2hFKpLyqUjrWtqaIQlVUUR5z0i2NXdHK6qFDyqI266Br/erVzd2sFLnximHDhxZZ3WtXr2pOJkaMqonZoZ/ubusIE5GehsYup6iitMhKtmzo1opDt6K2PGxv7uj2gzCMlA4bWVsRsSTV2dKwrjHtVlYX65bWjpQXOLHqESPKrDCd7E6l06FFyabWlLLUIG86ZuF0s776IEcK5/UeqiyBr1icAXo0YjrsUWYVP01EnEdTt7OVw4gRIy644IKHH364rKwsDMOtLTQqbFndLWs6xHIdmzm9Yc0KsqOORWTrzuaGNlGOa3dtWN2y9hMxLdsRs/yspLsaP/pgjSYrEolYqmPl0mYtzEpZiprFikQsL9m0rkMsx7WYyEo3rlrNtutYylbK66hf1LRKiFjZbsRV3RtWdZDj2JZlBz3rlixcQ8yWKdNsu47a+rdgZuaenp6rr746kUhsU/Wb39k2Ow6lg9UDtN32KMvsptJ7yTifvr9pqHVd98ILL/znP/+5ZMmSWCxm7pdbihHMdbCcqJ1xSjnRWG8bN1tOxDxuOdG426+Biy07EncivY/Y0ZjTe4BZKYRU9vVERCoSjWY/hmVH407O+SwnamfeVlmReDwTEmdn6A1QxLNNcKlU6qCDDjrnnHO2dZhgfvdXsG1prbsGOCg0FUWe1pXU25cyfPjwG2+80aysnEwmTceLDER2rGPvaMf+j2e31Ov3rN70iNyz5R6/2dfmHLnJaTd5v00JgiCVSiWTSSI68MADb7rppkQiQdu4pm2eR1ChJstyRfyBk/J8nYCTDSS01pMnT37wwQfvv//+f/zjHz09PZ2dnbvWDvODrBuLi4uLi4vj8fixxx47a9as3P7+wVcX+W2F9n3lOuVBuH6L319EW4rz+MbQ2xKltU4kEtdee213d/fy5cs/+eSTdevW5dOuwVprx3Fqa2tHjx49btw4x3FM1aJ6V7tGXZHNGynUbVv88myx9plY8vrekL2PmgAjFotNnjx58uTJ+fulSWvdb8uBbXp5vmfbrhbZ4qDRtPZZKVfrPLYit9IwCy3nBvR5+U0zHaPbq0QB5BWh2YNxC19eWaL1DmwwvEsm31wQX7fPt95WVH5bsZV6NrOxNQCFYgUNvCB5dqlUFAJQOFZsJaQU1BKgAK3gLQ964Y27kAJQSHmFPbAVqCtAIWbbW/52ZsNf/Pyg4CKoASoDIbZQU4BCs8IPB1rxBUaAgrRiG6fqApD/Vji2qwViAFiRa4Vli2i0voLtsSJ/yw3LFhpgmdhGfwUYwIrsqkG5fKY+YmYtlpzPNrhPaJaoV5sukRJVls0SakHODTaLHYZh7sIHA+xduenSKZsdqbvZBV367YGy2ZP30yD3yNxZI/3ecdO3631ki8M9Agk9MxkFjVFgs1ZkV+batPwNXHZpC+sHb2mdrwHK9JaOzD2PmRJgBkLnvmrTt+t9REIt9uZGyvsiREphXCDYkhUi0tDY2NTUVFZaOmzYMLOYqed5jY2NZmpCxHGi0Wg8HjfTOMx830RRUVEiMXBd0d7e3pVMRl03UVQUi8VyS3l7e3s6nS4pKYn2rvKQu3Z3bvlOp1Ntbe1lpaXZ9SC2sC1d0NzSEgZhJOKWlpbatp3ZImgLS8yx2asKYoDN5hVtra2zrrhy2vHT6+rq3vvX+6Z0Llm69JBDDjvyhOlHHj995LgJB089YvnyZcw8/7337r775xdedPF111334ksvDZCHBIH/83vvm3L4EVVDh94w+2YiMtv2aK1//+hj3/r2dy655NKnnno6mUz2O0NurLVs2fKvXfP1iy66+Jvf/vaHixZtXKu479L2RLRmzZr/d8WVex1wYGVl5fsLFlDvMHKRLa62L1ACbMmKIAyff+pPr734XKKq2g8CU+wm77lnff3qjxd+sOLDD04/7dSqodU1NTVEtGrlyiuuuPylP794wAEHnnXRJatXrTLT5DeNfyzL/v4N16/7ZPkhR04LwjB7U3/ttdeuvf57//Ef//H8889NnXr4unXr+i3nlg2TUqnUjd//fndP6s9/fnFDa9u137k+u0t0rkWmcqurq3vuySdef/G5RGW17weUmTexxdSisCakgW21or6+PgiCpubmsHfLbrNQSk9Pj+f7c9544/kXnj915smlpWVhGJ566qlDhgwJgmC3sbuJlrVr1242pDH/DcNww/r1XjqVkxjQXffce/Xl/2/Fx8ufeeaZWCxmts/KrsKQ+/Jly5b97a23Zkw/sb6+/qhDD1m9YunixYs3rSvM8WEY9gZRAQo82NG8wrIs27Zt2+4X2buRiKXU0y+8mIgnzjr9tOwSVGaq+MP/8/DokSN23333Tfczz11q23GcjZMcmJnlvUWLly3/WAstWbLkqaefvvGGG0aNGROGYXZzhuzLGzc09YTS0d7+/AsvRCJu/fqmpR+vmDx5su7dg7Tf8f2+BQDbX1fk9gbkRvaWUi3NzW++MedzM2eMGFmXXWrKsqz777//zy+9dOvNs4dUVpo7PRF5vp9KpwfoTzCl1VJWZ1fnd6+77lcPPrhs+cc/+/k9ZjNpEck9Q6axyPNqhtVMPfzwqqoqz/ezmbOIpNLp7P6i+BXBv9+K7BZSnu+b3aWMGH959bWVq1af84Uzsnun27b9+OOP3/bTn972k1tnzJjh+75pmCIi13GikUjufiK+76c9T2sxu1cFYUjE1RXlp8042ayLOGnSxPnvvy8imkhEzBlMNCUilUMqoraKRKOTJk3q7OwcMbRqt1GjjIRmD1/HcbJ1hdmAy2x75fl+Ou3BFrD9VkQiEdd1y8vLmHjk8OGRSCRT0EVe+utfR4weM3XqVJNPK6Xmzp37wAMPPvzQQ+eecw4RmeXZgiAQkR/d/rNzzj+/tbXVNIma8Km6uiYej5aVlUYikaJEQkQuOvfsR59+NtTS2dm5cMHCc844nZlJa2b+4e0/Pef8C9paW01uM27s2MMOmvLYH54gohf+8uqIMWMnTJhgKpb29vYvnHv+T267zWQUROS6ruu6w2trHccZObw2EnHNwkf4gcH2WPHPefNOOf0LJ848tbul6agTT5o85ZCGhkbTCPvcM09fdvGFtuMIiWXb6VTqkiu//Ne//uWa735vwj77TT32+Llz55r92Jn58Sf/9OgjjySTSdO8k0wmr77m6+Mm7jX372/fc/8vx48f//iTTzLzeRdccOkF559//nlf+epXT/38qZdcdJGpmpjp8SeefPSR35p1c0MdJhKJm2bf5Pvpz592esS2fnjzTdFoNNShZVvd3d1P/P6RP/7xj6aiE5F/zpt33Mkzpk2f2blh/eHHnbDPQYc3NjZayhKCGGCb4XfefqeouCSVSiUSibVrV7d3dO45cVIk4nZ1JTds2DBq1KjeFJa1Dpev+ER02JXs1lrbtr3bmFG1w2qj0aiyVEPj+nQqNWLEcJM361B/snJlW3t7UXGxDsNkZ+foMWOGDKlQyvK99CefrFRKDR8xPBaNZdOO9Y0bUqmekSNHcs66r50dnWvXrqsdNqy4tHjjp9a0as2aeCxaWVVpHuhJ9qxYuTIMw6Kios7OLhGpGzfstMemxuzYVsWwldPYVX/NoT84b5/L/NBz8mVXF7D9bVBrvFV7j5nMKSuknlG1I8vcMj8dMqlYRax2XHVPOi3ahP3attShR0xxaGOhCXWYSUJIhtcOM49klvu11e67j8t9p5ACHWoRbbv2HuP3IKJA+6kglSm1LEOqywMqXtG2vD3VJiRMLCSu6zrDnZX+x16Dx2ZjeSFmjpXHusLW1Q2fmEcsy4qOjDisPJ2MVrKtnEWtC8wZ8BuDbbbirr/dEvlEh2lWVqb11AwQMm1JxNRnceJNxvxRbsOQEGc2yO19vWQH4AkzZ0ZY9DkJ55yAiPrvLJ7bMpb7uNbC3H+cSObdhJiJiSM27vpgu6zoLXPZwkZ91iIe+FYrm3tEtnzwIG7cvIVFLjcZhLvFB82rs7UNY1ws2FYruLd6yLSpfjrZy46fVrbuKPWrgvJpcwawU60wOyyJmH0SJfO//gOFNsZCmytnZiqoELNitcmtWbTWmjTtQIjPzBbbg9xogs3X2Il7BIN8s0JZlrItCokVESvbsS2lSEI/7Ye9Ub9Stu3YikV06HuB7hviCKtYNOY6lugg1dPjhxtjICFiZSXcogRHWZRkt8Am6bN+38a8WHJfmjk9caD9Dr/NF3+Q4ZDJyiUMKJOhA7AtVpy3z2V140eEfqiURTq5vqEl2eORHa8eOSyuMgm019PStKG1x2cnVlZTU+6q7OQEIWIKkiuWfrS6scOKV4zbc2J1sZ37bLprQ7K1vW74lJKiIt1nllI28u+tiUy3hQjxxl3GtYhiFWi/1WvytT+Y2785f4+fvHPubBfNrGA7rDh61Alj6kZn/+0NSXb3+GRFy4ZGNx4V6u6hnemQbSdRXGFtepa2SH1jbVJFS0aOqYlG+j4X6FTL+kh5DTs79YtpCX/2xvfZQuMs2HYrOtPtgQ7CMLSUElZuWcItIyId6sDUFKJDYjteWRonIgr8wCNW2ZnSzCzEZXXDy+pMG5bnhayYSUSYmJhtKzq0RpPWWja34oZ5E9JaaOP0U2Ii0SRkgjVWirXoQeYJpq7oSLdlqhsAttUKS9m2slnYspSYYEaHmlgp22IhIs1KMlPemFmpTErNxJpIERNp0WHYmwVYFivFxEyaWLGJjjQTZ2cX9W0aMv/SJMJKZSdlk9bCREqRCEnvXmeZXo9BWWEru0/CAsDgrTB/mGEamRKnLGXmbwoLa9NiS5wzu40z/W1sMgMms4IOkTadEsJELKxJcnsQcubZ9bWjvybmRMKsiElEm5ZjrUkpJM5gJ6Bct38+mg1kTCxjeo1ZmDNlXMyYCxbJLLlEzJmnmdgcykzm31tuHpXN3ONNF0PvfDvusxSUefxTvhxosAJEZJsJ2ZsRI1Nyc7Z5yAym2Di3rk9xEjZDLlRvaeaNW88xbbqgTuYfff/o9UUxiRZNQkyKKDQVWq8Vm10QpN/j22BQdqaUiKWsfpHYZiO0TS/Xdv8AW/oKeca/96J96lYUFxdv+c7JWyjKff6aCbGIiFhtefmAbbhhmzPmbDBhb+FCbvbKmgeVZZuCvtW7v6mFit3SnFFcA/1s/96fs0C6Gnetr5m3+207bPcOYdlKpcEixFydqEXksNPqis+4JPmwJrlorb3+e7j4DRvYcWgQcZSEoZVIuC0B9V3CJ1PV9DsY22JsO2E63fzaa+3z5nlNTTqdps/2HEnROh/qClZq0yXPUh1dyrbJ2/oCgaK1VVLktXQPptmX7V3jim1G6ZxId1tj2h35HKHnad+vOOIIZdu7ymKN+RJBbXK5JfBlcGtmMrNoLZxXS5T7nZ3da9dm4gHXdYqK7ETCcl3avsWBRHQYShiGnqczE9H6XkPLYssiEVKsbEfZNpuOK2YrErEikV0r2svbvGLbrwVtZhnpXXY9BLekxM22o2z3HVpEB0Ho+xIEyrbZtp14nBKJfifknVn5fPqkWlvz1orMxMDBHcrM3V1tEob9N67fpX/pHf/wzMpxlONQwSAiDa+8ohqXLMmHAMrqP2ZRWUq0HlS2zSxhuPqT+TqVQpW580rf4NjJn2rpPfe0/M//2GE0mhdpRf/7YsnY0fptj6ytfzu27aC1SU2ps9xBhb/a8zbKxmwCaCz6P1gZtBbflzDchvoqEtkZV1gk7O4efc45dM45thWP5+X1V9GYbJzmsdVsO7RKijkyqMkYysWcjR24e5m8/DP52axEwkokiMjeBmt3KcLQz85h2ur9i5klCLY6z/vTrtDzr5/7U71i/8bL1e9z5u0i3lrC3oxTBnNxcwbzFlCp3fmR7S7xOfN2v+1QhyiUYDvD79WrV+tNOmX+7+/0Wu/gp9q+yUZYsBkQkWptbf0MVnNmOf7/s7gLFLgVxxxzTJ6Fyztyv9eiUSaAsj6bzWQA/B9asUvf2gHITyu2I37LjgWAUeDTYJccHdhvA1UA8q2u2A56enpQVwBY0YdYLIZfDsCKzQdRiKAArOiTcCOCArACdQWAFQDACgBgBQCwAgBYAQCsAABWAAArAIAVAMAKAACsAABWAAArAIAVAMAKAGAFALACAFgBAKwAAFYAACsAgBUAwAoAYAUAsAIAWAEAgBUAwAoAYAUAsAIAWAEArAAAVgAAKwCAFQDACgBgBQCwAgBYAQCsAABWAAArAACwAgBYAQCsAABWAAArAIAVAMAKAGAFALACAFgBAKwAAFYAACsAgBUAwAoAYAUAsAKXAABYAQCsAABWAAArAIAVAMAKAGAFALACAFgBAKwAAFYAACsAgBUAwAoAYAUAsAIAACsAgBUAwAoAYAUAsAIAWAEArAAAVgAAKwCAFQDACgBgBQCwAgBYAQCsAABWAABgBQCwAgBYAQCsAABWAAArAIAVAMAKAGAFALACAFgBAKwAAFYAACsAgBUAwAoAAKwAAFYAACsAgBUAwAoAYAUAsAIAWAEArAAAVgAAKwCAFQDACgBgBQCwAgBYAQCAFQDACgBgBQCwAgBYAQCsAABWAAArAIAVAMAKAGAFALACAFgBAKwAAFYAACsAALACAFgBAKwAAFYAACsAgBUAwIqdDzPjIgBY0fdyMC4IgBUZRISIhAl1BSAbl6A3dBIiRgQFUFdk0YFvE/m+5+FaAFiRiaB0yES+1hrXAsCKbARFRGxZFq4FgBXZbJuJtGUj0QKworeuUEoTuci2AazYeB0sJyBycCEArNgYQaGWALCifwSltY+rAGBFLloHyLMBrOgbQYm4ROisALAi5zoo1UMYBAVgRW5eoWwFKwCs6KsFKyLBdQCwIjevICImgRgAVvRaEfpMRK1NjbgWAFb0BlC2EJFICtcCwIqMFZYiIiofOhrXAsCKbAyliYQpjSsBYEWvE6Em4q6m9bgWAFb0ZtthhCiVTKHLAsCKjZmFJnJse3Nz8dBcCysKNNu2PSKrvLJ00+c6u7pxgWBFIVqhlE0kyo73eyIMtbYiuEAFBYZP93Fj04csS5XGce9AXVGQ2bYOmUgEKQSAFVkrwlARacxTBbBi43VwIiERFoMCsCKnrii2huAqAFiRix4aG46rAGBFLhx1orgKAFb0F6N/UIXmKFhR4HnF5h7THhbuhxWFXFEw9xeDlbIUrg+sKODr4OnNDHbCEuWwoqAjqIbkWlwFACv6WNHc1YG1AwGs6HMdbDvA1QCwok9dQYqxShqAFbkwix6kPgBWFEpdobUmYgmDrRyHMbWwonCsCAOXyEul0gOrgw5vWFFgqQWpMAgQPgFYYRZeZsv2ROx4YqAxgpoxKwlWFEqizSKkbJeZlD3QwgVqM+NCAKzIz0Q74Ehp6pO/LJg/b2v+IK2AFYVSWSjt98Qq96itGrK1zAMRFKwolAhKKe0VV+xbMWL0QEmFCGmsAQIrCibbFuaaxLABj6GAmYMQI6VgRaFk20ziWrEBjyFLRNuWQgQFKwoG7XnBwHWFxRwGqCpgRSFVGJ3pzgF76cQjsQV927CikOjyugawgplZmLHiJqwoqJS7K9018IgOh8VXCnkFrCigCMqXreyIJ0LKsdBfASsKyArLCQZeZ5aZLXRuw4qCsmIwI5xEBHUFrNj10wUaVFknMvOJtnIwE+oKWLGL+yAiPIi5c8wsIjSYuoIJdQWs2JVDIjGtqYOMi5iEN7sDWB/NQvRXwIpdO1FQiUipiAwcRAmJiHasqM0JkYFG/4XEyg80rIAVu2r4JGIre3jZaKKtBFEsHEowJFFVVVzNLKL1AFdKbLTMwopdVglmdq3IYSOP6vG7FVsyUKe16vG7R5eOmzxssoilLGuAK8UYHQgrdtnYiUXEUtbRddOLYkOE9JaqCxEhEqXsfWoPropVhxJoHQ6UOWDEB6zYpa0QkREldZcd+I2kn7SUTdkW2JzibSmr20/uW3vYaRPODXTAxKwsHmBuEVYzgBW7dAQlIorVKbufcf5+V7Wn21lIscoNnBRxV7pzbOWe355685DYECa22CIRYoWyX+BwvsYEprpQrAIJnvnoD4/86xfNXQ2uFSEmEtESaqJp42bM2u/q2qIRoQ4ttggugDy2IltdmKiHTS7P1QAAAGtJREFUiFp7muc3vjuv8a369tXFkdLxlZOOGnFMTfEIRznZwzIdFwBWIH8EIP/zCgBgBQCwAgBYAQCsAABWAAArAIAVAMAKAGAFALACAFgBAKwAAFYAAGAFALACAFgBAKwAAFYAACsA2Kn8f7wSwgJsk4V+AAAAAElFTkSuQmCC;" parent="1" vertex="1">
          <mxGeometry x="890" y="17.5" width="243.75" height="650" as="geometry" />
        </mxCell>
        <mxCell id="hrnPTHgjcRG-61fIRarA-16" value="br-intra" style="text;html=1;resizable=0;autosize=1;align=center;verticalAlign=middle;points=[];fillColor=none;strokeColor=none;rounded=0;" parent="1" vertex="1">
          <mxGeometry x="730" y="415" width="50" height="20" as="geometry" />
        </mxCell>
        <mxCell id="hrnPTHgjcRG-61fIRarA-17" value="192.168.0.1" style="text;html=1;resizable=0;autosize=1;align=center;verticalAlign=middle;points=[];fillColor=none;strokeColor=none;rounded=0;" parent="1" vertex="1">
          <mxGeometry x="550" y="415" width="80" height="20" as="geometry" />
        </mxCell>
        <mxCell id="hrnPTHgjcRG-61fIRarA-18" value="192.168.0.2" style="text;html=1;resizable=0;autosize=1;align=center;verticalAlign=middle;points=[];fillColor=none;strokeColor=none;rounded=0;" parent="1" vertex="1">
          <mxGeometry x="560" y="290" width="80" height="20" as="geometry" />
        </mxCell>
        <mxCell id="hrnPTHgjcRG-61fIRarA-19" value="192.168.0.3" style="text;html=1;resizable=0;autosize=1;align=center;verticalAlign=middle;points=[];fillColor=none;strokeColor=none;rounded=0;" parent="1" vertex="1">
          <mxGeometry x="730" y="290" width="80" height="20" as="geometry" />
        </mxCell>
        <mxCell id="Vj5H4rQFQBF9NuJBoQj7-2" value="maquina3" style="text;html=1;resizable=0;autosize=1;align=center;verticalAlign=middle;points=[];fillColor=none;strokeColor=none;rounded=0;" parent="1" vertex="1">
          <mxGeometry x="560" y="370" width="80" height="30" as="geometry" />
        </mxCell>
        <mxCell id="Vj5H4rQFQBF9NuJBoQj7-3" value="maquina4" style="text;html=1;resizable=0;autosize=1;align=center;verticalAlign=middle;points=[];fillColor=none;strokeColor=none;rounded=0;" parent="1" vertex="1">
          <mxGeometry x="730" y="370" width="80" height="30" as="geometry" />
        </mxCell>
        <mxCell id="Vj5H4rQFQBF9NuJBoQj7-4" value="maquina2" style="text;html=1;resizable=0;autosize=1;align=center;verticalAlign=middle;points=[];fillColor=none;strokeColor=none;rounded=0;" parent="1" vertex="1">
          <mxGeometry x="1035" y="345" width="80" height="30" as="geometry" />
        </mxCell>
        <mxCell id="Vj5H4rQFQBF9NuJBoQj7-5" value="máquina1" style="text;html=1;resizable=0;autosize=1;align=center;verticalAlign=middle;points=[];fillColor=none;strokeColor=none;rounded=0;" parent="1" vertex="1">
          <mxGeometry x="623.52" y="566.67" width="80" height="30" as="geometry" />
        </mxCell>
      </root>
    </mxGraphModel>
  </diagram>
</mxfile>
